<?xml version="1.0" encoding="utf-8"?>
<!-- Generator: Adobe Illustrator 27.5.0, SVG Export Plug-In . SVG Version: 6.00 Build 0)  -->
<svg version="1.1" id="Layer_1" xmlns="http://www.w3.org/2000/svg" xmlns:xlink="http://www.w3.org/1999/xlink" x="0px" y="0px"
	 viewBox="0 0 1429 864" style="enable-background:new 0 0 1429 864;" xml:space="preserve">
<style type="text/css">
	.st0{clip-path:url(#SVGID_00000077326549077497870000000010956169550118227110_);}
	.st1{fill:#0C2752;}
	.st2{clip-path:url(#SVGID_00000076601776166585097450000017725170608993928108_);}
	.st3{fill:#FFFFFF;}
	.st4{clip-path:url(#SVGID_00000030450150637863607700000004974911816005467308_);}
	.st5{fill:none;stroke:#0C2752;stroke-width:2;stroke-miterlimit:10;}
	.st6{fill:#E5E7EE;}
	.st7{fill:none;stroke:#0E2851;stroke-width:2;stroke-miterlimit:10;}
	.st8{clip-path:url(#SVGID_00000160185628839604989500000018185213958796357763_);}
	.st9{clip-path:url(#SVGID_00000078010174631570321400000005278038070004581051_);}
	.st10{clip-path:url(#SVGID_00000064352557844259350120000017844262036154418331_);}
	
		.st11{fill:url(#Path_27074_00000121980918868539774400000007223803635075256255_);stroke:#0F2851;stroke-width:2;stroke-linecap:round;stroke-linejoin:round;}
	.st12{fill:#0E2851;}
	.st13{fill:none;}
	.st14{enable-background:new    ;}
	.st15{clip-path:url(#SVGID_00000054267091980905833170000005159547614211207077_);}
	.st16{clip-path:url(#SVGID_00000028322786482564833560000004846161891822934954_);}
	.st17{fill:none;stroke:#0C2752;stroke-width:1.9996;stroke-miterlimit:9.9976;}
	.st18{clip-path:url(#SVGID_00000146476949467531912210000001197345731705685679_);}
	.st19{fill:#4674F8;}
	.st20{clip-path:url(#SVGID_00000107558944842096025620000001681596970172520839_);}
	.st21{fill:url(#Rectangle_8374_00000133506343392702245830000013406481983444947338_);}
	.st22{clip-path:url(#SVGID_00000163070359991725277520000017705136007057466763_);}
	.st23{clip-path:url(#SVGID_00000052079644170808852500000012924738404531893947_);}
	.st24{fill:none;stroke:#0C2752;stroke-width:1.9996;stroke-miterlimit:3.9992;}
	.st25{fill:#E6E8EF;}
	.st26{fill:#FABF6C;}
	
		.st27{fill:url(#Path_25459_00000065055478117674086020000015826488530019786626_);stroke:#0F2851;stroke-width:2;stroke-linecap:round;stroke-linejoin:round;}
	
		.st28{fill:url(#Path_25460_00000170239239817834581960000000323082131519056277_);stroke:#0F2851;stroke-width:2;stroke-linecap:round;stroke-linejoin:round;}
	.st29{fill:#FFFFFF;stroke:#0F2851;stroke-width:2;stroke-linecap:round;stroke-linejoin:round;}
	.st30{fill:#F8F9FD;stroke:#0F2851;stroke-width:2;stroke-linecap:round;stroke-linejoin:round;}
	
		.st31{fill:url(#Path_25463_00000035514433058531410950000011860274943278203280_);stroke:#0F2851;stroke-width:2;stroke-linecap:round;stroke-linejoin:round;}
	.st32{fill:none;stroke:#0F2851;stroke-width:2;stroke-linecap:round;stroke-linejoin:round;}
	
		.st33{fill:url(#Path_25464_00000160877614089978434230000017982756172837861277_);stroke:#0F2851;stroke-width:2;stroke-linecap:round;stroke-linejoin:round;}
	
		.st34{fill:url(#Path_25466_00000057119402493711773800000017047494505032773815_);stroke:#0F2851;stroke-width:2;stroke-linecap:round;stroke-linejoin:round;}
	
		.st35{fill:url(#Path_25468_00000082337101730578423590000006845530101855509655_);stroke:#0F2851;stroke-width:2;stroke-linecap:round;stroke-linejoin:round;}
	.st36{fill:#0F2851;stroke:#0F2851;stroke-width:2;stroke-linecap:round;stroke-linejoin:round;}
	.st37{fill:#FFC472;stroke:#0F2851;stroke-width:2;stroke-linecap:round;stroke-linejoin:round;}
	.st38{fill:#FFFFFF;stroke:#0F2851;stroke-width:2.0002;stroke-linecap:round;stroke-linejoin:round;stroke-miterlimit:4.0002;}
	.st39{fill:#87E5A7;stroke:#0F2851;stroke-width:1.6;stroke-linecap:round;stroke-linejoin:round;}
	.st40{fill:none;stroke:#0F2851;stroke-width:1.9998;stroke-linecap:round;stroke-linejoin:round;stroke-miterlimit:3.9998;}
	
		.st41{fill:url(#Path_25480_00000168095897822772473910000013559832252113684127_);stroke:#0F2851;stroke-width:2;stroke-linecap:round;stroke-linejoin:round;}
	
		.st42{fill:url(#Rectangle_76_00000135673422978939609820000010557332189539308966_);stroke:#0F2851;stroke-width:2;stroke-linecap:round;stroke-linejoin:round;}
</style>
<g>
	<g>
		<g>
			<g>
				<defs>
					<rect id="SVGID_1_" width="1429" height="864"/>
				</defs>
				<clipPath id="SVGID_00000095305601810675689430000010440010681997354686_">
					<use xlink:href="#SVGID_1_"  style="overflow:visible;"/>
				</clipPath>
				<g id="Artboard_1" style="clip-path:url(#SVGID_00000095305601810675689430000010440010681997354686_);">
					<g id="Group_15213" transform="translate(-300 -634.055)">
						<g id="Group_15210">
							<rect id="Rectangle_8394" x="361" y="699.8" class="st1" width="278.9" height="434.2"/>
							<g id="Group_15185" transform="translate(346 654.332)">
								<g>
									<g>
										<g>
											<g>
												<defs>
													<rect id="SVGID_00000023979866691024951750000015608755214084816528_" y="0" width="280.9" height="468.7"/>
												</defs>
												<clipPath id="SVGID_00000116230375791048095360000009400368204092055197_">
													<use xlink:href="#SVGID_00000023979866691024951750000015608755214084816528_"  style="overflow:visible;"/>
												</clipPath>
												<g id="Group_15184" style="clip-path:url(#SVGID_00000116230375791048095360000009400368204092055197_);">
													<rect id="Rectangle_8382" x="1" y="33.5" class="st3" width="278.9" height="434.2"/>
													<g id="Group_15175">
														<g>
															<g>
																<g>
																	<g>
																		<defs>
																			<rect id="SVGID_00000147899986906774560390000015209132690433303681_" y="0" width="280.9" height="468.7"/>
																		</defs>
																		<clipPath id="SVGID_00000127749280497661083070000014336411279845465261_">
																			<use xlink:href="#SVGID_00000147899986906774560390000015209132690433303681_"  style="overflow:visible;"/>
																		</clipPath>
																		<g id="Group_15174" style="clip-path:url(#SVGID_00000127749280497661083070000014336411279845465261_);">
																			<rect id="Rectangle_8383" x="1" y="32.8" class="st5" width="278.9" height="434.9"/>
																		</g>
																	</g>
																</g>
															</g>
														</g>
													</g>
													<rect id="Rectangle_8385" x="30.1" y="67.3" class="st6" width="214.8" height="214.8"/>
													<rect id="Rectangle_8386" x="30.1" y="67.3" class="st7" width="214.8" height="214.8"/>
													<g id="Group_15177">
														<g>
															<g>
																<g>
																	<g>
																		<defs>
																			<rect id="SVGID_00000093855983707856775220000010281821734173185199_" y="0" width="280.9" height="478.7"/>
																		</defs>
																		<clipPath id="SVGID_00000018949991808355889170000004114015519614687137_">
																			<use xlink:href="#SVGID_00000093855983707856775220000010281821734173185199_"  style="overflow:visible;"/>
																		</clipPath>
																		<g id="Group_15176" style="clip-path:url(#SVGID_00000018949991808355889170000004114015519614687137_);">
																			<path id="Path_27071" class="st6" d="M108.1,13.5c-7.9,3.4-13,17.2-16.5,25.9c-9.9,24.8-9.4,56.6-10,83.9
																				c-0.3,12.7-0.3,25.5,0.5,38.2c0.5,8.2,0.9,18.6,4.3,25.9c1.1,2.4,2.6,4.8,5.1,4.6c29.3-3.4,83.8-10.7,83.8-10.7
																				S209.8-18,134.3,7.6C134.3,7.6,122.6,7.2,108.1,13.5"/>
																			<path id="Path_27072" class="st7" d="M108.1,13.5c-7.9,3.4-13,17.2-16.5,25.9c-9.9,24.8-9.4,56.6-10,83.9
																				c-0.3,12.7-0.3,25.5,0.5,38.2c0.5,8.2,0.9,18.6,4.3,25.9c1.1,2.4,2.6,4.8,5.1,4.6c29.3-3.4,83.8-10.7,83.8-10.7
																				S209.8-18,134.3,7.6C134.3,7.6,122.6,7.2,108.1,13.5z"/>
																		</g>
																	</g>
																</g>
															</g>
														</g>
													</g>
													<g id="Group_15179">
														<g>
															<g>
																<g>
																	<g>
																		<defs>
																			<path id="SVGID_00000097482983535277098890000006436803577315352215_" d="M37.6,253.3v29H237v-29
																				c0-55.1-44.6-99.7-99.7-99.7C82.3,153.6,37.6,198.2,37.6,253.3L37.6,253.3"/>
																		</defs>
																		<clipPath id="SVGID_00000111181106305817691900000018260683415449663668_">
																			<use xlink:href="#SVGID_00000097482983535277098890000006436803577315352215_"  style="overflow:visible;"/>
																		</clipPath>
																		<g id="Group_15178" style="clip-path:url(#SVGID_00000111181106305817691900000018260683415449663668_);">
																		</g>
																	</g>
																</g>
															</g>
														</g>
													</g>
													<g id="Group_15181">
														<g>
															<g>
																<g>
																	<g>
																		<defs>
																			<rect id="SVGID_00000051358101977974130420000010585059116283615679_" y="0" width="280.9" height="478.7"/>
																		</defs>
																		<clipPath id="SVGID_00000156548556433020386060000014099090150948182167_">
																			<use xlink:href="#SVGID_00000051358101977974130420000010585059116283615679_"  style="overflow:visible;"/>
																		</clipPath>
																		<g id="Group_15180" style="clip-path:url(#SVGID_00000156548556433020386060000014099090150948182167_);">
																			
																				<linearGradient id="Path_27074_00000138534651710986252650000008981249316254174597_" gradientUnits="userSpaceOnUse" x1="139.1478" y1="150.9828" x2="137.0672" y2="282.0621">
																				<stop  offset="0" style="stop-color:#0F2851"/>
																				<stop  offset="1" style="stop-color:#2E5491"/>
																			</linearGradient>
																			
																				<path id="Path_27074" style="fill:url(#Path_27074_00000138534651710986252650000008981249316254174597_);stroke:#0F2851;stroke-width:2;stroke-linecap:round;stroke-linejoin:round;" d="
																				M237,282.3H37.6v-29c0-55.1,44.6-99.7,99.7-99.7l0,0c55.1,0,99.7,44.6,99.7,99.7L237,282.3z"/>
																			<path id="Path_27075" class="st3" d="M162.7,90.8V155c-7.5,7.6-16.7,41.5-26.5,41.5s-20.3-33.9-27.8-41.5
																				l1.3-14.3l3.2-36.6l1.2-13.4h48.6L162.7,90.8L162.7,90.8z"/>
																			<path id="Path_27076" class="st7" d="M162.7,90.8V155c-7.5,7.6-16.7,41.5-26.5,41.5s-20.3-33.9-27.8-41.5
																				l1.3-14.3l3.2-36.6l1.2-13.4h48.6L162.7,90.8L162.7,90.8z"/>
																			<path id="Path_27077" class="st12" d="M162.7,113.6c-2.4,16.7-35.4,24.2-53.1,27.1l3.2-36.6L162.7,113.6z"/>
																			<path id="Path_27078" class="st3" d="M135.8,133.8L135.8,133.8c-17.5,0-31.6-14.1-31.6-31.6V27.7h63.2v74.5
																				C167.4,119.6,153.3,133.8,135.8,133.8L135.8,133.8"/>
																			<path id="Path_27079" class="st7" d="M135.8,133.8L135.8,133.8c-17.5,0-31.6-14.1-31.6-31.6V27.7h63.2v74.5
																				C167.4,119.6,153.3,133.8,135.8,133.8z"/>
																			<path id="Path_27080" class="st6" d="M111.7,7.4c-14.5,9-16.9,17.5-14.5,25.2c2.7,8.7,14.8,12,31.8,10.5
																				c10.3-0.9,17.3-0.4,22.1,0.7c8,1.8,15.9-3.1,17.8-11c2.9-12.1-0.2-26.9-29.2-31.6C139.8,1.2,124.6-0.6,111.7,7.4
																				"/>
																			<path id="Path_27081" class="st7" d="M111.7,7.4c-14.5,9-16.9,17.5-14.5,25.2c2.7,8.7,14.8,12,31.8,10.5
																				c10.3-0.9,17.3-0.4,22.1,0.7c8,1.8,15.9-3.1,17.8-11c2.9-12.1-0.2-26.9-29.2-31.6C139.8,1.2,124.6-0.6,111.7,7.4
																				z"/>
																			<path id="Path_27082" class="st3" d="M112.8,63.9c2.1,2.2,5,3.4,8,3.1c2.7-0.3,5.2-1.5,7.2-3.2
																				C128,63.8,122.1,56.6,112.8,63.9"/>
																			<path id="Path_27083" class="st7" d="M128,63.8c0,0-4.7-3.1-15.2-1.7"/>
																			<path id="Path_27084" class="st12" d="M122.1,63.3c0.3,1-0.3,2-1.2,2.3c-1,0.3-2-0.3-2.3-1.2
																				c-0.3-1,0.3-2,1.2-2.3C120.8,61.8,121.8,62.4,122.1,63.3L122.1,63.3"/>
																			<path id="Path_27085" class="st3" d="M158.3,63.9c-2.1,2.2-5,3.4-8,3.1c-2.7-0.3-5.2-1.5-7.2-3.2
																				C143.1,63.8,149,56.7,158.3,63.9"/>
																			<path id="Path_27086" class="st7" d="M143.1,63.8c0,0,4.7-3.1,15.2-1.7"/>
																			<path id="Path_27087" class="st12" d="M148.9,63.4c-0.3,1,0.3,2,1.2,2.3c1,0.3,2-0.3,2.3-1.2
																				c0.3-1-0.3-2-1.2-2.3C150.2,61.9,149.2,62.4,148.9,63.4L148.9,63.4"/>
																			<line id="Line_184" class="st13" x1="138" y1="66.2" x2="138" y2="76.7"/>
																			<line id="Line_185" class="st7" x1="138" y1="66.2" x2="138" y2="76.7"/>
																			<path id="Path_27088" class="st7" d="M130.6,84.6c0,0,10,3.9,14.9-3.8"/>
																			<path id="Path_27089" class="st3" d="M128,54.5l-3.6-0.5c-3.9-0.6-7.9-1.8-11.7-0.8"/>
																			<path id="Path_27090" class="st7" d="M128,54.5l-3.6-0.5c-3.9-0.6-7.9-1.8-11.7-0.8"/>
																			<path id="Path_27091" class="st3" d="M158.3,54.5l-3.6-0.5c-3.9-0.6-7.9-0.4-11.7,0.5"/>
																			<path id="Path_27092" class="st7" d="M158.3,54.5l-3.6-0.5c-3.9-0.6-7.9-0.4-11.7,0.5"/>
																			<rect id="Rectangle_8389" x="31.1" y="409.1" class="st12" width="73.3" height="4"/>
																			<rect id="Rectangle_8390" x="31.1" y="427.2" class="st12" width="182" height="4"/>
																		</g>
																	</g>
																</g>
															</g>
														</g>
													</g>
													<g class="st14">
														<path class="st1" d="M35.7,303.8v13.7H42v3.9H31.7v-17.5h4V303.8z"/>
														<path class="st1" d="M55.7,316.6h-8.9c0.4,1.2,1.4,1.8,3,1.8c1,0,1.8-0.3,2.4-1l3,1.7c-1.2,1.7-3,2.6-5.5,2.6
															c-2.1,0-3.8-0.6-5.1-1.9s-1.9-2.8-1.9-4.7c0-1.9,0.6-3.4,1.9-4.7c1.3-1.3,2.9-1.9,4.8-1.9c1.8,0,3.3,0.6,4.5,1.9
															c1.2,1.2,1.8,2.8,1.8,4.7C55.8,315.6,55.8,316.1,55.7,316.6z M46.7,313.8h5.4c-0.4-1.3-1.3-2-2.7-2
															S47.1,312.5,46.7,313.8z"/>
														<path class="st1" d="M61.4,307.1c-0.4,0.4-1,0.7-1.6,0.7s-1.2-0.2-1.6-0.7c-0.4-0.5-0.7-1-0.7-1.6s0.2-1.1,0.7-1.6
															s1-0.7,1.6-0.7s1.1,0.2,1.6,0.7c0.5,0.4,0.7,1,0.7,1.6C62.1,306.1,61.8,306.6,61.4,307.1z M61.7,321.3h-3.8v-12.5h3.8
															V321.3z"/>
														<path class="st1" d="M68.2,321.3h-3.8V303h3.8V321.3z"/>
														<path class="st1" d="M80,310v-1.2h3.8v12.5H80v-1.2c-0.9,1-2.1,1.5-3.7,1.5c-1.7,0-3.1-0.6-4.2-1.9
															c-1.2-1.3-1.8-2.8-1.8-4.7c0-1.9,0.6-3.4,1.8-4.7c1.2-1.3,2.6-1.9,4.2-1.9C77.9,308.5,79.2,309,80,310z M74.1,315.1
															c0,0.9,0.3,1.7,0.8,2.2c0.6,0.5,1.3,0.8,2.2,0.8s1.6-0.3,2.2-0.8c0.6-0.6,0.8-1.3,0.8-2.2c0-0.9-0.3-1.7-0.8-2.2
															c-0.6-0.5-1.3-0.8-2.2-0.8s-1.6,0.3-2.2,0.8S74.1,314.2,74.1,315.1z"/>
														<path class="st1" d="M99,321.7c-1.8,0-3.2-0.4-4.4-1.1c-1.2-0.8-2.1-1.8-2.6-3.2l3.5-2c0.7,1.6,1.9,2.4,3.7,2.4
															c1.6,0,2.4-0.5,2.4-1.4c0-0.5-0.3-0.9-0.8-1.2c-0.5-0.3-1.5-0.7-2.9-1c-1.4-0.4-2.6-0.9-3.6-1.7
															c-1.1-0.9-1.6-2.1-1.6-3.7s0.6-2.9,1.7-3.9c1.2-1,2.6-1.5,4.2-1.5c1.4,0,2.7,0.3,3.8,1c1.1,0.7,2,1.7,2.6,2.9l-3.4,2
															c-0.6-1.4-1.6-2-3-2c-0.6,0-1,0.1-1.4,0.4c-0.3,0.2-0.5,0.6-0.5,1s0.2,0.8,0.6,1.1c0.4,0.3,1.3,0.7,2.6,1.1l1.6,0.5
															c0.4,0.1,0.9,0.4,1.5,0.7c0.6,0.3,1.1,0.6,1.4,1c0.8,0.9,1.2,2,1.2,3.3c0,1.7-0.6,3-1.8,4
															C102.5,321.2,101,321.7,99,321.7z"/>
														<path class="st1" d="M115.5,315.7v-6.8h3.8v12.5h-3.8v-1.2c-0.8,1-1.9,1.5-3.6,1.5c-1.3,0-2.5-0.5-3.4-1.4
															s-1.3-2.2-1.3-3.8v-7.7h3.8v7.1c0,0.7,0.2,1.3,0.6,1.7c0.4,0.4,0.9,0.6,1.6,0.6s1.3-0.2,1.7-0.7
															C115.3,317.1,115.5,316.5,115.5,315.7z"/>
														<path class="st1" d="M125.7,308.8v2.2c0.2-0.8,0.7-1.4,1.4-1.8c0.7-0.4,1.5-0.7,2.4-0.7v4.3c-0.9-0.2-1.8,0-2.6,0.5
															c-0.8,0.5-1.2,1.2-1.2,2.4v5.7H122v-12.5h3.7V308.8z"/>
														<path class="st1" d="M139.9,310v-1.2h3.8v12.5h-3.8v-1.2c-0.9,1-2.1,1.5-3.7,1.5c-1.7,0-3.1-0.6-4.2-1.9
															c-1.2-1.3-1.8-2.8-1.8-4.7c0-1.9,0.6-3.4,1.8-4.7c1.2-1.3,2.6-1.9,4.2-1.9C137.8,308.5,139.1,309,139.9,310z
															 M134,315.1c0,0.9,0.3,1.7,0.8,2.2c0.6,0.5,1.3,0.8,2.2,0.8s1.6-0.3,2.2-0.8c0.5-0.6,0.8-1.3,0.8-2.2
															c0-0.9-0.3-1.7-0.8-2.2c-0.6-0.5-1.3-0.8-2.2-0.8s-1.6,0.3-2.2,0.8C134.3,313.4,134,314.2,134,315.1z"/>
														<path class="st1" d="M153.8,308.5c1.4,0,2.5,0.5,3.3,1.4c0.9,0.9,1.4,2.2,1.4,3.8v7.7h-3.8v-7.1
															c0-0.7-0.2-1.3-0.6-1.7c-0.4-0.4-0.9-0.6-1.6-0.6c-0.7,0-1.3,0.2-1.7,0.7c-0.4,0.4-0.6,1.1-0.6,1.9v6.8h-3.8v-12.5
															h3.8v1.2C150.9,309,152.1,308.5,153.8,308.5z"/>
													</g>
													<g class="st14">
														<path class="st1" d="M37.1,376.5h-3.3l-3.5-12.6h3l2.2,8.8l2.4-8.8h2.3l2.4,8.8l2.2-8.8h3l-3.5,12.6H41l-2.1-7.4
															L37.1,376.5z"/>
														<path class="st1" d="M56.8,373h-6.4c0.3,0.8,1,1.3,2.2,1.3c0.7,0,1.3-0.2,1.7-0.7l2.2,1.2c-0.9,1.2-2.2,1.9-3.9,1.9
															c-1.5,0-2.7-0.5-3.6-1.3c-0.9-0.9-1.4-2-1.4-3.4c0-1.3,0.4-2.5,1.3-3.4c0.9-0.9,2.1-1.4,3.5-1.4
															c1.3,0,2.4,0.5,3.3,1.4c0.9,0.9,1.3,2,1.3,3.4C57,372.3,56.9,372.7,56.8,373z M50.4,371h3.9c-0.3-0.9-0.9-1.4-1.9-1.4
															C51.3,369.6,50.7,370.1,50.4,371z"/>
														<path class="st1" d="M63.9,367.2c1.2,0,2.2,0.5,3,1.4s1.3,2,1.3,3.4c0,1.3-0.4,2.5-1.3,3.4c-0.8,0.9-1.9,1.4-3,1.4
															c-1.2,0-2.1-0.4-2.7-1.1v0.8h-2.7v-12.6h2.7v4.4C61.8,367.6,62.7,367.2,63.9,367.2z M61.8,373.6
															c0.4,0.4,0.9,0.6,1.5,0.6s1.1-0.2,1.5-0.6s0.6-0.9,0.6-1.6s-0.2-1.2-0.6-1.6s-0.9-0.6-1.5-0.6s-1.1,0.2-1.5,0.6
															s-0.6,0.9-0.6,1.6S61.4,373.2,61.8,373.6z"/>
														<path class="st1" d="M74.3,363.9h5c1.7,0,3.2,0.6,4.4,1.8c1.2,1.2,1.8,2.7,1.8,4.5s-0.6,3.3-1.8,4.5
															c-1.2,1.2-2.6,1.8-4.4,1.8h-5V363.9z M77.2,373.7h2.2c1,0,1.8-0.3,2.4-1c0.6-0.6,0.9-1.5,0.9-2.6s-0.3-1.9-0.9-2.6
															c-0.6-0.6-1.4-1-2.4-1h-2.2V373.7z"/>
														<path class="st1" d="M95.8,373h-6.4c0.3,0.8,1,1.3,2.2,1.3c0.7,0,1.3-0.2,1.7-0.7l2.2,1.2c-0.9,1.2-2.2,1.9-3.9,1.9
															c-1.5,0-2.7-0.5-3.6-1.3c-0.9-0.9-1.4-2-1.4-3.4c0-1.3,0.4-2.5,1.3-3.4s2.1-1.4,3.5-1.4c1.3,0,2.4,0.5,3.3,1.4
															s1.3,2,1.3,3.4C95.9,372.3,95.9,372.7,95.8,373z M89.3,371h3.9c-0.3-0.9-0.9-1.4-1.9-1.4S89.6,370.1,89.3,371z"/>
														<path class="st1" d="M100.9,373.2l1.9-5.7h3l-3.3,9h-3.1l-3.3-9h3L100.9,373.2z"/>
														<path class="st1" d="M115.2,373h-6.4c0.3,0.8,1,1.3,2.2,1.3c0.7,0,1.3-0.2,1.7-0.7l2.2,1.2c-0.9,1.2-2.2,1.9-3.9,1.9
															c-1.5,0-2.7-0.5-3.6-1.3c-0.9-0.9-1.4-2-1.4-3.4c0-1.3,0.4-2.5,1.3-3.4s2.1-1.4,3.5-1.4c1.3,0,2.4,0.5,3.3,1.4
															s1.3,2,1.3,3.4C115.3,372.3,115.3,372.7,115.2,373z M108.8,371h3.9c-0.3-0.9-0.9-1.4-1.9-1.4
															C109.7,369.6,109,370.1,108.8,371z"/>
														<path class="st1" d="M119.6,376.5h-2.7v-13.1h2.7V376.5z"/>
														<path class="st1" d="M129.2,375.3c-0.9,0.9-2,1.4-3.4,1.4c-1.3,0-2.5-0.5-3.4-1.4s-1.4-2.1-1.4-3.4s0.5-2.4,1.4-3.4
															c0.9-0.9,2.1-1.4,3.4-1.4s2.5,0.5,3.4,1.4c0.9,0.9,1.4,2,1.4,3.4C130.6,373.3,130.2,374.4,129.2,375.3z M123.8,372
															c0,0.6,0.2,1.1,0.6,1.5s0.9,0.6,1.5,0.6s1.1-0.2,1.5-0.6s0.6-0.9,0.6-1.5s-0.2-1.1-0.6-1.5s-0.9-0.6-1.5-0.6
															s-1.1,0.2-1.5,0.6C124,370.8,123.8,371.3,123.8,372z"/>
														<path class="st1" d="M137.5,367.2c1.2,0,2.2,0.5,3,1.4s1.3,2,1.3,3.4c0,1.3-0.4,2.5-1.3,3.4c-0.8,0.9-1.9,1.4-3,1.4
															c-1.2,0-2.1-0.4-2.7-1.1v4.4h-2.7v-12.6h2.7v0.8C135.5,367.6,136.4,367.2,137.5,367.2z M135.5,373.6
															c0.4,0.4,0.9,0.6,1.5,0.6s1.1-0.2,1.5-0.6s0.6-0.9,0.6-1.6s-0.2-1.2-0.6-1.6c-0.4-0.4-0.9-0.6-1.5-0.6
															s-1.1,0.2-1.5,0.6s-0.6,0.9-0.6,1.6S135.1,373.2,135.5,373.6z"/>
														<path class="st1" d="M152.2,373h-6.4c0.3,0.8,1,1.3,2.2,1.3c0.7,0,1.3-0.2,1.7-0.7l2.2,1.2c-0.9,1.2-2.2,1.9-3.9,1.9
															c-1.5,0-2.7-0.5-3.6-1.3c-0.9-0.9-1.4-2-1.4-3.4c0-1.3,0.4-2.5,1.3-3.4c0.9-0.9,2.1-1.4,3.5-1.4
															c1.3,0,2.4,0.5,3.3,1.4c0.9,0.9,1.3,2,1.3,3.4C152.3,372.3,152.2,372.7,152.2,373z M145.7,371h3.9
															c-0.3-0.9-0.9-1.4-1.9-1.4S146,370.1,145.7,371z"/>
														<path class="st1" d="M156.5,367.5v1.6c0.2-0.6,0.5-1,1-1.3s1.1-0.5,1.7-0.5v3.1c-0.7-0.1-1.3,0-1.9,0.3
															c-0.6,0.3-0.8,0.9-0.8,1.7v4.1h-2.7v-9L156.5,367.5L156.5,367.5z"/>
													</g>
													<g id="Group_15183">
														<g>
															<g>
																<g>
																	<g>
																		<defs>
																			<rect id="SVGID_00000080890950019807070180000008516475622530900145_" y="0" width="280.9" height="478.7"/>
																		</defs>
																		<clipPath id="SVGID_00000021840686317855139680000016368531359196352674_">
																			<use xlink:href="#SVGID_00000080890950019807070180000008516475622530900145_"  style="overflow:visible;"/>
																		</clipPath>
																		<g id="Group_15182" style="clip-path:url(#SVGID_00000021840686317855139680000016368531359196352674_);">
																			<line id="Line_186" class="st5" x1="31.1" y1="346.2" x2="240.9" y2="346"/>
																		</g>
																	</g>
																</g>
															</g>
														</g>
													</g>
												</g>
											</g>
										</g>
									</g>
								</g>
							</g>
							<g id="Group_11551" transform="translate(100.68 682.346) rotate(-18)">
								<g id="Group_15161" transform="matrix(0.951, 0.309, -0.309, 0.951, 961.874, 325.392)">
									<rect id="Rectangle_8369" x="22.5" y="37.8" class="st1" width="404.4" height="179.7"/>
									<path id="Path_27069" class="st3" d="M1,1h409.3v198.5H1V1z"/>
									<g id="Group_15152">
										<g>
											<g>
												<g>
													<g>
														<defs>
															<rect id="SVGID_00000164479540590437548720000001204690285734279327_" x="0" y="0" width="423.9" height="207.4"/>
														</defs>
														<clipPath id="SVGID_00000052105456951583846450000015250506197166594481_">
															<use xlink:href="#SVGID_00000164479540590437548720000001204690285734279327_"  style="overflow:visible;"/>
														</clipPath>
														<g id="Group_15151" style="clip-path:url(#SVGID_00000052105456951583846450000015250506197166594481_);">
															<rect id="Rectangle_8371" x="0.9" y="1" class="st17" width="410.9" height="198.5"/>
														</g>
													</g>
												</g>
											</g>
										</g>
									</g>
									<g class="st14">
										<path class="st1" d="M122.7,46.1h-3.6l-3.8-13.7h3.3L121,42l2.6-9.6h2.5l2.6,9.6l2.4-9.6h3.3l-3.8,13.7H127l-2.2-8.1
											L122.7,46.1z"/>
										<path class="st1" d="M144.2,42.4h-6.9c0.3,0.9,1.1,1.4,2.3,1.4c0.8,0,1.4-0.2,1.9-0.7l2.3,1.4c-1,1.3-2.4,2-4.3,2
											c-1.6,0-2.9-0.5-4-1.5c-1-1-1.5-2.2-1.5-3.7c0-1.5,0.5-2.7,1.4-3.7c1-1,2.2-1.5,3.8-1.5c1.4,0,2.6,0.5,3.5,1.5
											c1,1,1.4,2.2,1.4,3.7C144.3,41.6,144.2,42,144.2,42.4z M137.2,40.2h4.2c-0.3-1-1-1.5-2.1-1.5
											C138.2,38.7,137.4,39.2,137.2,40.2z"/>
										<path class="st1" d="M151.8,36.1c1.3,0,2.4,0.5,3.3,1.5c0.9,1,1.4,2.2,1.4,3.7c0,1.5-0.5,2.7-1.4,3.7s-2,1.5-3.3,1.5
											s-2.2-0.4-2.9-1.2v0.9H146V32.4h2.9v4.8C149.6,36.5,150.5,36.1,151.8,36.1z M149.5,43c0.4,0.4,1,0.6,1.7,0.6
											s1.2-0.2,1.7-0.6c0.4-0.4,0.7-1,0.7-1.7s-0.2-1.3-0.7-1.7c-0.4-0.4-1-0.6-1.7-0.6s-1.2,0.2-1.7,0.6
											c-0.4,0.4-0.6,1-0.6,1.7S149.1,42.5,149.5,43z"/>
										<path class="st1" d="M163.1,32.4h5.5c1.9,0,3.5,0.7,4.7,2c1.3,1.3,1.9,2.9,1.9,4.9c0,1.9-0.6,3.6-1.9,4.9
											c-1.3,1.3-2.8,2-4.7,2h-5.5V32.4z M166.3,43.1h2.3c1.1,0,2-0.3,2.6-1c0.7-0.7,1-1.6,1-2.8s-0.3-2.1-1-2.8
											s-1.5-1.1-2.6-1.1h-2.3V43.1z"/>
										<path class="st1" d="M186.5,42.4h-6.9c0.3,0.9,1.1,1.4,2.3,1.4c0.8,0,1.4-0.2,1.9-0.7l2.3,1.4c-1,1.3-2.4,2-4.3,2
											c-1.6,0-2.9-0.5-4-1.5c-1-1-1.5-2.2-1.5-3.7c0-1.5,0.5-2.7,1.4-3.7c1-1,2.2-1.5,3.8-1.5c1.4,0,2.6,0.5,3.5,1.5
											c1,1,1.4,2.2,1.4,3.7C186.6,41.6,186.6,42,186.5,42.4z M179.5,40.2h4.2c-0.3-1-1-1.5-2.1-1.5
											C180.5,38.7,179.8,39.2,179.5,40.2z"/>
										<path class="st1" d="M192.1,42.5l2-6.2h3.2l-3.6,9.8h-3.3l-3.6-9.8h3.2L192.1,42.5z"/>
										<path class="st1" d="M207.6,42.4h-6.9c0.3,0.9,1.1,1.4,2.3,1.4c0.8,0,1.4-0.2,1.9-0.7l2.3,1.4c-1,1.3-2.4,2-4.3,2
											c-1.6,0-2.9-0.5-4-1.5c-1-1-1.5-2.2-1.5-3.7c0-1.5,0.5-2.7,1.4-3.7c1-1,2.2-1.5,3.8-1.5c1.4,0,2.6,0.5,3.5,1.5
											c1,1,1.4,2.2,1.4,3.7C207.7,41.6,207.7,42,207.6,42.4z M200.6,40.2h4.2c-0.3-1-1-1.5-2.1-1.5
											C201.6,38.7,200.9,39.2,200.6,40.2z"/>
										<path class="st1" d="M212.3,46.1h-2.9V31.8h2.9V46.1z"/>
										<path class="st1" d="M222.9,44.9c-1,1-2.2,1.5-3.7,1.5s-2.7-0.5-3.7-1.5s-1.5-2.2-1.5-3.7c0-1.4,0.5-2.7,1.5-3.7
											s2.2-1.5,3.7-1.5c1.4,0,2.7,0.5,3.7,1.5c1,1,1.5,2.2,1.5,3.7C224.4,42.7,223.9,43.9,222.9,44.9z M216.9,41.2
											c0,0.7,0.2,1.2,0.6,1.7c0.4,0.4,1,0.6,1.6,0.6s1.2-0.2,1.6-0.6c0.4-0.4,0.6-1,0.6-1.7s-0.2-1.2-0.6-1.7
											c-0.4-0.4-1-0.6-1.6-0.6s-1.2,0.2-1.6,0.6C217.1,40,216.9,40.6,216.9,41.2z"/>
										<path class="st1" d="M231.9,36.1c1.3,0,2.4,0.5,3.3,1.5c0.9,1,1.4,2.2,1.4,3.7c0,1.5-0.5,2.7-1.4,3.7s-2,1.5-3.3,1.5
											s-2.2-0.4-2.9-1.2V50h-3V36.3h2.9v0.9C229.6,36.5,230.6,36.1,231.9,36.1z M229.6,43c0.4,0.4,1,0.6,1.7,0.6
											s1.2-0.2,1.7-0.6c0.4-0.4,0.7-1,0.7-1.7s-0.2-1.3-0.7-1.7c-0.4-0.4-1-0.6-1.7-0.6s-1.2,0.2-1.7,0.6
											c-0.4,0.4-0.6,1-0.6,1.7S229.2,42.5,229.6,43z"/>
										<path class="st1" d="M247.8,42.4h-6.9c0.3,0.9,1.1,1.4,2.3,1.4c0.8,0,1.4-0.2,1.9-0.7l2.3,1.4c-1,1.3-2.4,2-4.3,2
											c-1.6,0-2.9-0.5-4-1.5c-1-1-1.5-2.2-1.5-3.7c0-1.5,0.5-2.7,1.4-3.7c1-1,2.2-1.5,3.8-1.5c1.4,0,2.6,0.5,3.5,1.5
											c1,1,1.4,2.2,1.4,3.7C247.9,41.6,247.9,42,247.8,42.4z M240.8,40.2h4.2c-0.3-1-1-1.5-2.1-1.5
											C241.8,38.7,241.1,39.2,240.8,40.2z"/>
										<path class="st1" d="M252.5,36.3V38c0.2-0.6,0.5-1.1,1.1-1.4c0.5-0.3,1.2-0.5,1.8-0.5v3.3c-0.7-0.1-1.4,0-2,0.4
											s-0.9,1-0.9,1.9v4.4h-2.9v-9.8C249.6,36.3,252.5,36.3,252.5,36.3z"/>
									</g>
									<g id="Group_15154">
										<g>
											<g>
												<g>
													<g>
														<defs>
															<rect id="SVGID_00000114033753095526108240000004192602065467850643_" x="0" y="0" width="473.9" height="207.4"/>
														</defs>
														<clipPath id="SVGID_00000151533624555207300940000013658139542935999634_">
															<use xlink:href="#SVGID_00000114033753095526108240000004192602065467850643_"  style="overflow:visible;"/>
														</clipPath>
														<g id="Group_15153" style="clip-path:url(#SVGID_00000151533624555207300940000013658139542935999634_);">
															<path id="Path_27057" class="st19" d="M143.3,75.2h-18c-4.7,0.1-8.7-3.6-8.8-8.4c-0.1-4.7,3.6-8.7,8.4-8.8
																c0.1,0,0.3,0,0.4,0h18c4.7,0.1,8.5,4.1,8.4,8.8C151.6,71.4,147.9,75.1,143.3,75.2"/>
															<path id="Path_27058" class="st17" d="M143.3,75.2h-18c-4.7,0.1-8.7-3.6-8.8-8.4c-0.1-4.7,3.6-8.7,8.4-8.8
																c0.1,0,0.3,0,0.4,0h18c4.7,0.1,8.5,4.1,8.4,8.8C151.6,71.4,147.9,75.1,143.3,75.2z"/>
														</g>
													</g>
												</g>
											</g>
										</g>
									</g>
									<g id="Group_15156">
										<g>
											<g>
												<g>
													<g>
														<defs>
															<path id="SVGID_00000133519384261934027260000003643000924607324307_" d="M41.7,55.4c0,13.2,10.7,23.8,23.8,23.8
																c13.2,0,23.8-10.7,23.8-23.8c0-13.2-10.7-23.8-23.8-23.8C52.4,31.6,41.7,42.3,41.7,55.4L41.7,55.4"/>
														</defs>
														<clipPath id="SVGID_00000169516703048018311900000009145251800276423302_">
															<use xlink:href="#SVGID_00000133519384261934027260000003643000924607324307_"  style="overflow:visible;"/>
														</clipPath>
														<g id="Group_15155" style="clip-path:url(#SVGID_00000169516703048018311900000009145251800276423302_);">
															
																<linearGradient id="Rectangle_8374_00000047044869252203652760000015364432812797010349_" gradientUnits="userSpaceOnUse" x1="-30544.4688" y1="145.2717" x2="-30544.4473" y2="145.2717" gradientTransform="matrix(47.6208 0 0 47.6218 1454551.25 -6862.6968)">
																<stop  offset="0" style="stop-color:#DDE2EB"/>
																<stop  offset="8.100000e-02" style="stop-color:#DDE2EB"/>
																<stop  offset="0.154" style="stop-color:#CAD2E0"/>
																<stop  offset="0.301" style="stop-color:#98ABC6"/>
																<stop  offset="0.509" style="stop-color:#4A6B9D"/>
																<stop  offset="0.539" style="stop-color:#3E6297"/>
																<stop  offset="1" style="stop-color:#3E6297"/>
															</linearGradient>
															
																<rect id="Rectangle_8374" x="41.7" y="31.6" style="fill:url(#Rectangle_8374_00000047044869252203652760000015364432812797010349_);" width="47.6" height="47.6"/>
														</g>
													</g>
												</g>
											</g>
										</g>
									</g>
									<g id="Group_15158">
										<g>
											<g>
												<g>
													<g>
														<defs>
															<rect id="SVGID_00000102517075314139151070000001817004426494715281_" x="0" y="0" width="473.9" height="207.4"/>
														</defs>
														<clipPath id="SVGID_00000157278562409629522420000013996419336177720506_">
															<use xlink:href="#SVGID_00000102517075314139151070000001817004426494715281_"  style="overflow:visible;"/>
														</clipPath>
														<g id="Group_15157" style="clip-path:url(#SVGID_00000157278562409629522420000013996419336177720506_);">
															<path id="Path_27060" class="st17" d="M65.5,79.3c-13.2,0-23.8-10.7-23.8-23.8s10.7-23.8,23.8-23.8
																s23.8,10.7,23.8,23.8l0,0C89.3,68.6,78.7,79.3,65.5,79.3L65.5,79.3"/>
														</g>
													</g>
												</g>
											</g>
										</g>
									</g>
									<g class="st14">
										<path class="st1" d="M168.9,61.1v2.1h-3.6V65h3.5v2.1h-3.5v3.5h-2.2v-9.5H168.9z"/>
										<path class="st1" d="M174.5,67.5v-3.7h2v6.8h-2V70c-0.4,0.6-1.1,0.8-1.9,0.8c-0.7,0-1.3-0.2-1.8-0.7s-0.7-1.2-0.7-2.1
											v-4.2h2v3.9c0,0.4,0.1,0.7,0.3,0.9c0.2,0.2,0.5,0.3,0.9,0.3s0.7-0.1,0.9-0.4C174.4,68.3,174.5,68,174.5,67.5z"/>
										<path class="st1" d="M180.1,70.6h-2v-9.9h2V70.6z"/>
										<path class="st1" d="M183.6,70.6h-2v-9.9h2V70.6z"/>
										<path class="st1" d="M187.9,61.1h7.1v2.1h-2.4v7.4h-2.2v-7.4H188v-2.1H187.9z"/>
										<path class="st1" d="M197.7,62.9c-0.2,0.2-0.5,0.4-0.9,0.4c-0.3,0-0.6-0.1-0.9-0.4c-0.2-0.2-0.4-0.5-0.4-0.9
											c0-0.3,0.1-0.6,0.4-0.9c0.2-0.2,0.5-0.4,0.9-0.4c0.3,0,0.6,0.1,0.9,0.4c0.2,0.2,0.4,0.5,0.4,0.9
											C198.1,62.3,198,62.6,197.7,62.9z M197.9,70.6h-2v-6.8h2V70.6z"/>
										<path class="st1" d="M207,63.6c0.8,0,1.4,0.3,1.9,0.8c0.5,0.5,0.7,1.2,0.7,2v4.2h-2v-4c0-0.4-0.1-0.6-0.3-0.8
											c-0.2-0.2-0.4-0.3-0.7-0.3s-0.6,0.1-0.8,0.3s-0.3,0.5-0.3,0.9v3.8h-2v-4c0-0.4-0.1-0.6-0.3-0.8c-0.2-0.2-0.4-0.3-0.7-0.3
											s-0.6,0.1-0.8,0.3c-0.2,0.2-0.3,0.5-0.3,0.9v3.8h-2v-6.8h2v0.6c0.4-0.5,1-0.8,1.8-0.8s1.4,0.3,1.8,0.9
											C205.5,63.9,206.1,63.6,207,63.6z"/>
										<path class="st1" d="M217.7,68h-4.8c0.2,0.6,0.8,1,1.6,1c0.6,0,1-0.2,1.3-0.5l1.6,0.9c-0.7,0.9-1.7,1.4-3,1.4
											c-1.1,0-2-0.3-2.7-1s-1-1.5-1-2.6c0-1,0.3-1.9,1-2.6c0.7-0.7,1.6-1,2.6-1s1.8,0.3,2.5,1c0.7,0.7,1,1.5,1,2.6
											C217.7,67.5,217.7,67.8,217.7,68z M212.8,66.5h2.9c-0.2-0.7-0.7-1.1-1.4-1.1C213.5,65.4,213,65.8,212.8,66.5z"/>
									</g>
									<g id="Group_15160">
										<g>
											<g>
												<g>
													<g>
														<defs>
															<rect id="SVGID_00000042704641586383420140000000725767256497950609_" x="0" y="0" width="473.9" height="207.4"/>
														</defs>
														<clipPath id="SVGID_00000109734705214996578950000002997878585206980540_">
															<use xlink:href="#SVGID_00000042704641586383420140000000725767256497950609_"  style="overflow:visible;"/>
														</clipPath>
														<g id="Group_15159" style="clip-path:url(#SVGID_00000109734705214996578950000002997878585206980540_);">
															<line id="Line_176" class="st17" x1="41.7" y1="143.9" x2="103.7" y2="143.8"/>
															<line id="Line_177" class="st17" x1="188.1" y1="155.4" x2="247.1" y2="155.4"/>
															<line id="Line_178" class="st17" x1="41.7" y1="155.4" x2="153.9" y2="155.4"/>
															<line id="Line_179" class="st17" x1="141.6" y1="167.1" x2="247.1" y2="167.1"/>
															<line id="Line_180" class="st17" x1="41.7" y1="167.1" x2="115.7" y2="167.1"/>
															<line id="Line_181" class="st17" x1="133.7" y1="143.9" x2="195.7" y2="143.8"/>
															<path id="Path_27070" class="st24" d="M260.9,155.4h42.7"/>
															<line id="Line_183" class="st17" x1="309.5" y1="167.1" x2="351.6" y2="167.1"/>
														</g>
													</g>
												</g>
											</g>
										</g>
									</g>
									<g class="st14">
										<path class="st1" d="M343.5,98.7c0,0.9-0.3,1.7-1,2.3c-0.6,0.6-1.4,0.9-2.4,0.9s-1.8-0.3-2.4-0.9s-1-1.4-1-2.3
											s0.3-1.7,1-2.3c0.6-0.6,1.4-1,2.4-1s1.7,0.3,2.4,0.9C343.2,97,343.5,97.8,343.5,98.7z M339.7,107.9l-1.3-0.8l8.7-9.7
											l1.3,0.7L339.7,107.9z M341.2,98.7c0-0.3-0.1-0.6-0.3-0.8c-0.2-0.2-0.4-0.3-0.8-0.3c-0.5,0-0.8,0.2-0.9,0.7
											c-0.2,0.4-0.1,0.8,0.2,1.2c0.3,0.3,0.7,0.4,1.1,0.2C341,99.5,341.2,99.2,341.2,98.7z M349.4,108.5
											c-0.6,0.6-1.4,0.9-2.4,0.9s-1.8-0.3-2.4-0.9s-1-1.4-1-2.3s0.3-1.7,1-2.3c0.6-0.6,1.4-1,2.4-1c0.9,0,1.7,0.3,2.4,1
											c0.6,0.6,1,1.4,1,2.3S350.1,107.9,349.4,108.5z M348.1,106.2c0-0.3-0.1-0.6-0.3-0.8c-0.2-0.2-0.4-0.3-0.8-0.3
											c-0.5,0-0.8,0.2-0.9,0.7c-0.2,0.4-0.1,0.8,0.2,1.2c0.3,0.3,0.7,0.4,1.1,0.2C347.9,106.9,348.1,106.6,348.1,106.2z"/>
										<path class="st1" d="M361.6,100.2c0,1-0.3,1.9-0.8,2.7l-4.1,6.3h-3.6l2.9-4.3c-1.3-0.1-2.4-0.6-3.3-1.5
											c-0.8-0.9-1.2-2-1.2-3.3c0-1.4,0.5-2.6,1.4-3.4c1-0.9,2.2-1.3,3.6-1.3c1.5,0,2.7,0.4,3.6,1.3S361.6,98.8,361.6,100.2z
											 M355.2,98.8c-0.4,0.3-0.6,0.8-0.6,1.4s0.2,1,0.6,1.4c0.4,0.3,0.8,0.5,1.4,0.5s1-0.2,1.4-0.5s0.6-0.8,0.6-1.4
											s-0.2-1-0.6-1.4c-0.4-0.3-0.8-0.5-1.4-0.5S355.6,98.5,355.2,98.8z"/>
										<path class="st1" d="M372.1,107.6c-1,1.3-2.3,1.9-4,1.9s-3.1-0.6-4.1-1.9s-1.4-3-1.4-5.1c0-2.1,0.5-3.8,1.4-5.1
											c1-1.3,2.3-1.9,4.1-1.9c1.7,0,3.1,0.6,4,1.9c1,1.3,1.5,3,1.5,5.1C373.6,104.6,373.1,106.3,372.1,107.6z M368.1,98.4
											c-1.6,0-2.4,1.3-2.4,4c0,2.7,0.8,4,2.4,4s2.4-1.3,2.4-4C370.5,99.8,369.7,98.4,368.1,98.4z"/>
									</g>
									<path id="Path_27063" class="st25" d="M312.5,109.2H49.4c-3,0-5.4-2.4-5.4-5.4c0-3,2.4-5.4,5.4-5.4h263.2
										c3,0,5.4,2.4,5.4,5.4C318,106.8,315.5,109.2,312.5,109.2"/>
									<path id="Path_27064" class="st17" d="M312.5,109.2H49.4c-3,0-5.4-2.4-5.4-5.4c0-3,2.4-5.4,5.4-5.4h263.2
										c3,0,5.4,2.4,5.4,5.4C318,106.8,315.5,109.2,312.5,109.2z"/>
									<g id="Group_15171" transform="translate(0.501 -0.218)">
										<g id="Group_15173">
											<path id="Path_27067" class="st26" d="M207.5,109.4H48.9c-3,0-5.4-2.4-5.4-5.4c0-3,2.4-5.4,5.4-5.4h158.7
												c3,0,5.4,2.4,5.4,5.4C212.9,107,210.5,109.4,207.5,109.4"/>
											<path id="Path_27068" class="st17" d="M207.5,109.4H48.9c-3,0-5.4-2.4-5.4-5.4c0-3,2.4-5.4,5.4-5.4h158.7
												c3,0,5.4,2.4,5.4,5.4C212.9,107,210.5,109.4,207.5,109.4z"/>
										</g>
									</g>
								</g>
								
									<linearGradient id="Path_25459_00000155865450319783415170000018007230140118432682_" gradientUnits="userSpaceOnUse" x1="-27932.9727" y1="-4403.4424" x2="-27932.2227" y2="-4403.1782" gradientTransform="matrix(612.1133 3.159131e-03 -2.984656e-03 570.1769 17098690 2511419.5)">
									<stop  offset="0" style="stop-color:#3B6CF0"/>
									<stop  offset="0" style="stop-color:#3B6BEF"/>
									<stop  offset="1" style="stop-color:#1E3678"/>
								</linearGradient>
								
									<path id="Path_25459" style="fill:url(#Path_25459_00000155865450319783415170000018007230140118432682_);stroke:#0F2851;stroke-width:2;stroke-linecap:round;stroke-linejoin:round;" d="
									M339.7,448.1c2.1-42.9,51.4-152.3,166.4-113.1c160,54.6-19.1,485.7,174.7,509C870.7,866.9,895,698.4,911.5,623.7l40.3,0
									c0.9,75.4-31.8,291.8-269.5,271.9c-255.4-21.4-69.4-462.8-192.4-513.7c-49.4-20.4-98.7,14.1-104,67.9"/>
								
									<linearGradient id="Path_25460_00000016777062171554781070000001406835851439088269_" gradientUnits="userSpaceOnUse" x1="-27695.6523" y1="-4201.0981" x2="-27695.6523" y2="-4200.0977" gradientTransform="matrix(88.0165 3.949603e-04 -4.069605e-04 66.1998 2438354.5 278457.1562)">
									<stop  offset="0" style="stop-color:#0F2851"/>
									<stop  offset="1" style="stop-color:#2E5491"/>
								</linearGradient>
								
									<path id="Path_25460" style="fill:url(#Path_25460_00000016777062171554781070000001406835851439088269_);stroke:#0F2851;stroke-width:2;stroke-linecap:round;stroke-linejoin:round;" d="
									M674,387.9c6.3-0.1,22.3,6.8,30.1,0.6c7.8-6.3,2.6-15.1,3.2-23.3c1.2-14.9-10.7-40.3-31.3-40.3c-24.3,0-26.5,18.8-34,18.8
									c-9.6,0-32.3,32.9-15.8,45.3c10.3,7.7,13.9-8.6,21.5-1.8C655.8,394.2,667.4,388,674,387.9z"/>
								<path id="Path_25461" class="st29" d="M619.7,559.3l109.7,4.4l-6.3-107.1l21.7,12.6l25.5-41.9c0,0-52.7-33.1-94.9-33.1
									c0,0-7.5,3.9-13.4,0c-27,4.8-45.3,17.3-87.2,59.6c26.1,28.2,38.1,40.5,38.1,40.5l11.6-11.2L619.7,559.3z"/>
								<path id="Path_25462" class="st30" d="M574.8,453.9l-21.3,23.4l-104.9-68.1c0,0-9.6-18.4-14.7-17.5c-5.2,0.9,0,17.1,0,17.1
									s-37.9-16.4-40.8-9.2c-2.6,6.2,26.1,13.2,26.1,13.2s-35.5-11.5-37.3-3.1c-1.7,7.9,36.2,14.1,36.2,14.1s-41.1-7.5-42.2,0.6
									c-1.2,9,35.6,6,35.6,6s-28.1,6.5-27.1,14.1c0.7,6,27.5-2.7,40.4,4.7c12.9,7.4,132.1,97.9,132.1,97.9l56.1-52.8L574.8,453.9z
									"/>
								
									<linearGradient id="Path_25463_00000106108126514595114340000002845688106825025949_" gradientUnits="userSpaceOnUse" x1="-27905.4141" y1="-4390.8682" x2="-27905.4141" y2="-4389.8682" gradientTransform="matrix(363.294 1.849467e-03 -1.909574e-03 383.8 10138490 1685867.875)">
									<stop  offset="0" style="stop-color:#0F2851"/>
									<stop  offset="1" style="stop-color:#2E5491"/>
								</linearGradient>
								
									<path id="Path_25463" style="fill:url(#Path_25463_00000106108126514595114340000002845688106825025949_);stroke:#0F2851;stroke-width:2;stroke-linecap:round;stroke-linejoin:round;" d="
									M619.7,559.3l-118.9,156L391,798.2l69.7,81.4l116.9-83.4l55-77l2.4,44.6L578.1,930l109.1,13.1l67.3-167.4l-25-211.9
									L619.7,559.3z"/>
								<line id="Line_1" class="st32" x1="676.4" y1="663.3" x2="632.7" y2="719.2"/>
								
									<linearGradient id="Path_25464_00000015320076267690024640000010827012193181343676_" gradientUnits="userSpaceOnUse" x1="-27767.8379" y1="-4302.1245" x2="-27767.8379" y2="-4301.1245" gradientTransform="matrix(119.037 6.009732e-04 -6.765706e-04 118.302 3305827.25 509772)">
									<stop  offset="0" style="stop-color:#3B6CF0"/>
									<stop  offset="1" style="stop-color:#1E3678"/>
								</linearGradient>
								
									<path id="Path_25464" style="fill:url(#Path_25464_00000015320076267690024640000010827012193181343676_);stroke:#0F2851;stroke-width:2;stroke-linecap:round;stroke-linejoin:round;" d="
									M387.7,794.2l-33.5,23.2l65.7,95.1l53.4-18.4L387.7,794.2z"/>
								<path id="Path_25465" class="st29" d="M358.5,823.5L310.9,860L386,978.8l19.6-61.8l12.2-7.5L358.5,823.5z"/>
								
									<linearGradient id="Path_25466_00000172431271020764091490000009039664879747478414_" gradientUnits="userSpaceOnUse" x1="-27788.6113" y1="-4202.1401" x2="-27788.6992" y2="-4200.874" gradientTransform="matrix(132.47 6.253514e-04 -3.630462e-04 66.485 3681801 280331.875)">
									<stop  offset="0" style="stop-color:#3B6CF0"/>
									<stop  offset="1" style="stop-color:#1E3678"/>
								</linearGradient>
								
									<path id="Path_25466" style="fill:url(#Path_25466_00000172431271020764091490000009039664879747478414_);stroke:#0F2851;stroke-width:2;stroke-linecap:round;stroke-linejoin:round;" d="
									M571.5,929.2l124.8,15l-19.9,51.5L563.8,956L571.5,929.2z"/>
								<path id="Path_25467" class="st29" d="M568.7,957.7l98.6,34.8l-10,28l47.6,51.5l-159.5-52L568.7,957.7z"/>
								
									<linearGradient id="Path_25468_00000093896534899076644620000004801926373573180344_" gradientUnits="userSpaceOnUse" x1="-27927.7129" y1="-4402.2114" x2="-27927.7129" y2="-4401.2114" gradientTransform="matrix(543.9363 2.876204e-03 -2.766567e-03 537.783 15191567 2368009.75)">
									<stop  offset="0" style="stop-color:#3B6CF0"/>
									<stop  offset="1" style="stop-color:#1E3678"/>
								</linearGradient>
								
									<path id="Path_25468" style="fill:url(#Path_25468_00000093896534899076644620000004801926373573180344_);stroke:#0F2851;stroke-width:2;stroke-linecap:round;stroke-linejoin:round;" d="
									M385.8,449.9c-8.4,68.9,63.9,145.6,227.1,201.4C828,724.9,833.3,841.5,882.6,971.7c2.6,6.8-44,17.5-45.6,13.2
									c-72.9-194.2-101-233.7-234.8-283.2c-249.5-92.3-269-211.8-262.5-253.5"/>
								<path id="Path_25469" class="st29" d="M911.5,623.7l21.2-63.5l19,63.5L911.5,623.7z"/>
								<path id="Path_25470" class="st36" d="M925.3,582.3l3.8,1.8l3.7-3.4l2.5,3.4l4.1-2l-6.6-21.9L925.3,582.3z"/>
								<circle id="Ellipse_2" class="st37" cx="210.6" cy="136.8" r="19.9"/>
								
									<ellipse id="Ellipse_3" transform="matrix(-0.9511 0.309 -0.309 -0.9511 1241.1931 326.7018)" class="st38" cx="594.7" cy="261.6" rx="8.6" ry="8.6"/>
								<circle id="Ellipse_8" class="st29" cx="947.7" cy="900.7" r="8.6"/>
								<circle id="Ellipse_9" class="st29" cx="824.9" cy="625.3" r="8.6"/>
								<path id="Path_25475" class="st32" d="M337.1,614.5c0,0,24.7,51.1,115.6,82.5c-21.6,15.2-31.2,22-31.2,22l-25.5-3l-5.9,21.7
									l-99.7,70.6"/>
								<path id="Path_25476" class="st32" d="M522.8,314.2c15.4,5.1,29.7,13.4,41.8,24.3"/>
								<path id="Path_25477" class="st32" d="M910.4,926.3c0,0,1.4,39.2,11.8,43.7c11.8,5.1,49.6-26.7,15.8,48.7
									c-5.4,12,78.1-26.9,78.1-26.9"/>
								<path id="Path_25478" class="st29" d="M662.1,379.3c2,3.2,0,14.9,0,14.9s3.5,2,6.2,1.7c1.8-0.2,3.6-0.8,5.2-1.7V379
									c0,0,19-9.1,12.1-17.9c-5.5-7-19.8,3.9-23.1,5s-8.7-2.7-10.5,1C649.7,371.5,660,376,662.1,379.3z"/>
								<circle id="Ellipse_5" class="st29" cx="893.8" cy="802.9" r="28.5"/>
								<path id="Path_25479" class="st29" d="M770.4,427.3l53.8,35.9c0,0,80.6-47.3,84.6-52.4c4-5.2,9.6-19.3,14.2-19.1
									c4.6,0.2,0,18.8,0,18.8s37.9-12.5,42.3-4.4c-7.9,2.4-27.6,8.6-27.6,8.6s33.5-10.3,37.7-4.2s-37.2,14.4-37.2,14.4
									s38.8-11.6,42.5-3.1S945,432.1,945,432.1s33.1-1.7,32.6,3.1c-0.5,4.8-57.8,4.6-149.9,83.7c-16.9-10.1-82.8-49.7-82.8-49.7
									L770.4,427.3z"/>
								<circle id="Ellipse_14" class="st39" cx="1411.6" cy="808.2" r="19.9"/>
							</g>
						</g>
						<g id="Group_11552" transform="translate(7116.197 3443.934) rotate(105)">
							
								<ellipse id="Ellipse_6" transform="matrix(0.9659 0.2588 -0.2588 0.9659 1546.3499 451.1293)" class="st40" cx="-940.3" cy="6098.7" rx="91.8" ry="91.8"/>
							
								<linearGradient id="Path_25480_00000008857806685528784820000005628908991689191592_" gradientUnits="userSpaceOnUse" x1="-20860.6719" y1="26251.4258" x2="-20856.793" y2="26253.0996" gradientTransform="matrix(40.389 4.233794e-05 -4.576001e-05 31.2583 841700.75 -814451.1875)">
								<stop  offset="0" style="stop-color:#F8F9FD"/>
								<stop  offset="1" style="stop-color:#2E5491"/>
							</linearGradient>
							
								<path id="Path_25480" style="fill:url(#Path_25480_00000008857806685528784820000005628908991689191592_);stroke:#0F2851;stroke-width:2;stroke-linecap:round;stroke-linejoin:round;" d="
								M-855.6,6135c0,0,2.4-6.5,3.4-10.1s2.7-11.3,2.7-11.3l34.2,9.9l-6.2,21.4L-855.6,6135z"/>
							
								<linearGradient id="Rectangle_76_00000059287497249783718260000006121085279833859995_" gradientUnits="userSpaceOnUse" x1="-20143.5059" y1="27105.1465" x2="-20143.5371" y2="27106.4082" gradientTransform="matrix(10.8214 -37.4353 126.2279 36.4887 -3204200.75 -1736958.5)">
								<stop  offset="0" style="stop-color:#F8F9FD"/>
								<stop  offset="0.162" style="stop-color:#D7DEEC"/>
								<stop  offset="1" style="stop-color:#2E5491"/>
							</linearGradient>
							
								<polygon id="Rectangle_76" style="fill:url(#Rectangle_76_00000059287497249783718260000006121085279833859995_);stroke:#0F2851;stroke-width:2;stroke-linecap:round;stroke-linejoin:round;" points="
								-823.7,6153 -812.9,6115.5 -686.7,6152 -697.5,6189.5 							"/>
						</g>
					</g>
				</g>
			</g>
		</g>
	</g>
</g>
</svg>
