<svg width="64" height="64" fill="none" xmlns="http://www.w3.org/2000/svg"><mask id="a" maskUnits="userSpaceOnUse" x="0" y="0" width="64" height="64"><path fill-rule="evenodd" clip-rule="evenodd" d="M0 0h63.795v63.795H0V0z" fill="#fff"/></mask><g mask="url(#a)"><path fill-rule="evenodd" clip-rule="evenodd" d="M12.075 38.25l1.032 2.17c.207.434.34.861.404 1.286a2.93 2.93 0 01-.059 1.207c-.103.38-.298.733-.587 1.058-.29.324-.68.603-1.171.836-.468.224-.913.34-1.335.349a2.729 2.729 0 01-1.175-.224 2.975 2.975 0 01-.986-.716 4.498 4.498 0 01-.745-1.12l-1.025-2.158 5.647-2.688zM8.75 42.417c.235.492.555.805.962.94.406.135.833.096 1.279-.115a2.11 2.11 0 00.57-.385 1.378 1.378 0 00.42-1.135 2.064 2.064 0 00-.217-.738l-.287-.61-3.016 1.434.289.61zm5.143 6.224a2.867 2.867 0 00-.566.957c-.11.33-.147.655-.11.982.036.325.14.64.315.946.174.307.41.588.706.846.3.258.61.449.937.572.328.125.653.181.983.169.33-.012.648-.099.957-.258.31-.156.596-.386.857-.69l2.496-2.889-1.271-1.096-2.397 2.776c-.221.254-.463.416-.727.48-.26.066-.533-.022-.812-.263-.28-.24-.406-.495-.386-.766.023-.27.147-.534.37-.794l2.399-2.776-1.259-1.085-2.492 2.89zm9.404 2.216l1.447.433 1.298 4.032 1-3.342 1.573.472-1.8 5.99-1.356-.406-1.355-4.158-1.033 3.44-1.571-.471 1.797-5.99zm10.975 7.829l1.649-.194-.297-2.487 1.775-3.99-1.833.22-.873 2.35-1.474-2.073-1.892.225 2.652 3.472.293 2.477zm6.643-8.21l1.673-.909 4.929 4.442-1.574.855-.972-.944-1.84.996.256 1.334-1.508.819-.964-6.593zm3.182 2.54l-1.705-1.687.46 2.363 1.245-.675zm6.493-2.689a3.255 3.255 0 001.196-.418c.392-.226.784-.583 1.175-1.07a3.3 3.3 0 00.506-.864c.116-.301.178-.596.182-.884a1.922 1.922 0 00-.148-.817 1.61 1.61 0 00-.496-.657c-.26-.206-.512-.337-.76-.393a1.833 1.833 0 00-.716-.02c-.229.041-.448.12-.656.233a9.263 9.263 0 00-.59.354l-.261.176c-.117.077-.227.146-.331.212a1.62 1.62 0 01-.29.144.638.638 0 01-.26.04.428.428 0 01-.233-.098.378.378 0 01-.134-.185.493.493 0 01-.015-.217.716.716 0 01.073-.224c.037-.074.078-.144.13-.207.157-.196.347-.354.578-.476a3.35 3.35 0 01.738-.283l-.306-1.329a2.123 2.123 0 00-.385.077 2.701 2.701 0 00-.505.21 3.75 3.75 0 00-.57.381 3.996 3.996 0 00-.588.6 3.274 3.274 0 00-.532.91c-.105.297-.15.585-.133.858.017.275.088.53.214.768.126.237.302.444.526.625.2.16.404.262.616.306.212.043.416.049.625.013a2.39 2.39 0 00.611-.187c.202-.092.39-.193.558-.304l.305-.202c.282-.183.516-.305.704-.368.185-.063.342-.044.469.059a.431.431 0 01.15.203.459.459 0 01.01.224.736.736 0 01-.084.234c-.043.08-.09.149-.14.211-.211.264-.46.461-.749.592-.288.13-.554.208-.8.234l.316 1.54zm.315-10.359l.587-1.552 5.848 2.212-.587 1.553-5.848-2.213zM12.213 25.573l.704-1.502-1.66-.783-.376-.83 2.94-.302.862-1.824-4.507.54-1.292-2.91-.828 1.755 1.325 2.687-2.119-1-.708 1.503 5.659 2.666zm4.729-15.879l1.613-1.01 5.195 4.127-1.516.947-1.03-.88-1.773 1.11.338 1.317-1.453.91-1.374-6.52zm3.332 2.338l-1.805-1.58.606 2.331 1.199-.75zm22.198 2.28l1.462.969 5.355-3.955-1.477-.979-3.499 2.902 1.234-4.405-1.51-.998-1.565 6.466zm12.412 3.71l2 4.032-1.283.638-1.265-2.546-.863.431 1.037 2.091-1.21.601-1.039-2.093-.954.477 1.35 2.72-1.286.638-2.088-4.209 5.601-2.78zM29.083 11.4h1.659V8.952h2.31V11.4h1.658V5.147h-1.66v2.286h-2.31V5.147h-1.658V11.4zm2.815 52.395C14.281 63.795 0 49.515 0 31.898 0 14.281 14.28 0 31.898 0c17.616 0 31.897 14.281 31.897 31.898 0 17.617-14.28 31.897-31.897 31.897zm0-61.5c-15.963 0-28.973 12.639-29.578 28.453h5.712v2.3H2.32c.605 15.815 13.615 28.45 29.578 28.45s28.972-12.635 29.577-28.45h-5.71v-2.3h5.71C60.87 14.934 47.86 2.296 31.898 2.296zm-13.52 42.893a.718.718 0 10.073 1.435.718.718 0 00-.073-1.435zm2.28 1.97a.717.717 0 11-1.434.069.717.717 0 011.433-.07zm25.66-6.935h-.005c-1.626 2.819-6.6 2.995-11.107.39a18.08 18.08 0 01-2.159-1.472 21.164 21.164 0 001.61-1.659c.557.429 1.128.816 1.696 1.142 3.159 1.824 5.637 1.75 6.974 1.2l-7.25-4.185c.22-.326.42-.652.598-.979.194-.322.378-.66.55-1.01l7.25 4.184c-.192-1.432-1.366-3.615-4.526-5.439-1.964-1.134-4.562-1.956-6.79-2.166a10.847 10.847 0 00-1.318-.053 9.549 9.549 0 00-.99.032 16.49 16.49 0 01-.663-2.243 13.64 13.64 0 011.712-.084c2.842-.049 6.495.964 9.198 2.525 2.175 1.256 3.842 2.927 4.805 4.639a14.46 14.46 0 00.348-3.147c0-5.652-3.265-10.54-8.014-12.88-.485-1.214-1.13-2.304-1.917-3.174 7.049 1.937 12.228 8.39 12.228 16.054a16.58 16.58 0 01-2.23 8.325zm-8.724-12.945a21.964 21.964 0 00-2.241-.562 15.7 15.7 0 00.141-2.041c0-3.646-1.303-5.756-2.447-6.639v8.372a15.49 15.49 0 00-1.147-.032 15.54 15.54 0 00-1.151.032v-8.372c-1.144.883-2.449 2.993-2.449 6.639 0 2.27.59 4.928 1.518 6.963.212.464.42.85.615 1.168.144.262.316.54.523.844a16.58 16.58 0 01-1.61 1.695 13.43 13.43 0 01-.93-1.44c-1.462-2.438-2.41-6.107-2.41-9.23 0-2.513.614-4.792 1.615-6.48-5.837 1.819-10.077 7.264-10.077 13.703 0 .317.01.633.031.945-.81 1.027-1.432 2.132-1.792 3.251a16.59 16.59 0 01-.534-4.196c0-9.195 7.453-16.649 16.65-16.649v.001c3.253 0 5.892 4.22 5.892 9.425 0 .841-.068 1.718-.197 2.603zm-14.9 3.126a18.47 18.47 0 012.354-1.131c.173.758.385 1.503.631 2.224-.649.267-1.269.57-1.837.897-3.157 1.823-4.33 4.008-4.524 5.438l7.25-4.184c.173.35.357.688.547 1.008.181.327.383.655.601.98l-7.248 4.185c1.334.552 3.814.627 6.971-1.199 1.966-1.133 3.974-2.971 5.272-4.795.297-.416.525-.788.705-1.116.155-.256.309-.544.468-.874.744.12 1.516.309 2.273.547-.238.545-.5 1.057-.782 1.525-1.377 2.486-4.082 5.143-6.788 6.703-2.167 1.254-4.447 1.862-6.407 1.84a14.291 14.291 0 009.718 3.8c2.955 0 5.7-.894 7.981-2.424 1.291.187 2.556.176 3.704-.072a16.593 16.593 0 01-11.685 4.79c-6.163 0-11.544-3.347-14.423-8.325h.004c-1.627-2.82.706-7.214 5.216-9.817z" fill="#000"/></g></svg>