<svg width="143" height="47" fill="none" xmlns="http://www.w3.org/2000/svg"><path fill-rule="evenodd" clip-rule="evenodd" d="M120.82 9.323l-5.383 3.107-5.382-3.107 5.382-3.107 5.383 3.107zM136.966 0v6.216l5.385-3.108L136.966 0z" fill="#010202"/><path fill-rule="evenodd" clip-rule="evenodd" d="M120.82 9.323v3.108l5.383-3.108v12.432l-5.383-3.108v9.323l21.531-12.431L120.82 3.108v6.215zm-10.765 0l5.382-3.107-5.382-3.108v6.215zm0 6.216l5.382-3.109-5.382-3.107v6.216zM96.47 46.719l11.187-6.458L96.47 33.8v12.917zM81.24 36.438v-5.274l4.569 2.638-4.57 2.636zm20.824-20.898V9.322l5.384 3.11-5.384 3.108zm-87.822 2.974h2.397v-1.881h-2.397v1.88zm-3.899 0h2.397v-1.881h-2.397v1.88zm5.332 9.446l-.355-1.116c-.081.162-.728 1.277-2.458 1.277-1.551 0-3.388-.84-3.388-3.508V19.93h2.408v4.7c0 1.195.646 1.73 1.488 1.73 1.098 0 1.772-.873 1.772-2.037V19.93h2.366v8.03h-1.833zM8.747 15.54v2.077h-3.13V27.97H3.13V17.617H0V15.54h8.747zm13.734 3.195l-.008 1.36c.568-1.172 1.442-1.448 3.075-1.448v2.343h-.302c-1.563 0-2.681.782-2.681 2.772v4.208h-2.397v-9.235h2.313zm27.692-3.195v2.077h-3.13V27.97h-2.487V17.617h-3.13V15.54h8.747zm39.349 10.775a2.977 2.977 0 110-5.953 2.977 2.977 0 010 5.953zm0-8.216a5.238 5.238 0 00-5.238 5.24 5.238 5.238 0 1010.478 0 5.24 5.24 0 00-5.24-5.24zm8.76.636l.391 1.225c.39-.798 1.51-1.402 2.557-1.402 1.083 0 2.114.64 2.539 1.652.462-.906 1.456-1.652 2.983-1.652 1.901 0 3.303 1.172 3.303 3.853v5.559h-2.398v-5.717c0-.943-.374-1.76-1.491-1.76-1.188 0-1.704.941-1.704 2.15v5.327h-2.397v-5.843c0-.817-.391-1.633-1.475-1.633-1.19 0-1.722.94-1.722 2.13v5.346H96.47v-9.235h1.813zm-20.144-3.594l.003 7.66 3.082-4.066h2.858l-3.658 4.335 3.497 4.9h-2.68l-2.202-3.215-.889.995v2.22h-2.396V16.489l2.385-1.348zm-48.35 0l.003 7.66 3.08-4.066h2.86l-3.658 4.335 3.498 4.9H32.89l-2.202-3.215-.888.995v2.22h-2.397V16.489l2.386-1.348zm39.907 3.417c2.698 0 4.315 1.794 4.315 4.582 0 .516-.053.942-.053.942h-6.535c.106 1.456 1.385 2.113 2.68 2.113.853 0 1.971-.232 2.647-.587l.816 1.74c-.994.534-2.397.8-3.515.8-3.144 0-5.15-1.936-5.15-4.76 0-2.841 1.954-4.83 4.794-4.83zm2.006 3.925c-.018-1.066-.621-1.99-1.865-1.99-1.314 0-2.201.658-2.45 1.99h4.315zm-9.269-7.333v10.316c0 .515.302.746.834.746.125 0 .391-.035.569-.07v1.828c-.48.089-1.083.178-1.634.178-1.118 0-2.166-.425-2.166-2.522v-9.137l2.397-1.339zm-8.54 3.408c2.699 0 4.314 1.794 4.314 4.582 0 .516-.053.942-.053.942h-6.535c.107 1.456 1.386 2.113 2.682 2.113.852 0 1.97-.232 2.646-.587l.816 1.74c-.995.534-2.397.8-3.516.8-3.142 0-5.149-1.936-5.149-4.76 0-2.841 1.953-4.83 4.794-4.83zm2.006 3.925c-.018-1.066-.622-1.99-1.865-1.99-1.314 0-2.202.658-2.45 1.99h4.315z" fill="#010202"/><path fill-rule="evenodd" clip-rule="evenodd" d="M126.203 9.323l-5.383 3.108v6.216l5.383 3.107V9.324zm-10.766 6.217l5.383 3.107v-6.215l-5.383 3.108z" fill="#010202"/></svg>