<svg width="80" height="37" fill="none" xmlns="http://www.w3.org/2000/svg"><path fill-rule="evenodd" clip-rule="evenodd" d="M26.516 15.77c0 .007 1.197.446 4.335.446 2.16 0 3.351-.85 3.351-2.182 0-1.125-1.075-2.354-3.338-2.354-2.856 0-4.348 2.18-4.348 4.09zm11.957 8.925c-.93 1.315-4.6 3.211-7.944 3.211-5.942 0-9.376-4.2-9.376-9.878 0-7.447 4.862-10.785 9.512-10.785 4.89 0 8.24 2.682 8.24 6.772 0 2.874-1.585 5.652-8.154 5.652-3.058 0-4.393-.388-4.393-.386 0 3.57 2.86 4.232 4.518 4.232 1.19 0 2.115-.281 2.894-.605.747-.31 1.422-.662 2.335-.662 1.736 0 2.374 2.44 2.368 2.449zm15.243-1.459c.069.233.165.605.165 1.326 0 2.031-1.82 3.372-4.319 3.372-5.064 0-7.709-3.636-7.709-9.186l.043-13.575c0-1.725.46-2.961 1.38-3.71.92-.747 2.258-1.122 4.012-1.122a20.055 20.055 0 00-.15 2.093c-.016.533-.023 1.23-.023 2.092l.043 2.717h5.78c0 1.294-.359 2.33-1.078 3.107-.718.776-1.74 1.164-3.062 1.164h-1.64l-.043 6.126c0 1.207.15 2.359.366 3.179.216.82 1.376 2.726 3.64 2.726 1.337 0 2.148-.193 2.595-.309z" fill="#000"/><mask id="a" maskUnits="userSpaceOnUse" x="56" y="0" width="10" height="28"><path fill-rule="evenodd" clip-rule="evenodd" d="M56.605.197h8.625v27.714h-8.625V.197z" fill="#fff"/></mask><g mask="url(#a)"><path fill-rule="evenodd" clip-rule="evenodd" d="M65.101 23.613c-.424.116-.72.193-1.298.193-1.12 0-1.838-.814-1.838-2.151v-9.796c0-.862.007-1.559.022-2.091.014-.533.036-.957.064-1.274.03-.344.058-.617.087-.82-1.783 0-3.135.375-4.055 1.123-.92.748-1.38 1.984-1.38 3.71l-.044 9.977c0 3.57 2.288 5.537 5.176 5.422 1.818-.072 3.395-.94 3.395-2.856 0-.8-.129-1.437-.129-1.437zM61.87 4.487c-.62 1.032-1.475 1.548-2.565 1.548-.472 0-.914-.103-1.328-.31a2.754 2.754 0 01-1.017-1.04 2.834 2.834 0 01-.354-1.392c0-.56.133-1.062.399-1.504.265-.5.633-.891 1.106-1.172.47-.28.957-.42 1.459-.42.442 0 .87.117 1.283.353.471.237.825.575 1.061 1.018.236.442.354.914.354 1.415a3.02 3.02 0 01-.398 1.504z" fill="#000"/></g><mask id="b" maskUnits="userSpaceOnUse" x="67" y="7" width="13" height="21"><path fill-rule="evenodd" clip-rule="evenodd" d="M67.433 7.718h11.739v19.993H67.433V7.718z" fill="#fff"/></mask><g mask="url(#b)"><path fill-rule="evenodd" clip-rule="evenodd" d="M67.433 17.079c0-1.926.281-3.5.841-4.723.561-1.223 1.287-2.179 2.179-2.87a7.463 7.463 0 012.998-1.401 15.266 15.266 0 013.3-.367h2.114c.217.47.307 1.268.307 1.692 0 1.827-1.48 2.47-3.164 2.611-2.996.252-3.27 2.431-3.27 4.129v7.184c0 .863.008 1.56.023 2.092.014.532.035.956.065 1.273.028.345.057.84.085 1.012-1.754 0-3.073-.039-4.209-.9-1.041-.791-1.269-2.399-1.269-4.124v-5.608z" fill="#000"/></g><mask id="c" maskUnits="userSpaceOnUse" x="0" y="7" width="19" height="30"><path fill-rule="evenodd" clip-rule="evenodd" d="M0 7.243h18.356v28.794H0V7.243z" fill="#fff"/></mask><g mask="url(#c)"><path fill-rule="evenodd" clip-rule="evenodd" d="M5.256 16.831c0-3.395 1.795-5.157 4.052-5.157 2.22 0 3.845 1.338 3.845 4.896 0 3.657-1.763 4.896-3.845 4.896-2.296 0-4.052-1.451-4.052-4.635zm13.099.906c0-6.23-2.758-10.494-9.022-10.494C3.211 7.243 0 11.533 0 16.754c0 4.836 2.954 9.348 8.304 9.348 2.778 0 4.39-1.18 4.785-1.527v2.404c0 2.779-1.08 4.63-3.884 4.63-1.35 0-2.348-.366-3.274-.81-.822-.394-1.434-.849-2.257-.849-2.083 0-2.66 2.572-2.65 2.585 1.558 2.02 5.145 3.502 8.155 3.502 5.916 0 9.177-3.45 9.177-10.292l-.001-8.008z" fill="#000"/></g></svg>