<svg width="136" height="36" fill="none" xmlns="http://www.w3.org/2000/svg"><path fill-rule="evenodd" clip-rule="evenodd" d="M20.847 2.02c-.291 0-.586.004-.877.014-6.59.211-10.758 3.103-13.095 5.49a16.948 16.948 0 00-3.63 5.617c-.801 2.015-1.225 4.186-1.225 6.278 0 1.926.368 3.8 1.094 5.573a14.473 14.473 0 002.993 4.586c2.642 2.735 6.159 4.242 9.902 4.242 3.976 0 6.437-1.756 7.802-3.229 1.656-1.786 2.645-4.194 2.645-6.443 0-1.66-.683-3.539-1.782-4.904-.736-.915-2.382-2.454-5.127-2.492h-.088c-1.446 0-2.427.498-3.046.995a4.852 4.852 0 011.8-.378 5.136 5.136 0 013.803 1.698c.75.86 1.207 1.962 1.313 3.15l.024-.025.001.56c-.003 2.904-2.034 6.109-6.484 6.283a7.32 7.32 0 01-.341.008c-2.121 0-4.043-.802-5.413-2.259-1.313-1.397-2.037-3.305-2.037-5.374 0-2.506.936-5.026 2.567-6.913a9.693 9.693 0 013.299-2.485c1.375-.634 2.907-.955 4.554-.955 4.367 0 7.267 2.093 8.93 3.849a13.66 13.66 0 013.03 5.039h11.525c-.446-4.575-2.638-8.858-6.192-12.084C32.643 4.094 26.98 2.02 20.847 2.02zm-4.838 33.819C7.182 35.839 0 28.473 0 19.419c0-4.924 1.98-9.775 5.432-13.308C8.027 3.46 12.645.248 19.905.015c.316-.01.63-.015.942-.015C34.44 0 45.09 9.546 45.09 21.733v.232H29.865l-.03-.197c-.419-2.723-3.603-8.69-10.336-8.69-5.456 0-8.4 4.293-8.4 8.332 0 3.252 2.284 5.613 5.43 5.613.086 0 .174-.002.262-.006 1.688-.066 4.543-1.04 4.543-4.271 0-1.718-1.077-3.451-3.484-3.451-1.384 0-2.734 1.095-3.073 2.492l-.044.178h-1.951l-.015-.216c-.125-1.803.545-3.677 1.792-5.013 1.224-1.313 2.892-2.006 4.823-2.006 6.204 0 9.094 5.62 9.094 9.418 0 2.745-1.19 5.667-3.184 7.817-1.64 1.767-4.58 3.874-9.283 3.874zm40.165-15.957h8.75L60.582 9.207l-4.408 10.675zm11.749 7.323l-2.135-5.261H55.341l-2.105 5.261H50.38L59.56 6.38h2.311l8.913 20.825h-2.86zm6.753-11.444h4.021c.572 0 1.146-.046 1.706-.137a4.745 4.745 0 001.55-.523 2.95 2.95 0 001.125-1.125c.28-.484.423-1.115.423-1.874 0-.76-.142-1.39-.423-1.876a2.95 2.95 0 00-1.124-1.123 4.75 4.75 0 00-1.55-.523 10.537 10.537 0 00-1.707-.139h-4.02v7.32zm8.997 11.444l-5.413-9.382h-3.584v9.382h-2.422V6.38h7.256c1.325 0 2.428.182 3.277.539.847.356 1.522.812 2.007 1.354a4.608 4.608 0 011.017 1.833c.194.69.293 1.361.293 1.997 0 .65-.117 1.284-.347 1.886a5.363 5.363 0 01-.994 1.644 5.722 5.722 0 01-1.59 1.242 5.543 5.543 0 01-2.093.62l-.371.037 6.02 9.674h-3.056zm10.264.001V8.622H87.08V6.38h16.133v2.242h-6.855v18.584h-2.422zm11.377 0V6.38h13.277v2.242h-10.855v6.81h10.104v2.24h-10.104v7.291h11.397v2.242h-13.819zm18.031-11.445h4.022c.571 0 1.145-.046 1.706-.137a4.736 4.736 0 001.55-.523c.466-.26.845-.64 1.125-1.125.28-.484.422-1.115.422-1.874 0-.76-.142-1.39-.422-1.876a2.956 2.956 0 00-1.125-1.123 4.73 4.73 0 00-1.55-.523 10.533 10.533 0 00-1.706-.139h-4.022v7.32zm8.997 11.444l-5.412-9.382h-3.585v9.382h-2.421V6.38h7.255c1.325 0 2.428.182 3.278.539.848.357 1.523.812 2.007 1.354.483.54.826 1.157 1.017 1.833.194.688.292 1.36.292 1.997a5.28 5.28 0 01-.346 1.886 5.37 5.37 0 01-.994 1.644 5.718 5.718 0 01-1.59 1.242 5.549 5.549 0 01-2.093.62l-.371.037 6.02 9.674h-3.057z" fill="#000"/></svg>