<svg width="112" height="28" fill="none" xmlns="http://www.w3.org/2000/svg"><mask id="a" maskUnits="userSpaceOnUse" x="-1" y="0" width="24" height="23"><path fill-rule="evenodd" clip-rule="evenodd" d="M0 .865h22.757v21.403H0V.865z" fill="#fff"/></mask><g mask="url(#a)"><path fill-rule="evenodd" clip-rule="evenodd" d="M4.53 22.268L0 8.698c6.996-.596 12.95-3.24 17.665-7.833l5.092 13.716c-4.19 4.319-10.88 7.493-18.228 7.687z" fill="#010202"/></g><mask id="b" maskUnits="userSpaceOnUse" x="27" y="0" width="85" height="28"><path fill-rule="evenodd" clip-rule="evenodd" d="M27.138.637h84.701v26.981H27.138V.637z" fill="#fff"/></mask><g mask="url(#b)"><path fill-rule="evenodd" clip-rule="evenodd" d="M87.019 21.967l7.658-17.11 3.858-.003-7.66 17.113H87.02zM100.422.637l-1.356 3.03-3.856-.002L96.566.636h3.856zm-20.528 21.33L89.441.637h3.856l-9.547 21.33h-3.856zm-7.376-9.234c1.302.114 3.6-.59 5.09-1.386 2.178-1.272 2.234-3.845.621-3.817-1.949.028-3.879 1.934-5.711 5.203zm-1.385 3.168c-1.413 3.76 2.432 4.326 6.871.028l1.33 2.912c-5.289 5.428-12.16 4.383-12.188-.877.085-5.598 5.459-12.81 10.66-13.544 3.902-.537 6.023 1.838 4.808 5.938-1.189 3.082-5.147 5.232-11.48 5.543zm-6.22-5.094c1.405-4.05-2.66-4.149-6.215.96-2.627 3.966-2.958 6.76-1.19 7.057 1.595.21 3.535-1.18 5.818-4.165l1.521 3.158c-2.905 3.521-5.798 5.03-8.678 4.528-4.182-.761-4.773-5.394-1.323-11.174 3.083-4.61 6.263-6.88 9.67-6.876 3.224.066 4.618 2.184 3.885 5.983l-3.488.53zM53.252 24.851c1.228.009 2.433-.514 3.616-1.57l1.095 2.772c-1.299 1.113-2.564 1.632-3.795 1.559l-.916-2.761zm-13.034-2.802l7.739-17.245h3.787l-1.368 3.183c-.07.143.157.124.315-.194 1.675-3.252 3.738-3.999 6.108-2.77L54.733 8.68c-2.07-.456-3.902.467-5.493 2.769-1.612 2.452-3.042 5.924-5.04 10.601h-3.982zM31.412 7.694c2.464-2.364 5.439-3.54 7.832-3.263 3.698.515 4.547 4.785 1.68 10.422-2.346 4.931-5.537 7.574-9.077 7.613-3.342-.04-5.125-2.52-4.627-5.418.692-3.62 4.382-5.482 11.51-5.774.57-2.193.434-3.382-.792-3.422-1.835.005-3.668 1.08-5.735 3.145l-.791-3.303zm6.25 6.408c-5.617.118-8.088 2.827-6.448 4.784 1.503 1.346 5.122-1.324 6.447-4.784zm56.421 7.865L103.63.637h3.856l-4.072 9.1c-.129.306.154.261.154.261l7.228-5.706 1.043 3.182-6.773 5.121 1.506 9.372h-3.495l-1.204-8.138c-.029-.19-.178-.25-.26-.07l-3.674 8.208h-3.856z" fill="#010202"/></g></svg>