<svg width="112" height="44" fill="none" xmlns="http://www.w3.org/2000/svg"><mask id="a" maskUnits="userSpaceOnUse" x="34" y="0" width="45" height="44"><path fill-rule="evenodd" clip-rule="evenodd" d="M34.683.346h43.33v43.33h-43.33V.346z" fill="#fff"/></mask><g mask="url(#a)"><path fill-rule="evenodd" clip-rule="evenodd" d="M56.349.346c-11.966 0-21.666 9.7-21.666 21.665 0 11.966 9.7 21.665 21.666 21.665 11.965 0 21.665-9.7 21.665-21.665S68.314.346 56.349.346zm0 1.382c11.183 0 20.282 9.1 20.282 20.283 0 11.184-9.099 20.283-20.282 20.283-11.185 0-20.283-9.1-20.283-20.283 0-11.184 9.098-20.283 20.282-20.283z" fill="#020306"/></g><path fill-rule="evenodd" clip-rule="evenodd" d="M10.38 23.811s-.22 2.126.739 4c0 0 .709 1.006-.028 1.652l-1.468.853s-.197.147-.851.097c0 0-.905-.224-1.207.176 0 0-.263.768-.59 1.401 0 0-.669 1.535-1.774 2.027 0 0-.881.202-1.149.966 0 0-.285.537-.853.56 0 0-.425.135-.705 1.08 0 0-.154.612-.146 1.08 0 0 .724-.094 1.196.076 0 0 1.16.39 1.678-.565 0 0 1.003-1.716 1.745-1.458 0 0 1.492.5 2.546-.59 0 0 1.449-1.582 3.494-1.256 0 0 2.304.466 3.022-.065 0 0 1.453-.76 1.998-.948 0 0 .667-.196.736-.926 0 0 .406-1.028.7-1.37l-1.098-.012s-.996 1.673-2.686 2.178c0 0-.925.37-2.781.07 0 0-2.665-.604-5.006 1.924 0 0-.32.462-.776.277 0 0 1.294-2.206 4.134-2.728 0 0 .929-.198 1.704-.072 0 0 3.825.112 5.598-3.653 0 0-.191-3.21.654-3.97 0 0 .328-.101.263.52 0 0-.582 3.363.511 4.014 0 0 .634.499 1.808.314 0 0 1.78-.425 3.226-.177 0 0 2.225.528 4.136.284 0 0-.496-.76-.399-1.669 0 0 .274-.65.588-.232 0 0 .736 2.43 2.745 3.159 0 0 1.795.654 1.766 2.93 0 0-.274.313-2.655 1.158 0 0-.89.282-1.176-.383 0 0-1.148-2.457-2.147-2.382l-1.876.153s-.64.164-.169.677c0 0 .643.855.905 1.364 0 0 .077.436.68.343 0 0 .838-.415 1.31 1.143 0 0 .432.779 1.163 1.027 0 0 .684.23 1.326-.131 0 0 3.099-1.138 3.638-1.541 0 0 .67-.375 1.201-.195 0 0 .93.222 1.313-.512l.96-1.486s.212-.365.182-.825c0 0 .087-.456-.297-.918 0 0-.363-.384-.42-.661l-.685-1.61s-.278-.429-.582-.605l-.914.067s.63 1.607 1.09 2.261c0 0 .623.953.591 1.559 0 0-.041.424-.208.602 0 0-.211.337-.296.501 0 0-.278.602-.502.735 0 0-.389.23-.484.24 0 0-.169.046-.043-.257 0 0 .512-1.078.478-1.654 0 0 .1-.6-.326-.951 0 0-.995-1.572-1.138-2.042 0 0-.313-.628-.479-.736 0 0-.348-.458.213-.671 0 0 1.4-.316 1.65-.488 0 0 .672-.204 1.109-1.604 0 0 .602-1.634.593-2.643 0 0 1.18 2.274-.701 4.585 0 0 1.488.44 2.103 0 0 0 1.854-.27 2.212-.37 0 0 .465-.112.2.22 0 0-.56.794-.607 1.315 0 0-.035.415-.376.658 0 0-1.053.738-1.146 1.445 0 0-.226.68.24.517 0 0 .631-.293.854.002 0 0 .065.03-.178.304 0 0-.633.55-.68 1.29 0 0 .117.852.34 1.127 0 0 .285.395.735.27 0 0 .12-.097.336-.032 0 0 .223-.001.804-.202 0 0 .882-.242 1.178-.346 0 0 1.122-.402 1.676-.374 0 0 .36-.04.82.052 0 0 1.404.16 2.34-.875 0 0 .712-.564.954-.016 0 0 1.708 2.293 4.474 1.688 0 0-2.201-.904-2.771-2.137 0 0-.077-1.046-1.23-2.5 0 0-.352-.482-.012-.607 0 0 .197-.147.626.284 0 0 1.095 1.05 1.49 2.012 0 0 1.36 2.055 3.32 1.365 0 0-1.539-.594-2.261-1.7 0 0-.447-1.499-1.95-2.614 0 0-.06-1.683-.76-2.63 0 0-.355-1.58-.452-1.95 0 0-.379-1.39-.375-1.773 0 0 .124-1.814-1.046-3.226 0 0-.783-1.51-2.004-2.563 0 0-.927-1.146-1.616-1.848 0 0-.907-1.063-2.886-2.451 0 0-.896-.652-1.552-1.352 0 0-3.49-2.512-6.01-.497 0 0-1.742 1.184-3.196 1.551 0 0-2.989.348-4.262 2.422 0 0-.11.383-1.314.53 0 0-2.645-.32-4.594 2.282 0 0-.905.883-2.696 1.098 0 0-2.921-.299-4.824 1.942 0 0-4.8 4.186-7.662 1.471 0 0-1.483-1.404.213-3.946 0 0 1.075-1.298 2.91-2.654 0 0 1.487-1.048.805-2.678 0 0-.36-1.575-2.59-1.617 0 0-2.8-.54-3.931-1.954 0 0-1.264 4.452 3.696 4.377 0 0 1.293.191.841 1.217 0 0-.634.878-1.484 1.197 0 0-1.497.655-2.172 2.834 0 0-1.511 3.813 2.176 5.286 1.421.487 3.06.343 4.52.09zM3.282 32.8c.2-.167.494-.261.754-.2.587.126.231.633.231.633-.238.445-1.013 1.195-1.013 1.195-.69.517-1.236-.099-1.236-.099-.512-.503.153-.747.153-.747.388-.157 1.111-.782 1.111-.782zm-1.478 2.384s.215.158.1.47c0 0-.548 1.5-.522 2.002 0 0-1.212.217-1.38-.381 0 0-.033-.231.165-.566 0 0 .206-.312.26-.883 0 0-.02-1.437.912-1.057.185.104.33.254.465.415zm42.705-3.041c-.213-.006-.268-.084-.241-.319.143-.653.666-.935.666-.935.982-.586 1.101.001 1.101.001.18 1.048-.648 1.18-.648 1.18-.166.057-.878.073-.878.073zm2.962-4.68c.019-.493.06-1.586-.44-1.976-.185-.147-.914-.946-.914-.946-.11-.193-.196-.205-.196-.205-.15-.015-.345.335-.345.335-.52 1.002-1.037.88-1.037.88-.005-.183.117-.387.117-.387.142-.267.746-1.465.746-1.465.075-.174.145-.405.145-.405.502-.777.974-.186.974-.186.21.412 1.335 1.753 1.335 1.753.25.297.273.615.273.615.261 1.837-.658 1.986-.658 1.986zm-10.354-11.09c-.154-.275-.091-.557.064-.826.348-.533.673.048.673.048 1.2 1.675.314 4.182.314 4.182-.124-2.307-1.051-3.404-1.051-3.404zm64.493 7.438s.22 2.126-.738 4c0 0-.71 1.006.027 1.652l1.468.853s.198.147.852.097c0 0 .905-.224 1.206.176 0 0 .263.768.591 1.401 0 0 .669 1.535 1.774 2.027 0 0 .882.202 1.148.966 0 0 .285.537.853.56 0 0 .425.135.706 1.08 0 0 .153.612.146 1.08 0 0-.724-.094-1.196.076 0 0-1.16.39-1.678-.565 0 0-1.003-1.716-1.745-1.458 0 0-1.492.5-2.547-.59 0 0-1.449-1.582-3.494-1.256 0 0-2.303.466-3.022-.065 0 0-1.452-.76-1.997-.948 0 0-.668-.196-.736-.926 0 0-.406-1.028-.7-1.37l1.098-.012s.995 1.673 2.686 2.178c0 0 .925.37 2.78.07 0 0 2.665-.604 5.006 1.924 0 0 .32.462.775.277 0 0-1.291-2.206-4.132-2.728 0 0-.929-.198-1.704-.072 0 0-3.826.112-5.599-3.653 0 0 .193-3.21-.654-3.97 0 0-.327-.101-.263.52 0 0 .582 3.363-.51 4.014 0 0-.636.499-1.809.314 0 0-1.78-.425-3.225-.177 0 0-2.225.528-4.137.284 0 0 .496-.76.399-1.669 0 0-.274-.65-.588-.232 0 0-.736 2.43-2.745 3.159 0 0-1.795.654-1.766 2.93 0 0 .275.313 2.656 1.158 0 0 .89.282 1.176-.383 0 0 1.147-2.457 2.147-2.382l1.877.153s.639.164.168.677c0 0-.642.855-.906 1.364 0 0-.075.436-.68.343 0 0-.837-.415-1.31 1.143 0 0-.431.779-1.162 1.027 0 0-.685.23-1.327-.131 0 0-3.099-1.138-3.637-1.541 0 0-.67-.375-1.202-.195 0 0-.928.222-1.311-.512l-.961-1.486s-.212-.365-.182-.825c0 0-.087-.456.297-.918 0 0 .363-.384.42-.661l.684-1.61s.278-.429.583-.605l.914.067s-.63 1.607-1.09 2.261c0 0-.624.953-.592 1.559 0 0 .042.424.21.602 0 0 .21.337.296.501 0 0 .276.602.5.735.001 0 .39.23.484.24 0 0 .17.046.044-.257 0 0-.512-1.078-.479-1.654 0 0-.099-.6.326-.951 0 0 .996-1.572 1.14-2.042 0 0 .31-.628.478-.736 0 0 .348-.458-.214-.671 0 0-1.4-.316-1.65-.488 0 0-.672-.204-1.109-1.604 0 0-.601-1.634-.592-2.643 0 0-1.18 2.274.702 4.585 0 0-1.488.44-2.104 0 0 0-1.853-.27-2.212-.37 0 0-.465-.112-.2.22 0 0 .559.794.606 1.315 0 0 .036.415.376.658 0 0 1.054.738 1.146 1.445 0 0 .227.68-.24.517 0 0-.63-.293-.853.002 0 0-.065.03.178.304 0 0 .633.55.68 1.29 0 0-.117.852-.34 1.127 0 0-.285.395-.735.27 0 0-.12-.097-.336-.032 0 0-.223-.001-.804-.202 0 0-.883-.242-1.177-.346 0 0-1.123-.402-1.677-.374 0 0-.36-.04-.82.052 0 0-1.405.16-2.34-.875 0 0-.713-.564-.954-.016 0 0-1.708 2.293-4.474 1.688 0 0 2.201-.904 2.772-2.137 0 0 .075-1.046 1.228-2.5 0 0 .352-.482.012-.607 0 0-.197-.147-.626.284 0 0-1.094 1.05-1.489 2.012 0 0-1.36 2.055-3.32 1.365 0 0 1.538-.594 2.26-1.7 0 0 .447-1.499 1.95-2.614 0 0 .06-1.683.76-2.63 0 0 .357-1.58.453-1.95 0 0 .378-1.39.375-1.773 0 0-.125-1.814 1.045-3.226 0 0 .783-1.51 2.005-2.563 0 0 .927-1.146 1.616-1.848 0 0 .907-1.063 2.887-2.451 0 0 .895-.652 1.55-1.352 0 0 3.49-2.512 6.012-.497 0 0 1.74 1.184 3.195 1.551 0 0 2.989.348 4.262 2.422 0 0 .109.383 1.314.53 0 0 2.645-.32 4.593 2.282 0 0 .905.883 2.697 1.098 0 0 2.92-.299 4.823 1.942 0 0 4.8 4.186 7.663 1.471 0 0 1.482-1.404-.213-3.946 0 0-1.074-1.298-2.909-2.654 0 0-1.489-1.048-.806-2.678 0 0 .36-1.575 2.591-1.617 0 0 2.798-.54 3.93-1.954 0 0 1.264 4.452-3.697 4.377 0 0-1.292.191-.84 1.217 0 0 .633.878 1.483 1.197 0 0 1.498.655 2.173 2.834 0 0 1.511 3.813-2.176 5.286-1.422.487-3.061.343-4.521.09zm7.098 8.988c-.2-.167-.493-.261-.753-.2-.588.126-.231.633-.231.633.238.445 1.013 1.195 1.013 1.195.69.517 1.236-.099 1.236-.099.511-.503-.155-.747-.155-.747-.385-.157-1.11-.782-1.11-.782zm1.478 2.384s-.213.158-.099.47c0 0 .547 1.5.522 2.002 0 0 1.212.217 1.379-.381 0 0 .033-.231-.165-.566 0 0-.205-.312-.258-.883 0 0 .018-1.437-.913-1.057a1.719 1.719 0 00-.466.415zm-42.705-3.041c.215-.006.269-.084.242-.319-.144-.653-.666-.935-.666-.935-.982-.586-1.102.001-1.102.001-.18 1.048.649 1.18.649 1.18.166.057.877.073.877.073zm-2.962-4.68c-.018-.493-.06-1.586.44-1.976.186-.147.915-.946.915-.946.11-.193.196-.205.196-.205.15-.015.345.335.345.335.52 1.002 1.038.88 1.038.88.003-.183-.12-.387-.12-.387-.141-.267-.744-1.465-.744-1.465-.076-.174-.146-.405-.146-.405-.502-.777-.974-.186-.974-.186-.21.412-1.334 1.753-1.334 1.753-.25.297-.274.615-.274.615-.26 1.837.658 1.986.658 1.986zm10.355-11.09c.154-.275.09-.557-.064-.826-.348-.533-.672.048-.672.048-1.202 1.675-.315 4.182-.315 4.182.123-2.307 1.051-3.404 1.051-3.404z" fill="#020306"/></svg>