<svg width="90" height="38" fill="none" xmlns="http://www.w3.org/2000/svg"><path fill-rule="evenodd" clip-rule="evenodd" d="M16.978 14.999l1.546-4.671a9.12 9.12 0 01-.82.27l-1.35 4.075c.245.11.454.22.624.326zM8.773 19.37a4.139 4.139 0 01-.115-.995v-4.327h4.423c1.264 0 2.233.224 2.946.494l-.111-.069c-.669-.407-1.851-.893-3.693-.893H8.19v3.937c0 .819.193 1.43.584 1.853zM8.652 4.332h6.072c1.728 0 3.129.206 4.206.606-1.071-.711-2.77-1.074-5.064-1.074H8.184v6.051h.468V4.332zm10.876.864c.22.11.43.229.614.362l1.453-4.288h-.738l-1.33 3.926zm1.692 15.121l-1.162 3.47-.09.267H1.588a5.601 5.601 0 01-.557.468h19.515l1.532-4.574c-.288.137-.573.258-.857.37zm39.92-5.318l1.547-4.671a9.18 9.18 0 01-.82.27l-1.35 4.075c.245.11.452.22.622.326zm-6.652 2.818a4.132 4.132 0 01-.116-.994v-2.775h2.873c1.264 0 2.232.224 2.946.494l-.113-.069c-.667-.407-1.85-.894-3.693-.894h-2.48v2.385c0 .818.19 1.43.583 1.853zm-.12-11.933h4.52c1.73 0 3.13.207 4.21.607-1.075-.712-2.773-1.076-5.07-1.076H53.9v4.5h.47V5.884zm11.015 12.881l-1.252 3.736H47.303a5.41 5.41 0 01-.556.468h17.962l1.534-4.573a13.05 13.05 0 01-.86.37zM63.69 6.747c.22.111.43.23.614.362l1.455-4.288h-.738l-1.33 3.926zM25.284 22.5c-.18.176-.368.33-.557.469h9.794a5.36 5.36 0 01-.557-.468h-8.68zM36.009 5.416h-4.13v4.499h.468V5.884h4.52c1.73 0 3.131.207 4.21.606-1.073-.71-2.773-1.074-5.068-1.074zm2.049 9.057c-.666-.407-1.849-.893-3.692-.893h-2.48v2.384c0 2.609.421 3.97.994 4.813-.322-.9-.526-2.146-.526-3.954v-2.775h2.87c1.263 0 2.23.222 2.945.492l-.111-.067zM43 2.822l-1.33 3.925c.221.111.43.23.615.361l1.453-4.286h-.737zm-4.503 11.851c.246.109.453.22.625.326l1.546-4.671a9.457 9.457 0 01-.821.27l-1.35 4.075zM75.31 5.52c-.182.655-.079 1.181.4 1.674-.036-.28-.01-.585.082-.92.397-1.42 2.213-2.303 4.74-2.303 1.614 0 3.126.304 4.468.875-1.522-.88-3.332-1.343-5.328-1.343-2.344 0-4.015.772-4.361 2.017zm12.985-3.971l-.308.9c-.397 1.166-.816 2.39-1.064 3.132l-.097.286c.201.143.398.29.586.449.388-1.16 1.19-3.495 1.684-4.948-.25.074-.521.132-.801.18zm.163 13.537c.277.82.347 1.748.115 2.806-.882 4.002-4.914 6.393-10.786 6.398-3.206 0-5.498-.39-8.118-1.194-.017.046-.104.255-.118.294 1.965.825 5.254 1.404 8.105 1.404 6.692 0 10.553-2.316 11.395-6.128.31-1.42.028-2.595-.593-3.58z" fill="#000"/><mask id="a" maskUnits="userSpaceOnUse" x="0" y="0" width="22" height="24"><path fill-rule="evenodd" clip-rule="evenodd" d="M0 .239h21.048v23.253H0V.238z" fill="#fff"/></mask><g mask="url(#a)"><path fill-rule="evenodd" clip-rule="evenodd" d="M10.989 20.317c-.688 0-1.48-.043-2.147-.431-.807-.472-1.214-1.327-1.214-2.541v-4.328h4.423c1.957 0 3.216.535 3.896.951l1.547-4.67c-2.075.796-4.806.837-4.84.837H7.622V3.302h6.072c2.471 0 4.288.412 5.418 1.225L20.564.239H.016c1.265.8 2.151 1.797 2.151 6.041v11.064c0 4.12-1.057 5.325-2.167 6.147h19.516c.27-.809 1.07-3.191 1.532-4.574-2.553 1.218-4.993 1.404-7.264 1.404l-2.795-.004z" fill="#000"/></g><path fill-rule="evenodd" clip-rule="evenodd" d="M56.703 18.765c-.687 0-1.48-.042-2.147-.43-.805-.472-1.214-1.328-1.214-2.542v-2.776h2.871c1.959 0 3.216.536 3.896.952l1.548-4.672c-2.074.797-4.805.837-4.84.837h-3.48v-5.28h4.52c2.47 0 4.288.412 5.417 1.224l1.454-4.287H45.731c1.265.801 2.152 1.798 2.152 6.041v7.961c0 4.118-1.057 5.323-2.167 6.145h17.962l1.534-4.573c-2.554 1.217-4.993 1.403-7.266 1.403l-1.243-.003zM25.863 7.832v7.961c0 4.118-1.057 5.323-2.167 6.145h9.794c-1.11-.822-2.166-2.027-2.166-6.145v-2.776h2.87c1.958 0 3.216.536 3.897.952l1.547-4.671c-2.074.796-4.806.836-4.84.836h-3.482v-5.28h4.521c2.47 0 4.288.412 5.418 1.224l1.453-4.287H23.711c1.266.8 2.152 1.798 2.152 6.04zm55.969 2.401c-.566-.222-3.307-1.19-3.813-1.39-2.43-.96-3.74-1.855-3.258-3.6.398-1.42 2.214-2.302 4.74-2.302 2.68 0 5.088.825 6.88 2.344.389-1.16 1.192-3.494 1.686-4.947-.676.2-1.473.313-2.333.313-.099 0-.201-.001-.307-.005C84.588.62 83.756.5 82.878.37 81.66.2 80.282 0 78.51 0c-.16 0-.316 0-.472.003-2.985.056-8.069.875-8.638 5.66-.328 2.766 1.236 4.769 4.936 6.306a83.7 83.7 0 004.658 1.77c2.813.967 3.958 2.372 3.404 4.176-.502 1.65-2.253 2.494-5.191 2.514h-.084c-3.904 0-6.308-1.617-7.475-2.586-.386 1.131-1.151 3.393-1.435 4.221 3.352 1.223 5.858 1.661 9.403 1.661 5.674-.003 9.563-2.278 10.404-6.09.9-4.107-3.1-6.192-6.188-7.403zM2.908 6.558c0-3.32-.393-4.694-1.19-5.704h18.224l.094-.278H1.064c1.009.946 1.518 2.389 1.518 5.707v11.066c0 3.441-.752 4.93-1.617 5.812h.438c.83-.936 1.505-2.426 1.505-5.652V6.558zm5.978 13.878c.76.446 1.632.507 2.382.507l2.346-.01c2.09 0 4.382-.132 6.687-1.023l.11-.328c-2.35.94-4.562 1.077-6.616 1.077l-2.8.008c-.753 0-1.623-.06-2.383-.505a2.73 2.73 0 01-.398-.292c.188.22.41.412.672.566z" fill="#000"/><path fill-rule="evenodd" clip-rule="evenodd" d="M7.964 10.748h4.482c.338 0 2.386-.032 4.34-.57l.109-.313c-2.01.579-4.206.608-4.232.608H7.639l.325.275zM48.627 8.11c0-3.32-.392-4.692-1.191-5.703H64.1l.094-.278H46.783c1.009.946 1.518 2.388 1.518 5.705v7.963c0 3.441-.752 4.931-1.617 5.81h.438c.832-.934 1.505-2.425 1.505-5.65V8.11zm5.978 10.773c.76.448 1.632.508 2.383.508l.785-.01c2.091 0 4.381-.134 6.688-1.023l.11-.329c-2.35.94-4.563 1.077-6.617 1.077l-1.24.008c-.753 0-1.624-.06-2.383-.505a2.755 2.755 0 01-.399-.29c.188.219.41.411.673.564z" fill="#000"/><path fill-rule="evenodd" clip-rule="evenodd" d="M53.683 10.744h2.922c.339 0 2.387-.03 4.342-.57l.106-.313c-2.008.58-4.204.609-4.231.609h-3.465l.326.274zM26.607 8.11c0-3.32-.392-4.692-1.19-5.703h16.666l.092-.278H24.763c1.01.946 1.518 2.388 1.518 5.705v7.963c0 3.441-.751 4.931-1.617 5.81h.438c.832-.934 1.505-2.425 1.505-5.65V8.11z" fill="#000"/><path fill-rule="evenodd" clip-rule="evenodd" d="M31.663 10.744h2.923c.337 0 2.386-.03 4.34-.57l.109-.313c-2.009.58-4.205.609-4.231.609h-3.465l.324.274zm38.448-4.842c.47-4.39 4.92-5.194 7.842-5.296.158-.006.31-.002.46-.003 1.846-.01 3.48.236 4.678.408.9.132 1.766.242 2.628.234a14.453 14.453 0 001.656-.104c.032-.108.07-.208.108-.309a9.425 9.425 0 01-1.742.154l-.322-.003c-.867-.025-1.705-.147-2.608-.275-1.198-.176-2.56-.374-4.294-.374-.157 0-.308 0-.465.004-2.846.062-7.698.831-8.24 5.363-.215 1.846.47 3.331 2.136 4.561-1.433-1.2-2.025-2.64-1.837-4.36zm7.179 15.135c3.08.008 5.232-1.023 5.787-2.839.3-.986.255-2.205-1.198-3.295 1.162 1.046 1.204 2.189.922 3.1-.556 1.816-2.436 2.747-5.59 2.765h-.081c-2.737 0-5.238-.79-7.267-2.294-.238.706-.544 1.604-.8 2.37l-.354 1.035c.105.039.2.068.306.103l1.027-3.026c2.266 1.515 4.583 2.072 7.248 2.08z" fill="#000"/><path fill-rule="evenodd" clip-rule="evenodd" d="M78.12 9.554c.499.188 3.064 1.102 3.819 1.387 2.145.82 4.62 2.07 5.553 4.131-.835-2.292-3.581-3.654-5.828-4.536-.28-.108-1.114-.406-1.93-.703a111.94 111.94 0 01-1.89-.684c-1.17-.464-2.31-.977-2.974-1.721.576.977 1.879 1.607 3.25 2.126zm.918 4.727a83.486 83.486 0 01-4.678-1.778 14.474 14.474 0 01-2.207-1.127c.795.702 1.86 1.328 3.214 1.89a84.316 84.316 0 004.658 1.77 9.94 9.94 0 011.646.723c-.481-.5-1.287-1.015-2.633-1.478zm-32.18 14.056c-3.084 0-4.083 1.857-4.242 2.486-.247.976.024 1.523.507 1.863.925.652 2.611.548 2.912 1.223.04.09.06.19.047.309-.002.013.002.024 0 .038-.178 1.023-2.936 1.833-3.806-.863l-.255 1.534s-.61.524-1.357.524c-.003 0-.005-.003-.009-.003a.927.927 0 01-.384-.077c-.667-.3-.367-1.387-.367-1.387l2.245-8.868.112-.445-3.819 1.05s.403.383.208 1.153l-1.975 7.803c-.06.242-.639.718-1.128.766-.027.003-.055.01-.08.01-.136 0-.248-.02-.342-.053-.656-.241-.346-1.251-.167-1.971l1.192-4.703.005-.017.109-.428-1.258.345-2.018.555-.597.164s.247.14.312.527a1.44 1.44 0 01-.037.606l-.91 3.595c-.239.943.087 1.561.578 1.94.465.36 1.078.506 1.498.506 2.282 0 2.947-1.157 2.947-1.157s.026.228.208.48c.028.037.05.074.086.112.063.068.138.137.232.201.294.202.75.364 1.464.364 1.95 0 3.094-.75 3.094-.75s.848.75 2.335.75c1.236 0 3.742-.29 4.347-2.683.205-.812.076-1.357-.224-1.746-.57-.737-1.772-.892-2.6-1.115a2.78 2.78 0 01-.512-.183c-.255-.13-.397-.3-.328-.574.21-.836 3.036-.86 3.816.242.062.087.111.18.145.282.038.112.063.232.06.363l.056-.3.015-.083.284-1.528s-.009-.047-.048-.116c-.13-.234-.613-.741-2.351-.741zm6.324 2.868s.298-1.708 1.725-1.708c.468 0 .721.183.84.429.057.12.083.255.084.394 0 .111-.012.223-.04.329l-.333 1.317-2.448-.003.172-.758zm4.74 1.723c.402-1.593.6-2.81.06-3.568-.422-.59-1.29-.905-2.858-.905-2.743 0-4.584 1.28-5.27 3.986-.43 1.711-.117 2.746.618 3.35.681.559 1.721.748 2.88.748 2.416 0 3.872-1.87 4.202-2.376a47.99 47.99 0 01-.538-.348c-.335.446-1.426 1.639-3.124 1.639-.174 0-.32-.025-.454-.06a1.23 1.23 0 01-.341-.138c-.95-.592-.334-2.328-.334-2.328h5.159zm10.444 2.882a.986.986 0 01-.42-.038c-.381-.141-.429-.571-.378-.978 0-.015.005-.032.005-.047l.02-.12.001-.007v-.003c.053-.28.133-.52.155-.608.203-.807.572-2.262.855-3.38a1.606 1.606 0 00-.261-1.341c-.35-.47-1.044-.843-2.306-.843-.932 0-1.77.363-2.272.638-.303.166-.483.301-.483.301l.159-.627.112-.444-3.846 1.047s.49.223.27 1.094c-.057.231-.293 1.16-.54 2.137l-.293 1.15-.371 1.47c-.137.538-.79 1.163-.79 1.163h.623l3.413-.001s-.361-.6-.216-1.174l.92-3.638s.083-.449.276-.795c.21-.376.744-.963 1.675-.963.321 0 .594.146.734.419.056.11.088.241.093.394.003.126-.006.263-.045.418-.098.382-.845 3.338-.845 3.338-.225.892.02 1.47.5 1.805.795.553 2.232.433 3.271-.054l.007-.003c.314-.149.596-.325.806-.533a2.86 2.86 0 01-.829.223z" fill="#000"/><path fill-rule="evenodd" clip-rule="evenodd" d="M34.095 27.756c.2.127.452.205.743.205.858 0 1.71-.63 1.909-1.411a1.105 1.105 0 00-.126-.875c-.203-.322-.581-.531-1.07-.531-.853 0-1.71.633-1.906 1.406-.13.514.062.958.45 1.206zm-4.95.572c-.444 1.753-1.28 2.703-2.89 2.874a8.947 8.947 0 01-1.028.024l1.25-4.834c.233-.929 1.843-1.352 2.523-.353.064.093.119.2.163.32.173.453.203 1.093-.018 1.969zm2.785-2.756c-.404-.523-1.133-.928-2.42-.928l-6.586.012s.172.097.325.323l.002.001c.179.268.331.714.151 1.426L20.811 36.48c-.217.853-.936 1.514-.936 1.514l.838-.291 3.77-1.313s-.542-.16-.243-1.345l.877-3.394c.169.036.736.103.868.116 5.288.523 6.177-3.27 6.347-3.943.055-.216.264-1.392-.402-2.251z" fill="#000"/></svg>