<svg width="127" height="35" fill="none" xmlns="http://www.w3.org/2000/svg"><mask id="a" maskUnits="userSpaceOnUse" x="0" y="0" width="35" height="35"><path fill-rule="evenodd" clip-rule="evenodd" d="M0 .56h34.153v34.152H0V.56z" fill="#fff"/></mask><g mask="url(#a)"><path fill-rule="evenodd" clip-rule="evenodd" d="M13.319 16.988l-.205.408c-.785-.17-2.22-.716-3.723-1.4l-.205.377.615.34c2.185 1.129 2.903 1.366 4.167 1.366 2.526 0 4.44-1.433 5.327-3.96 1.572-.308 3.587-.445 5.977-.445 2.05 0 3.826.104 6.114.376l-.581.717a41.133 41.133 0 00-4.407-.271c-1.671 0-2.73.03-3.277.066l-.274.615c1.402-.067 1.914-.067 3.007-.067 1.844 0 3.312.067 4.508.17l-.582.751c-2.15-.068-3.142-.104-4.747-.104-.888 0-1.537.036-2.596.069l-.272.615c.92-.067 2.186-.1 3.518-.1 1.263 0 2.766.033 3.654.067l-.58.75c-.615-.033-1.811-.033-2.733-.033-1.468 0-3.313.068-4.27.204l-.272.548c1.742-.171 2.835-.24 4.747-.24.753 0 1.23 0 2.083.069l-.649.786c-1.161-.07-1.537-.07-1.98-.07-3.246 0-5.363.48-7.48 1.672 1.946 1.949 5.19 3.28 8.094 3.28.239 0 .376 0 .99-.033l-1.4 1.399c-7.719-2.014-9.084-2.562-16.155-6.76-2.8-1.606-5.089-2.7-6.932-3.245l.239-.855c.444.068 1.4.342 2.289.648l.408-.92 7.583 3.21zm-11.543.681c0 8.436 6.83 15.267 15.265 15.267 8.47 0 15.335-6.795 15.335-15.23 0-8.608-6.762-15.37-15.436-15.37-8.3 0-15.164 6.933-15.164 15.333zm32.377 0c0 9.46-7.617 17.043-17.112 17.043C7.65 34.712 0 27.096 0 17.705 0 8.108 7.65.56 17.35.56c9.222 0 16.803 7.753 16.803 17.11z" fill="#000"/></g><mask id="b" maskUnits="userSpaceOnUse" x="42" y="11" width="85" height="15"><path fill-rule="evenodd" clip-rule="evenodd" d="M42.55 11.197h83.982v13.997H42.551V11.198z" fill="#fff"/></mask><g mask="url(#b)"><path fill-rule="evenodd" clip-rule="evenodd" d="M123.245 20.1c-.401.123-.541.165-.862.266-.341.06-.723.143-1.143.265-1.023.265-1.524.672-1.524 1.303 0 .632.481 1 1.283 1 1.525 0 2.246-.694 2.246-2.141V20.1zm-6.015-1.975c.02-2.2 1.724-3.525 4.592-3.525 2.986 0 4.45 1.264 4.45 3.83v4.992c0 .835 0 .835.26 1.365h-2.926l-.161-.814c-1.162.957-1.845 1.221-3.127 1.221-2.145 0-3.689-1.283-3.689-3.055 0-1.468.942-2.507 2.786-3.037.281-.081 1.203-.284 2.788-.57.661-.143.941-.366.941-.835 0-.55-.561-.916-1.382-.916-1.023 0-1.645.509-1.645 1.344h-2.887zm-4.39-.061c-.081-.917-.461-1.264-1.423-1.264-.783 0-1.263.306-1.263.816 0 .468.461.753 1.503.917l1.082.203c2.286.387 3.349 1.365 3.349 3.056 0 2.078-1.744 3.402-4.471 3.402-3.228 0-4.993-1.304-4.993-3.667h3.068v.123c0 .814.661 1.324 1.725 1.324.921 0 1.483-.346 1.483-.896 0-.572-.521-.897-1.745-1.121l-1.001-.164c-2.286-.408-3.268-1.242-3.268-2.791 0-2.118 1.744-3.402 4.61-3.402 2.005 0 3.248.55 3.89 1.733.281.489.32.65.401 1.73h-2.947zm-13.272-3.057l.1 1.101c.742-.957 1.625-1.385 2.787-1.385 1.343 0 2.425.59 2.987 1.61.401.753.481 1.18.481 2.79v5.664h-3.147v-5.542c0-1.446-.401-2.037-1.384-2.037-1.023 0-1.544.692-1.544 2.037v5.542h-3.147v-9.78h2.867zm-6.997 5.094c-.4.122-.52.164-.842.265-.38.102-.722.183-1.143.265-1.022.265-1.524.672-1.524 1.303 0 .632.481 1 1.264 1 1.524 0 2.245-.694 2.245-2.141V20.1zm-5.995-1.976c0-2.221 1.704-3.525 4.552-3.525 2.987 0 4.47 1.264 4.47 3.83v4.992c0 .855 0 .855.261 1.365h-2.906l-.182-.814c-1.002.895-1.864 1.221-3.127 1.221-2.125 0-3.668-1.283-3.668-3.055 0-1.468.941-2.507 2.786-3.037.28-.081 1.203-.264 2.786-.57.682-.143.942-.366.942-.835 0-.55-.56-.916-1.402-.916-1.023 0-1.625.488-1.645 1.344h-2.867zm-7.417-6.928v4.912c.581-.958 1.402-1.386 2.627-1.386 1.322 0 2.385.57 2.967 1.61.42.753.48 1.16.48 2.79v5.664h-3.127v-5.542c0-1.406-.42-2.037-1.384-2.037-1.042 0-1.563.692-1.563 2.037v5.542H76.01v-13.59h3.148zm-5.774.755v3.055h1.784v2.16h-1.784v3.871c.02 1.426.1 1.507 1.304 1.507h.621v2.242h-2.366c-1.865 0-2.706-.876-2.706-2.872v-4.748h-1.324v-2.16h1.324v-3.055h3.147zm-4.83 1.405h-.523c-1.163 0-1.463.286-1.463 1.366v.284h1.864v2.16h-1.864v7.62H63.42v-7.62h-1.363v-2.16h1.363v-.284c0-2.567.942-3.526 3.409-3.526h1.724v2.16zm-10.006 11.43l-.1-.957c-.781.835-1.664 1.221-2.766 1.221-1.364 0-2.466-.57-3.027-1.548-.421-.733-.482-1.1-.482-2.71v-5.786h3.148v5.664c0 1.426.4 2.018 1.383 2.018 1.042 0 1.564-.694 1.564-2.018v-5.664h3.147v9.78H58.55zm-12.65-13.59v10.9h5.654v2.69H42.55v-13.59h3.348z" fill="#000"/></g></svg>