<svg width="58" height="58" fill="none" xmlns="http://www.w3.org/2000/svg"><path clip-rule="evenodd" d="M1 56.774h55.904V1H1v55.774z" stroke="#000" stroke-width="1.697"/><path fill-rule="evenodd" clip-rule="evenodd" d="M53.722 1l-21.23 27.657h3.279L56.904 1.27V1h-3.182zM34.2 39.45l3.443-4.636s.324 1.484.56 2.426c.219.866.598 2.21.598 2.21H34.2zm-10.538 4.915L25.1 42.57l.946 2.742-1.568 1.927-.816-2.874zM1 51.032l2.503.01 6.733-8.8h7.848l1.235 3.327-4.438 5.462h3.924l1.593-2.45s.396.64.558 1.089c.199.552.284 1.478.284 1.478h4.25l1.614-2.18s.355.636.53 1.197c.176.561.282.983.282.983h5.162l-.702-1.194-1.935-5.483 1.688-2.244h7.478l2.567 7.622s.14.351.07.702c-.07.35-.07.597-.07.597h5.407s-.316-.527-.562-1.159c-.359-.925-5.758-18.829-5.758-18.829l-.07-.947h-4.425s-.18.501-.32.812c-1.053 2.35-7.057 9.833-7.057 9.833l-.597-2.25 6.711-8.36h-4.325l-.036.491-3.719 5.022-1.512-4.81v-.703H20.89l3.162 9.308-1.373 1.794-3.157-10.224v-.878h-4.46s.009.235-.421 1.228C14.06 32.81 3.842 45.94 1 49.582v1.45zM12.615 39.45l3.444-4.636s.325 1.484.56 2.426c.22.866.597 2.21.597 2.21h-4.6z" fill="#000"/></svg>