<svg width="128" height="15" fill="none" xmlns="http://www.w3.org/2000/svg"><path fill-rule="evenodd" clip-rule="evenodd" d="M0 .215v.376h1.925v13.357H0v.375h5.52v-.375H3.595V7.46H5.72l.272-.008.263-.008.256-.016.255-.024.24-.032.231-.032.224-.047.208-.049.208-.063.2-.065.183-.064.184-.079.168-.088.168-.087.152-.096.144-.104.135-.112.128-.12.12-.12.111-.128.096-.136.096-.143.08-.152.08-.151.063-.16.056-.169.048-.175.04-.184.033-.184.023-.192.008-.2.008-.207-.008-.207-.008-.2-.03-.2-.034-.2-.039-.183-.057-.192-.063-.176-.072-.183-.08-.168-.088-.168-.096-.159-.112-.16-.112-.153-.12-.144-.135-.135-.136-.128-.143-.128-.16-.12-.16-.111L8.38.847 8.204.75 8.021.663l-.184-.08-.2-.08-.2-.064L7.23.383 7.014.328 6.79.288 6.567.255 6.335.231l-.24-.007-.24-.009H0zm3.595.376h2.141L5.951.6l.2.008.184.008.184.024.167.024.152.032.152.04.135.04.129.048.12.056.111.064.104.064.088.08.088.08.08.079.071.096.064.096.056.112.056.111.048.113.04.127.032.136.032.136.032.144.016.152.024.159.008.169.016.166.008.368.008.4-.008.503-.016.455-.016.208-.016.192-.024.192-.024.167-.032.168-.04.151-.04.137-.056.135-.048.12-.064.112-.072.104-.07.096-.08.088-.089.08-.096.072-.112.056-.112.064-.12.047-.135.04-.136.04-.152.033-.16.023-.168.024-.183.015-.192.017-.2.008H5.68l-.225.007h-1.86V.591zM17.727.215v.376h1.925v5.616h-5.32V.591h1.925V.215h-5.52v.376h1.925v13.357h-1.925v.375h5.52v-.375h-1.925V6.59h5.32v7.357h-1.925v.375h5.512v-.375h-1.942V.59h1.942V.215h-5.512zm6.286 0v.376h1.926v13.357h-1.926v.375h5.52v-.375h-1.925V.59h1.926V.215h-5.52zm6.296 0v.376h1.925v13.357h-1.925v.375H40.39V7.996h-.216l-.056.376-.047.36-.065.343-.063.344-.072.319-.072.312-.08.295-.087.288-.097.28-.095.255-.104.256-.112.239-.12.224-.12.216-.128.199-.136.192-.143.175-.144.168-.16.152-.16.144-.167.136-.168.12-.184.104-.192.095-.192.089-.199.07-.208.066-.224.047-.215.04-.232.024-.24.024h-1.996V.59h1.926V.215H30.31zm11.071 0v.376h1.926v13.357H41.38v.375h5.521v-.375h-1.925V.59h1.925V.215h-5.52zm6.295 0v.376h1.926v13.357h-1.926v.375h5.513v-.375h-1.925V7.46h2.125l.28-.008.263-.008.256-.016.247-.024.24-.032.231-.032.224-.047.216-.049.207-.063.2-.065.184-.064.184-.079.167-.088.16-.087.16-.096.144-.104.136-.112.127-.12.12-.12.104-.128.104-.136.096-.143.08-.152.072-.151.071-.16.056-.169.049-.175.039-.184.032-.184.024-.192.009-.2.007-.207-.008-.207-.016-.2-.023-.2-.032-.2-.049-.183-.047-.192-.064-.176-.072-.183-.08-.168-.088-.168-.104-.159-.104-.16-.112-.153-.128-.144-.128-.135-.135-.128-.152-.128-.151-.12-.16-.111-.168-.104L55.88.75l-.184-.088-.192-.08-.19-.08-.2-.064-.209-.056-.215-.055-.223-.04-.224-.032-.232-.025-.24-.007-.24-.009h-5.856zm3.588.376h2.149l.207.008.2.008.192.008.176.024.168.024.159.032.144.04.143.04.129.048.12.056.103.064.104.064.095.08.09.08.078.079.072.096.064.096.056.112.056.111.048.113.04.127.032.136.032.136.024.144.024.152.016.159.016.169.016.166.008.368.008.4-.008.503-.016.455-.016.208-.016.192-.024.192-.032.167-.032.168-.032.151-.048.137-.048.135-.056.12-.056.112-.072.104-.072.096-.079.088-.096.08-.096.072-.104.056-.112.064-.12.047-.136.04-.135.04-.152.033-.16.023-.168.024-.183.015-.192.017-.2.008h-.215l-.225.007h-1.868V.591zM72.816.215l-3.012 11.016L66.944.215h-3.946v.376h.495l.2.008.184.008.175.024.153.032.143.04.128.056.055.024.056.032.057.04.047.04.048.039.04.04.04.049.04.048.033.048.031.055.023.065.025.055.04.136.024.143.015.16.01.168v10.106l-.01.239-.015.216-.017.104-.015.103-.025.096-.024.096-.03.088-.032.088-.032.08-.04.08-.049.072-.04.072-.048.064-.056.064-.056.056-.055.056-.064.056-.064.04-.072.047-.072.04-.08.032-.08.032-.08.032-.087.024-.088.016-.09.024-.198.016-.208.008h-.335v.375h4.52v-.375h-.734l-.087-.008-.097-.009-.087-.015-.08-.016-.08-.024-.072-.024-.073-.032-.071-.032-.064-.04-.056-.04-.064-.047-.047-.048-.057-.056-.047-.057-.04-.063-.04-.064-.04-.072-.04-.08-.032-.08-.056-.168-.04-.184-.032-.208-.024-.222-.016-.24-.008-.256V.455l3.595 13.868h.32L73.135.455l-.08 13.493H71.13v.375h5.424v-.375h-1.925V.59h1.925V.215h-3.739zM81.91 0l-.14.008-.143.016-.144.024-.151.032-.145.032-.143.04-.135.047-.145.048-.135.064-.136.064-.144.073-.128.072-.136.087-.136.088-.128.096-.127.096-.128.11-.12.113-.12.12-.12.128-.12.128-.12.136-.11.144-.112.143-.105.16-.11.16-.105.168-.097.167-.103.176-.088.184-.096.192-.112.239-.095.248-.096.248-.088.255-.088.264-.072.263-.064.264-.064.28-.056.271-.047.287-.04.28-.032.288-.025.296-.015.295-.017.304v.686l.025.384.032.368.04.36.056.35.063.352.08.335.088.328.104.32.112.311.127.303.144.296.152.296.16.28.176.27.183.265.176.215.184.207.184.193.191.176.208.167.2.152.215.144.216.12.224.112.224.103.224.08.23.072.224.056.232.032.232.024.232.008.231-.008.23-.024.234-.032.23-.056.224-.072.224-.08.224-.103.216-.112.216-.12.215-.144.2-.152.199-.167.192-.176.192-.193.176-.207.175-.215.184-.264.177-.271.167-.28.144-.296.143-.296.128-.303.112-.311.105-.32.087-.328.08-.335.072-.352.048-.35.048-.36.032-.368.015-.384.009-.383-.009-.448-.023-.446-.024-.216-.017-.216-.023-.208-.032-.208-.032-.207-.04-.208-.04-.2-.04-.2-.048-.198-.056-.192-.056-.192-.055-.192-.065-.184-.064-.184-.072-.183-.072-.176-.08-.175-.079-.176-.088-.168-.088-.168-.087-.168-.097-.16-.095-.16-.105-.15-.103-.152-.112-.152-.112-.144-.112-.144-.16-.184-.168-.167-.166-.16L84.4.87l-.177-.136-.183-.128-.184-.112-.192-.104-.192-.095-.191-.072-.2-.072-.2-.056-.2-.04-.207-.032-.2-.016-.19-.008h-.173zm-.027 14.18l-.184-.016-.184-.04-.175-.048-.176-.064-.168-.072-.168-.087-.16-.105-.152-.12-.15-.135-.145-.144-.144-.16-.136-.167-.128-.185-.128-.2-.119-.215-.095-.192-.08-.215-.072-.216-.064-.23-.057-.249-.04-.255-.04-.273-.031-.287-.024-.296-.016-.31-.016-.329-.008-.335-.008-.72V5.872l.008-.43.016-.416.016-.392.032-.383.032-.36.048-.343.056-.327.032-.16.032-.152.039-.152.048-.144.049-.144.048-.135.055-.136.056-.128.064-.128.071-.12.073-.12.072-.12.111-.143.112-.136.12-.127.128-.112.127-.112.137-.104.136-.088.135-.088.144-.072.152-.064.144-.055.151-.04.152-.04.151-.025.153-.015.152-.008.151.008.152.015.152.024.15.04.154.048.143.056.144.064.144.072.143.088.129.088.135.104.127.112.121.11.12.129.112.137.112.135.072.12.072.112.072.127.063.12.056.128.056.135.048.136.047.144.049.144.04.152.032.152.031.159.056.327.048.344.033.36.03.383.017.4.016.415.008.431v2.27l-.008.797-.008.377-.008.359-.017.344-.022.334-.032.313-.041.295-.04.28-.055.27-.065.249-.072.24-.04.112-.047.103-.048.104-.048.104-.12.215-.12.2-.128.185-.136.166-.143.161-.144.144-.144.135-.16.12-.16.105-.16.087-.167.072-.175.064-.176.048-.176.04-.184.016-.19.008-.185-.008zM93.777.215h-6.35v.376h1.925v13.357h-1.925v.375h5.52v-.375H91.02v-6.59h2.102l.183.008.168.007.16.017.151.015.145.032.127.032.128.032.112.049.112.047.104.056.087.064.089.063.079.073.08.08.064.088.064.088.048.095.055.105.04.11.04.112.04.12.025.129.031.134.025.137.031.295.024.32.008.344v.367l.009.52.023.478.016.232.016.217.023.215.033.199.032.192.04.183.048.176.047.168.056.16.065.152.063.143.08.128.08.129.088.119.104.104.104.104.11.087.122.089.127.071.144.072.143.056.16.057.168.04.176.031.184.032.2.015.2.017h.383l.16-.017.151-.015.152-.024.144-.033.136-.039.136-.055.127-.057v-.351l-.119.04-.12.032-.12.031-.104.016-.2.033-.167.008-.144-.008-.128-.016-.12-.025-.112-.031-.111-.04-.096-.056-.089-.064-.088-.072-.07-.088-.074-.095-.064-.104-.063-.112-.056-.128-.048-.144-.047-.152-.04-.16-.033-.135-.023-.136-.017-.144-.015-.152-.009-.303v-.87l-.008-.216v-.208l-.008-.216-.014-.224-.025-.216-.032-.216-.04-.215-.056-.224-.031-.127-.05-.128-.04-.12-.047-.113-.055-.11-.056-.112-.057-.104-.063-.104-.072-.096-.072-.087-.072-.09-.08-.086-.088-.08-.088-.072-.088-.072-.096-.072-.104-.064-.103-.064-.112-.056-.113-.048-.11-.056-.128-.04-.12-.048-.136-.04-.128-.032-.143-.032-.144-.032-.144-.024-.312-.04-.32-.031.216-.025.216-.023.208-.04.199-.04.2-.048.184-.048.184-.064.175-.063.176-.072.16-.08.16-.088.143-.088.144-.096.136-.104.136-.104.12-.112.11-.12.113-.12.104-.136.096-.127.08-.144.08-.143.08-.152.063-.153.056-.16.048-.158.048-.168.032-.176.024-.176.024-.184.008-.192.008-.19-.008-.193-.008-.2-.024-.183-.024-.184-.032-.175-.048-.168-.048-.168-.056-.16-.064-.151-.072-.145-.08-.144-.087-.135-.096-.127-.104-.129-.103-.12-.12-.103-.12-.112-.128-.096-.136-.088L95.99.72l-.152-.08-.152-.072-.159-.064-.175-.064-.169-.048L95 .343l-.192-.04-.191-.032-.2-.024-.208-.016L94 .215h-.224zm-2.756.376h2.102l.183.008h.168l.167.016.152.016.152.024.144.024.136.032.128.04.12.04.112.048.104.056.103.063.095.065.089.072.08.079.072.089.072.095.063.097.064.103.048.12.049.12.047.127.04.136.032.144.032.144.024.16.016.168.023.175.016.368.008.407v.248l-.008.239-.008.224-.008.216-.023.2-.016.19-.031.185-.025.168-.04.158-.04.153-.047.143-.049.136-.064.12-.063.112-.065.112-.08.096-.08.096-.096.08-.095.08-.104.063-.111.065-.112.056-.128.048-.136.039-.144.04-.151.032-.16.024-.168.017-.177.015-.183.017h-.2l-.207.007H91.02V.591zm15.218-.376h-6.35v.376h1.925v13.357h-1.925v.375h5.52v-.375h-1.925v-6.59h2.101l.184.008.167.007.16.017.152.015.143.032.128.032.128.032.119.049.104.047.105.056.095.064.088.063.08.073.072.08.064.088.064.088.055.095.049.105.048.11.032.112.04.12.031.129.025.134.024.137.032.295.024.32.008.344.008.367v.52l.023.478.016.232.016.217.024.215.032.199.033.192.039.183.047.176.049.168.056.16.064.152.072.143.071.128.08.129.097.119.095.104.104.104.112.087.12.089.136.071.135.072.144.056.16.057.167.04.176.031.183.032.201.015.207.017h.376l.159-.017.153-.015.152-.024.143-.033.144-.039.128-.055.136-.057v-.351l-.129.04-.119.032-.111.031-.113.016-.2.033-.167.008-.136-.008-.136-.016-.12-.025-.112-.031-.103-.04-.104-.056-.088-.064-.08-.072-.081-.088-.071-.095-.064-.104-.056-.112-.056-.128-.055-.144-.04-.152-.048-.16-.032-.135-.024-.136-.016-.144-.015-.152-.009-.303v-1.086l-.008-.208-.008-.216-.016-.224-.024-.216-.032-.216-.04-.215-.055-.224-.033-.127-.04-.128-.047-.12-.048-.113-.057-.11-.055-.112-.056-.104-.064-.104-.072-.096-.072-.087-.072-.09-.08-.086-.088-.08-.088-.072-.088-.072-.095-.072-.104-.064-.103-.064-.105-.056-.12-.048-.111-.056-.121-.04-.127-.048-.128-.04-.136-.032-.136-.032-.143-.032-.152-.024-.305-.04-.327-.031.216-.025.216-.023.208-.04.207-.04.192-.048.192-.048.184-.064.176-.063.168-.072.159-.08.159-.088.152-.088.144-.096.136-.104.128-.104.119-.112.121-.12.103-.12.105-.136.096-.127.087-.144.08-.143.072-.152.063-.153.057-.16.047-.158.049-.168.031-.176.032-.176.016-.184.008-.192.008-.19-.008-.193-.008-.2-.016-.183-.032-.184-.031-.175-.049-.168-.047-.168-.057-.16-.063-.151-.072-.145-.08-.144-.087-.135-.096-.127-.096-.129-.112-.12-.112-.103-.128-.112-.128-.096-.136-.088-.144-.088-.143-.08-.16-.072-.159-.064-.169-.064-.175-.048-.184-.048-.184-.04-.199-.032-.201-.024-.207-.016-.207-.016h-.225zm-2.755.376h2.101l.184.008h.167l.168.016.159.016.144.024.143.024.137.032.127.04.12.04.113.048.111.056.096.063.096.065.088.072.08.079.08.089.064.095.063.097.065.103.055.12.048.12.04.127.04.136.032.144.031.144.025.16.024.168.016.175.016.368.008.407v.248l-.008.239-.008.224-.008.216-.016.2-.024.19-.025.185-.031.168-.04.158-.04.153-.048.143-.047.136-.056.12-.065.112-.071.112-.08.096-.08.096-.088.08-.096.08-.104.063-.111.065-.121.056-.127.048-.136.039-.145.04-.15.032-.161.024-.167.017-.176.015-.184.017h-.199l-.2.007h-1.829V.591zm9.266-.376v.376h1.926v13.357h-1.926v.375h5.521v-.375h-1.925V.59h1.925V.215h-5.521zM127.266 0l-1.095 1.861-.184-.231-.175-.207-.184-.201-.183-.183-.184-.168-.184-.16-.192-.136-.2-.12-.191-.112-.208-.087-.207-.08-.208-.064-.224-.048-.224-.04-.232-.016L122.97 0h-.2l-.17.016-.167.016-.167.032-.168.04-.16.04-.152.055-.152.057-.152.072-.144.071-.136.081-.135.087-.128.096-.128.104-.112.112-.12.112-.104.128-.103.128-.096.128-.088.143-.089.143-.071.153-.072.16-.064.16-.063.166-.048.176-.041.176-.04.184-.023.184-.024.191-.008.2-.008.2.008.16.008.16.024.15.023.161.033.152.048.152.048.15.055.153.065.136.064.144.079.136.088.127.088.129.095.127.104.111.104.112.169.152.183.144.184.144.199.136.2.128.216.128.216.128.231.127.463.248.496.255.503.28.511.295.328.192.295.192.28.192.264.191.24.184.223.192.096.095.104.096.087.096.088.104.08.096.08.104.071.104.065.104.064.111.055.104.049.113.04.11.039.12.04.12.024.12.024.12.024.128.008.135.008.136.009.136-.009.144-.008.152-.016.144-.024.136-.032.144-.031.127-.049.135-.047.129-.049.12-.063.12-.064.12-.072.103-.072.112-.08.104-.088.096-.087.095-.096.088-.096.088-.104.08-.104.072-.111.072-.12.064-.112.056-.128.048-.12.048-.128.04-.136.04-.135.024-.137.024-.136.016-.143.016h-.144l-.207-.008-.208-.016-.208-.032-.2-.041-.192-.047-.191-.064-.192-.08-.184-.08-.175-.104-.176-.112-.175-.119-.168-.129-.16-.144-.152-.15-.152-.169-.152-.175-.144-.192-.135-.2-.128-.207-.128-.224-.12-.232-.119-.239-.105-.256-.103-.263-.104-.272-.087-.288-.089-.296-.079-.303-.072-.319-.064-.328-.064-.336-.056-.35h-.296v6.015h.216l1.054-1.95.184.256.192.24.192.214.199.208.2.184.208.168.216.16.207.136.111.064.112.056.112.056.112.055.112.04.112.049.112.039.119.032.112.032.12.024.12.024.12.016.12.016.12.008.119.008h.32l.192-.016.191-.024.184-.032.184-.048.184-.047.176-.065.175-.064.168-.08.16-.087.159-.096.152-.096.152-.112.144-.12.136-.128.128-.127.127-.143.12-.145.112-.152.104-.16.103-.167.089-.168.08-.184.079-.183.065-.184.063-.2.048-.2.04-.208.04-.208.024-.214.009-.224.007-.224v-.184l-.016-.176-.016-.175-.024-.168-.032-.16-.04-.167-.047-.153-.048-.16-.065-.143-.064-.151-.071-.144-.081-.144-.087-.136-.096-.136-.096-.135-.112-.13-.112-.134-.12-.128-.128-.12-.135-.129-.143-.118-.144-.129-.153-.12-.159-.118-.344-.24-.367-.232-.392-.24-.423-.24-.879-.479-.784-.423-.351-.2-.326-.183-.296-.192-.264-.184-.128-.096-.112-.096-.112-.088-.103-.096-.089-.104-.087-.096-.08-.104-.072-.103-.055-.104-.057-.112-.048-.111-.039-.112-.024-.12-.024-.128-.017-.128V2.54l.017-.12.016-.12.016-.11.031-.113.032-.111.04-.105.049-.104.047-.103.056-.096.064-.095.064-.097.071-.087.081-.09.079-.08.089-.078.087-.072.096-.072.096-.064.104-.064.112-.064.112-.048.112-.048.119-.047.121-.04.128-.04.126-.024.137-.025.136-.024.135-.016.144-.008h.143l.185.008.175.008.176.032.176.032.168.048.167.056.168.064.16.072.16.088.151.096.152.104.144.112.144.127.136.136.136.144.136.152.127.16.121.175.119.184.12.192.111.2.104.215.104.215.104.233.087.239.096.255.08.256.08.272.08.28.072.28.064.303.065.303h.295V0h-.112z" fill="#231F20"/><path fill-rule="evenodd" clip-rule="evenodd" d="M0 .215v.376h1.925v13.357H0v.375h5.52v-.375H3.595V7.46H5.72l.272-.008.263-.008.256-.016.255-.024.24-.032.231-.032.224-.047.208-.049.208-.063.2-.065.183-.064.184-.079.168-.088.168-.087.152-.096.144-.104.135-.112.128-.12.12-.12.111-.128.096-.136.096-.143.08-.152.08-.151.063-.16.056-.169.048-.175.04-.184.033-.184.023-.192.008-.2.008-.207-.008-.207-.008-.2-.03-.2-.034-.2-.039-.183-.057-.192-.063-.176-.072-.183-.08-.168-.088-.168-.096-.159-.112-.16-.112-.153-.12-.144-.135-.135-.136-.128-.143-.128-.16-.12-.16-.111L8.38.847 8.204.75 8.021.663l-.184-.08-.2-.08-.2-.064L7.23.383 7.014.328 6.79.288 6.567.255 6.335.231l-.24-.007-.24-.009H0zm3.595.376h2.141L5.951.6l.2.008.184.008.184.024.167.024.152.032.152.04.135.04.129.048.12.056.111.064.104.064.088.08.088.08.08.079.071.096.064.096.056.112.056.111.048.113.04.127.032.136.032.136.032.144.016.152.024.159.008.169.016.166.008.368.008.4-.008.503-.016.455-.016.208-.016.192-.024.192-.024.167-.032.168-.04.151-.04.137-.056.135-.048.12-.064.112-.072.104-.07.096-.08.088-.089.08-.096.072-.112.056-.112.064-.12.047-.135.04-.136.04-.152.033-.16.023-.168.024-.183.015-.192.017-.2.008H5.68l-.225.007h-1.86V.591zM17.727.215v.376h1.925v5.616h-5.32V.591h1.925V.215h-5.52v.376h1.925v13.357h-1.925v.375h5.52v-.375h-1.925V6.59h5.32v7.357h-1.925v.375h5.512v-.375h-1.942V.59h1.942V.215h-5.512zm6.286 0v.376h1.926v13.357h-1.926v.375h5.52v-.375h-1.925V.59h1.926V.215h-5.52zm6.296 0v.376h1.925v13.357h-1.925v.375H40.39V7.996h-.216l-.056.376-.047.36-.065.343-.063.344-.072.319-.072.312-.08.295-.087.288-.097.28-.095.255-.104.256-.112.239-.12.224-.12.216-.128.199-.136.192-.143.175-.144.168-.16.152-.16.144-.167.136-.168.12-.184.104-.192.095-.192.089-.199.07-.208.066-.224.047-.215.04-.232.024-.24.024h-1.996V.59h1.926V.215H30.31zm11.071 0v.376h1.926v13.357H41.38v.375h5.521v-.375h-1.925V.59h1.925V.215h-5.52zm6.295 0v.376h1.926v13.357h-1.926v.375h5.513v-.375h-1.925V7.46h2.125l.28-.008.263-.008.256-.016.247-.024.24-.032.231-.032.224-.047.216-.049.207-.063.2-.065.184-.064.184-.079.167-.088.16-.087.16-.096.144-.104.136-.112.127-.12.12-.12.104-.128.104-.136.096-.143.08-.152.072-.151.071-.16.056-.169.049-.175.039-.184.032-.184.024-.192.009-.2.007-.207-.008-.207-.016-.2-.023-.2-.032-.2-.049-.183-.047-.192-.064-.176-.072-.183-.08-.168-.088-.168-.104-.159-.104-.16-.112-.153-.128-.144-.128-.135-.135-.128-.152-.128-.151-.12-.16-.111-.168-.104L55.88.75l-.184-.088-.192-.08-.19-.08-.2-.064-.209-.056-.215-.055-.223-.04-.224-.032-.232-.025-.24-.007-.24-.009h-5.856zm3.588.376h2.149l.207.008.2.008.192.008.176.024.168.024.159.032.144.04.143.04.129.048.12.056.103.064.104.064.095.08.09.08.078.079.072.096.064.096.056.112.056.111.048.113.04.127.032.136.032.136.024.144.024.152.016.159.016.169.016.166.008.368.008.4-.008.503-.016.455-.016.208-.016.192-.024.192-.032.167-.032.168-.032.151-.048.137-.048.135-.056.12-.056.112-.072.104-.072.096-.079.088-.096.08-.096.072-.104.056-.112.064-.12.047-.136.04-.135.04-.152.033-.16.023-.168.024-.183.015-.192.017-.2.008h-.215l-.225.007h-1.868V.591zM72.816.215l-3.012 11.016L66.944.215h-3.946v.376h.495l.2.008.184.008.175.024.153.032.143.04.128.056.055.024.056.032.057.04.047.04.048.039.04.04.04.049.04.048.033.048.031.055.023.065.025.055.04.136.024.143.015.16.01.168v10.106l-.01.239-.015.216-.017.104-.015.103-.025.096-.024.096-.03.088-.032.088-.032.08-.04.08-.049.072-.04.072-.048.064-.056.064-.056.056-.055.056-.064.056-.064.04-.072.047-.072.04-.08.032-.08.032-.08.032-.087.024-.088.016-.09.024-.198.016-.208.008h-.335v.375h4.52v-.375h-.734l-.087-.008-.097-.009-.087-.015-.08-.016-.08-.024-.072-.024-.073-.032-.071-.032-.064-.04-.056-.04-.064-.047-.047-.048-.057-.056-.047-.057-.04-.063-.04-.064-.04-.072-.04-.08-.032-.08-.056-.168-.04-.184-.032-.208-.024-.222-.016-.24-.008-.256V.455l3.595 13.868h.32L73.135.455l-.08 13.493H71.13v.375h5.424v-.375h-1.925V.59h1.925V.215h-3.739zM81.91 0l-.14.008-.143.016-.144.024-.151.032-.145.032-.143.04-.135.047-.145.048-.135.064-.136.064-.144.073-.128.072-.136.087-.136.088-.128.096-.127.096-.128.11-.12.113-.12.12-.12.128-.12.128-.12.136-.11.144-.112.143-.105.16-.11.16-.105.168-.097.167-.103.176-.088.184-.096.192-.112.239-.095.248-.096.248-.088.255-.088.264-.072.263-.064.264-.064.28-.056.271-.047.287-.04.28-.032.288-.025.296-.015.295-.017.304v.686l.025.384.032.368.04.36.056.35.063.352.08.335.088.328.104.32.112.311.127.303.144.296.152.296.16.28.176.27.183.265.176.215.184.207.184.193.191.176.208.167.2.152.215.144.216.12.224.112.224.103.224.08.23.072.224.056.232.032.232.024.232.008.231-.008.23-.024.234-.032.23-.056.224-.072.224-.08.224-.103.216-.112.216-.12.215-.144.2-.152.199-.167.192-.176.192-.193.176-.207.175-.215.184-.264.177-.271.167-.28.144-.296.143-.296.128-.303.112-.311.105-.32.087-.328.08-.335.072-.352.048-.35.048-.36.032-.368.015-.384.009-.383-.009-.448-.023-.446-.024-.216-.017-.216-.023-.208-.032-.208-.032-.207-.04-.208-.04-.2-.04-.2-.048-.198-.056-.192-.056-.192-.055-.192-.065-.184-.064-.184-.072-.183-.072-.176-.08-.175-.079-.176-.088-.168-.088-.168-.087-.168-.097-.16-.095-.16-.105-.15-.103-.152-.112-.152-.112-.144-.112-.144-.16-.184-.168-.167-.166-.16L84.4.87l-.177-.136-.183-.128-.184-.112-.192-.104-.192-.095-.191-.072-.2-.072-.2-.056-.2-.04-.207-.032-.2-.016-.19-.008h-.173zm-.027 14.18l-.184-.016-.184-.04-.175-.048-.176-.064-.168-.072-.168-.087-.16-.105-.152-.12-.15-.135-.145-.144-.144-.16-.136-.167-.128-.185-.128-.2-.119-.215-.095-.192-.08-.215-.072-.216-.064-.23-.057-.249-.04-.255-.04-.273-.031-.287-.024-.296-.016-.31-.016-.329-.008-.335-.008-.72V5.872l.008-.43.016-.416.016-.392.032-.383.032-.36.048-.343.056-.327.032-.16.032-.152.039-.152.048-.144.049-.144.048-.135.055-.136.056-.128.064-.128.071-.12.073-.12.072-.12.111-.143.112-.136.12-.127.128-.112.127-.112.137-.104.136-.088.135-.088.144-.072.152-.064.144-.055.151-.04.152-.04.151-.025.153-.015.152-.008.151.008.152.015.152.024.15.04.154.048.143.056.144.064.144.072.143.088.129.088.135.104.127.112.121.11.12.129.112.137.112.135.072.12.072.112.072.127.063.12.056.128.056.135.048.136.047.144.049.144.04.152.032.152.031.159.056.327.048.344.033.36.03.383.017.4.016.415.008.431v2.27l-.008.797-.008.377-.008.359-.017.344-.022.334-.032.313-.041.295-.04.28-.055.27-.065.249-.072.24-.04.112-.047.103-.048.104-.048.104-.12.215-.12.2-.128.185-.136.166-.143.161-.144.144-.144.135-.16.12-.16.105-.16.087-.167.072-.175.064-.176.048-.176.04-.184.016-.19.008-.185-.008zM93.777.215h-6.35v.376h1.925v13.357h-1.925v.375h5.52v-.375H91.02v-6.59h2.102l.183.008.168.007.16.017.151.015.145.032.127.032.128.032.112.049.112.047.104.056.087.064.089.063.079.073.08.08.064.088.064.088.048.095.055.105.04.11.04.112.04.12.025.129.031.134.025.137.031.295.024.32.008.344v.367l.009.52.023.478.016.232.016.217.023.215.033.199.032.192.04.183.048.176.047.168.056.16.065.152.063.143.08.128.08.129.088.119.104.104.104.104.11.087.122.089.127.071.144.072.143.056.16.057.168.04.176.031.184.032.2.015.2.017h.383l.16-.017.151-.015.152-.024.144-.033.136-.039.136-.055.127-.057v-.351l-.119.04-.12.032-.12.031-.104.016-.2.033-.167.008-.144-.008-.128-.016-.12-.025-.112-.031-.111-.04-.096-.056-.089-.064-.088-.072-.07-.088-.074-.095-.064-.104-.063-.112-.056-.128-.048-.144-.047-.152-.04-.16-.033-.135-.023-.136-.017-.144-.015-.152-.009-.303v-.87l-.008-.216v-.208l-.008-.216-.014-.224-.025-.216-.032-.216-.04-.215-.056-.224-.031-.127-.05-.128-.04-.12-.047-.113-.055-.11-.056-.112-.057-.104-.063-.104-.072-.096-.072-.087-.072-.09-.08-.086-.088-.08-.088-.072-.088-.072-.096-.072-.104-.064-.103-.064-.112-.056-.113-.048-.11-.056-.128-.04-.12-.048-.136-.04-.128-.032-.143-.032-.144-.032-.144-.024-.312-.04-.32-.031.216-.025.216-.023.208-.04.199-.04.2-.048.184-.048.184-.064.175-.063.176-.072.16-.08.16-.088.143-.088.144-.096.136-.104.136-.104.12-.112.11-.12.113-.12.104-.136.096-.127.08-.144.08-.143.08-.152.063-.153.056-.16.048-.158.048-.168.032-.176.024-.176.024-.184.008-.192.008-.19-.008-.193-.008-.2-.024-.183-.024-.184-.032-.175-.048-.168-.048-.168-.056-.16-.064-.151-.072-.145-.08-.144-.087-.135-.096-.127-.104-.129-.103-.12-.12-.103-.12-.112-.128-.096-.136-.088L95.99.72l-.152-.08-.152-.072-.159-.064-.175-.064-.169-.048L95 .343l-.192-.04-.191-.032-.2-.024-.208-.016L94 .215h-.224zm-2.756.376h2.102l.183.008h.168l.167.016.152.016.152.024.144.024.136.032.128.04.12.04.112.048.104.056.103.063.095.065.089.072.08.079.072.089.072.095.063.097.064.103.048.12.049.12.047.127.04.136.032.144.032.144.024.16.016.168.023.175.016.368.008.407v.248l-.008.239-.008.224-.008.216-.023.2-.016.19-.031.185-.025.168-.04.158-.04.153-.047.143-.049.136-.064.12-.063.112-.065.112-.08.096-.08.096-.096.08-.095.08-.104.063-.111.065-.112.056-.128.048-.136.039-.144.04-.151.032-.16.024-.168.017-.177.015-.183.017h-.2l-.207.007H91.02V.591zm15.218-.376h-6.35v.376h1.925v13.357h-1.925v.375h5.52v-.375h-1.925v-6.59h2.101l.184.008.167.007.16.017.152.015.143.032.128.032.128.032.119.049.104.047.105.056.095.064.088.063.08.073.072.08.064.088.064.088.055.095.049.105.048.11.032.112.04.12.031.129.025.134.024.137.032.295.024.32.008.344.008.367v.52l.023.478.016.232.016.217.024.215.032.199.033.192.039.183.047.176.049.168.056.16.064.152.072.143.071.128.08.129.097.119.095.104.104.104.112.087.12.089.136.071.135.072.144.056.16.057.167.04.176.031.183.032.201.015.207.017h.376l.159-.017.153-.015.152-.024.143-.033.144-.039.128-.055.136-.057v-.351l-.129.04-.119.032-.111.031-.113.016-.2.033-.167.008-.136-.008-.136-.016-.12-.025-.112-.031-.103-.04-.104-.056-.088-.064-.08-.072-.081-.088-.071-.095-.064-.104-.056-.112-.056-.128-.055-.144-.04-.152-.048-.16-.032-.135-.024-.136-.016-.144-.015-.152-.009-.303v-1.086l-.008-.208-.008-.216-.016-.224-.024-.216-.032-.216-.04-.215-.055-.224-.033-.127-.04-.128-.047-.12-.048-.113-.057-.11-.055-.112-.056-.104-.064-.104-.072-.096-.072-.087-.072-.09-.08-.086-.088-.08-.088-.072-.088-.072-.095-.072-.104-.064-.103-.064-.105-.056-.12-.048-.111-.056-.121-.04-.127-.048-.128-.04-.136-.032-.136-.032-.143-.032-.152-.024-.305-.04-.327-.031.216-.025.216-.023.208-.04.207-.04.192-.048.192-.048.184-.064.176-.063.168-.072.159-.08.159-.088.152-.088.144-.096.136-.104.128-.104.119-.112.121-.12.103-.12.105-.136.096-.127.087-.144.08-.143.072-.152.063-.153.057-.16.047-.158.049-.168.031-.176.032-.176.016-.184.008-.192.008-.19-.008-.193-.008-.2-.016-.183-.032-.184-.031-.175-.049-.168-.047-.168-.057-.16-.063-.151-.072-.145-.08-.144-.087-.135-.096-.127-.096-.129-.112-.12-.112-.103-.128-.112-.128-.096-.136-.088-.144-.088-.143-.08-.16-.072-.159-.064-.169-.064-.175-.048-.184-.048-.184-.04-.199-.032-.201-.024-.207-.016-.207-.016h-.225zm-2.755.376h2.101l.184.008h.167l.168.016.159.016.144.024.143.024.137.032.127.04.12.04.113.048.111.056.096.063.096.065.088.072.08.079.08.089.064.095.063.097.065.103.055.12.048.12.04.127.04.136.032.144.031.144.025.16.024.168.016.175.016.368.008.407v.248l-.008.239-.008.224-.008.216-.016.2-.024.19-.025.185-.031.168-.04.158-.04.153-.048.143-.047.136-.056.12-.065.112-.071.112-.08.096-.08.096-.088.08-.096.08-.104.063-.111.065-.121.056-.127.048-.136.039-.145.04-.15.032-.161.024-.167.017-.176.015-.184.017h-.199l-.2.007h-1.829V.591zm9.266-.376v.376h1.926v13.357h-1.926v.375h5.521v-.375h-1.925V.59h1.925V.215h-5.521zM127.266 0l-1.095 1.861-.184-.231-.175-.207-.184-.201-.183-.183-.184-.168-.184-.16-.192-.136-.2-.12-.191-.112-.208-.087-.207-.08-.208-.064-.224-.048-.224-.04-.232-.016L122.97 0h-.2l-.17.016-.167.016-.167.032-.168.04-.16.04-.152.055-.152.057-.152.072-.144.071-.136.081-.135.087-.128.096-.128.104-.112.112-.12.112-.104.128-.103.128-.096.128-.088.143-.089.143-.071.153-.072.16-.064.16-.063.166-.048.176-.041.176-.04.184-.023.184-.024.191-.008.2-.008.2.008.16.008.16.024.15.023.161.033.152.048.152.048.15.055.153.065.136.064.144.079.136.088.127.088.129.095.127.104.111.104.112.169.152.183.144.184.144.199.136.2.128.216.128.216.128.231.127.463.248.496.255.503.28.511.295.328.192.295.192.28.192.264.191.24.184.223.192.096.095.104.096.087.096.088.104.08.096.08.104.071.104.065.104.064.111.055.104.049.113.04.11.039.12.04.12.024.12.024.12.024.128.008.135.008.136.009.136-.009.144-.008.152-.016.144-.024.136-.032.144-.031.127-.049.135-.047.129-.049.12-.063.12-.064.12-.072.103-.072.112-.08.104-.088.096-.087.095-.096.088-.096.088-.104.08-.104.072-.111.072-.12.064-.112.056-.128.048-.12.048-.128.04-.136.04-.135.024-.137.024-.136.016-.143.016h-.144l-.207-.008-.208-.016-.208-.032-.2-.041-.192-.047-.191-.064-.192-.08-.184-.08-.175-.104-.176-.112-.175-.119-.168-.129-.16-.144-.152-.15-.152-.169-.152-.175-.144-.192-.135-.2-.128-.207-.128-.224-.12-.232-.119-.239-.105-.256-.103-.263-.104-.272-.087-.288-.089-.296-.079-.303-.072-.319-.064-.328-.064-.336-.056-.35h-.296v6.015h.216l1.054-1.95.184.256.192.24.192.214.199.208.2.184.208.168.216.16.207.136.111.064.112.056.112.056.112.055.112.04.112.049.112.039.119.032.112.032.12.024.12.024.12.016.12.016.12.008.119.008h.32l.192-.016.191-.024.184-.032.184-.048.184-.047.176-.065.175-.064.168-.08.16-.087.159-.096.152-.096.152-.112.144-.12.136-.128.128-.127.127-.143.12-.145.112-.152.104-.16.103-.167.089-.168.08-.184.079-.183.065-.184.063-.2.048-.2.04-.208.04-.208.024-.214.009-.224.007-.224v-.184l-.016-.176-.016-.175-.024-.168-.032-.16-.04-.167-.047-.153-.048-.16-.065-.143-.064-.151-.071-.144-.081-.144-.087-.136-.096-.136-.096-.135-.112-.13-.112-.134-.12-.128-.128-.12-.135-.129-.143-.118-.144-.129-.153-.12-.159-.118-.344-.24-.367-.232-.392-.24-.423-.24-.879-.479-.784-.423-.351-.2-.326-.183-.296-.192-.264-.184-.128-.096-.112-.096-.112-.088-.103-.096-.089-.104-.087-.096-.08-.104-.072-.103-.055-.104-.057-.112-.048-.111-.039-.112-.024-.12-.024-.128-.017-.128V2.54l.017-.12.016-.12.016-.11.031-.113.032-.111.04-.105.049-.104.047-.103.056-.096.064-.095.064-.097.071-.087.081-.09.079-.08.089-.078.087-.072.096-.072.096-.064.104-.064.112-.064.112-.048.112-.048.119-.047.121-.04.128-.04.126-.024.137-.025.136-.024.135-.016.144-.008h.143l.185.008.175.008.176.032.176.032.168.048.167.056.168.064.16.072.16.088.151.096.152.104.144.112.144.127.136.136.136.144.136.152.127.16.121.175.119.184.12.192.111.2.104.215.104.215.104.233.087.239.096.255.08.256.08.272.08.28.072.28.064.303.065.303h.295V0h-.112z" fill="#231F20"/></svg>