<?xml version="1.0" encoding="utf-8"?>
<!-- Generator: Adobe Illustrator 27.5.0, SVG Export Plug-In . SVG Version: 6.00 Build 0)  -->
<svg version="1.1" id="Layer_1" xmlns="http://www.w3.org/2000/svg" xmlns:xlink="http://www.w3.org/1999/xlink" x="0px" y="0px"
	 viewBox="0 0 668 788" style="enable-background:new 0 0 668 788;" xml:space="preserve">
<style type="text/css">
	.st0{clip-path:url(#SVGID_00000127014067223618320800000011281518485705331892_);}
	.st1{clip-path:url(#SVGID_00000031914052428836454100000000427880617288837295_);}
	.st2{fill:#E5E7EE;}
	.st3{fill:#0E2851;}
	.st4{clip-path:url(#SVGID_00000123441439998815675600000013427094529471448232_);}
	.st5{clip-path:url(#SVGID_00000155835149121390231800000008230042330466931602_);fill:#122B55;}
	.st6{clip-path:url(#SVGID_00000155835149121390231800000008230042330466931602_);fill:#122B56;}
	.st7{clip-path:url(#SVGID_00000155835149121390231800000008230042330466931602_);fill:#132C57;}
	.st8{clip-path:url(#SVGID_00000155835149121390231800000008230042330466931602_);fill:#132C58;}
	.st9{clip-path:url(#SVGID_00000155835149121390231800000008230042330466931602_);fill:#132D59;}
	.st10{clip-path:url(#SVGID_00000155835149121390231800000008230042330466931602_);fill:#132D5A;}
	.st11{clip-path:url(#SVGID_00000155835149121390231800000008230042330466931602_);fill:#142E5B;}
	.st12{clip-path:url(#SVGID_00000155835149121390231800000008230042330466931602_);fill:#142E5C;}
	.st13{clip-path:url(#SVGID_00000155835149121390231800000008230042330466931602_);fill:#142F5D;}
	.st14{clip-path:url(#SVGID_00000155835149121390231800000008230042330466931602_);fill:#152F5E;}
	.st15{clip-path:url(#SVGID_00000155835149121390231800000008230042330466931602_);fill:#15305F;}
	.st16{clip-path:url(#SVGID_00000155835149121390231800000008230042330466931602_);fill:#153060;}
	.st17{clip-path:url(#SVGID_00000155835149121390231800000008230042330466931602_);fill:#153061;}
	.st18{clip-path:url(#SVGID_00000155835149121390231800000008230042330466931602_);fill:#163162;}
	.st19{clip-path:url(#SVGID_00000155835149121390231800000008230042330466931602_);fill:#163163;}
	.st20{clip-path:url(#SVGID_00000155835149121390231800000008230042330466931602_);fill:#163264;}
	.st21{clip-path:url(#SVGID_00000155835149121390231800000008230042330466931602_);fill:#173265;}
	.st22{clip-path:url(#SVGID_00000155835149121390231800000008230042330466931602_);fill:#173366;}
	.st23{clip-path:url(#SVGID_00000155835149121390231800000008230042330466931602_);fill:#173367;}
	.st24{clip-path:url(#SVGID_00000155835149121390231800000008230042330466931602_);fill:#173468;}
	.st25{clip-path:url(#SVGID_00000155835149121390231800000008230042330466931602_);fill:#183469;}
	.st26{clip-path:url(#SVGID_00000155835149121390231800000008230042330466931602_);fill:#18346A;}
	.st27{clip-path:url(#SVGID_00000155835149121390231800000008230042330466931602_);fill:#18356B;}
	.st28{clip-path:url(#SVGID_00000155835149121390231800000008230042330466931602_);fill:#19356C;}
	.st29{clip-path:url(#SVGID_00000155835149121390231800000008230042330466931602_);fill:#19366D;}
	.st30{clip-path:url(#SVGID_00000155835149121390231800000008230042330466931602_);fill:#19366E;}
	.st31{clip-path:url(#SVGID_00000155835149121390231800000008230042330466931602_);fill:#19376F;}
	.st32{clip-path:url(#SVGID_00000155835149121390231800000008230042330466931602_);fill:#1A3770;}
	.st33{clip-path:url(#SVGID_00000155835149121390231800000008230042330466931602_);fill:#1A3871;}
	.st34{clip-path:url(#SVGID_00000155835149121390231800000008230042330466931602_);fill:#1A3872;}
	.st35{clip-path:url(#SVGID_00000155835149121390231800000008230042330466931602_);fill:#1B3974;}
	.st36{clip-path:url(#SVGID_00000155835149121390231800000008230042330466931602_);fill:#1B3975;}
	.st37{clip-path:url(#SVGID_00000155835149121390231800000008230042330466931602_);fill:#1B3976;}
	.st38{clip-path:url(#SVGID_00000155835149121390231800000008230042330466931602_);fill:#1B3A77;}
	.st39{clip-path:url(#SVGID_00000155835149121390231800000008230042330466931602_);fill:#1C3A78;}
	.st40{clip-path:url(#SVGID_00000155835149121390231800000008230042330466931602_);fill:#1C3B79;}
	.st41{clip-path:url(#SVGID_00000155835149121390231800000008230042330466931602_);fill:#1C3B7A;}
	.st42{clip-path:url(#SVGID_00000155835149121390231800000008230042330466931602_);fill:#1C3C7B;}
	.st43{clip-path:url(#SVGID_00000155835149121390231800000008230042330466931602_);fill:#1D3C7C;}
	.st44{clip-path:url(#SVGID_00000155835149121390231800000008230042330466931602_);fill:#1D3D7D;}
	.st45{clip-path:url(#SVGID_00000155835149121390231800000008230042330466931602_);fill:#1D3D7E;}
	.st46{clip-path:url(#SVGID_00000155835149121390231800000008230042330466931602_);fill:#1E3D7F;}
	.st47{clip-path:url(#SVGID_00000155835149121390231800000008230042330466931602_);fill:#1E3E80;}
	.st48{clip-path:url(#SVGID_00000155835149121390231800000008230042330466931602_);fill:#1E3E81;}
	.st49{clip-path:url(#SVGID_00000155835149121390231800000008230042330466931602_);fill:#1E3F82;}
	.st50{clip-path:url(#SVGID_00000155835149121390231800000008230042330466931602_);fill:#1F3F83;}
	.st51{clip-path:url(#SVGID_00000155835149121390231800000008230042330466931602_);fill:#1F4084;}
	.st52{clip-path:url(#SVGID_00000155835149121390231800000008230042330466931602_);fill:#1F4085;}
	.st53{clip-path:url(#SVGID_00000155835149121390231800000008230042330466931602_);fill:#204186;}
	.st54{clip-path:url(#SVGID_00000155835149121390231800000008230042330466931602_);fill:#204187;}
	.st55{clip-path:url(#SVGID_00000155835149121390231800000008230042330466931602_);fill:#204288;}
	.st56{clip-path:url(#SVGID_00000155835149121390231800000008230042330466931602_);fill:#204289;}
	.st57{clip-path:url(#SVGID_00000155835149121390231800000008230042330466931602_);fill:#21428A;}
	.st58{clip-path:url(#SVGID_00000155835149121390231800000008230042330466931602_);fill:#21438B;}
	.st59{clip-path:url(#SVGID_00000155835149121390231800000008230042330466931602_);fill:#21438C;}
	.st60{clip-path:url(#SVGID_00000155835149121390231800000008230042330466931602_);fill:#22448D;}
	.st61{clip-path:url(#SVGID_00000155835149121390231800000008230042330466931602_);fill:#22448E;}
	.st62{clip-path:url(#SVGID_00000155835149121390231800000008230042330466931602_);fill:#22458F;}
	.st63{clip-path:url(#SVGID_00000155835149121390231800000008230042330466931602_);fill:#224590;}
	.st64{clip-path:url(#SVGID_00000155835149121390231800000008230042330466931602_);fill:#234691;}
	.st65{clip-path:url(#SVGID_00000155835149121390231800000008230042330466931602_);fill:#234692;}
	.st66{fill:#FFFFFF;}
	.st67{fill:none;}
	.st68{fill:#0C2969;}
	.st69{fill:#4978F5;}
	.st70{fill:#82E0A2;}
	.st71{fill:#FABF72;}
	.st72{clip-path:url(#SVGID_00000136383011089306327800000002489870924917154985_);}
	.st73{clip-path:url(#SVGID_00000147942835114968779670000007691826500434018463_);}
</style>
<g id="Group_15891" transform="translate(-389.595 -120.313)">
	<g id="Group_15890">
		<g id="Group_15885" transform="translate(1318.175 120.313)">
			<g>
				<defs>
					<rect id="SVGID_1_" x="-730" y="64.6" width="201.2" height="342.9"/>
				</defs>
				<clipPath id="SVGID_00000124147109393958969740000006523724478450830768_">
					<use xlink:href="#SVGID_1_"  style="overflow:visible;"/>
				</clipPath>
				<g id="Group_15884" style="clip-path:url(#SVGID_00000124147109393958969740000006523724478450830768_);">
					<g id="Group_15879">
						<g>
							<defs>
								<rect id="SVGID_00000003799275081355627520000002258998194805241228_" x="-730" y="64.6" width="201.2" height="342.9"/>
							</defs>
							<clipPath id="SVGID_00000060719549105020545920000013584859579884940953_">
								<use xlink:href="#SVGID_00000003799275081355627520000002258998194805241228_"  style="overflow:visible;"/>
							</clipPath>
							<g id="Group_15878" style="clip-path:url(#SVGID_00000060719549105020545920000013584859579884940953_);">
								<g id="Path_27458">
									<path class="st2" d="M-652.5,74.3c-5.6,2.5-9.3,12.3-11.8,18.6c-7.1,17.8-6.7,40.5-7.1,60.1c-0.2,9.1-0.2,18.3,0.4,27.4
										c0.4,5.9,0.6,13.3,3.1,18.5c0.8,1.7,1.9,3.5,3.6,3.3c21-2.4,60-7.7,60-7.7s24.7-142.8-29.4-124.4
										C-633.8,70.1-642.2,69.8-652.5,74.3"/>
								</g>
								<g id="Path_27459">
									<path class="st3" d="M-664.7,202.6c-1.8,0-2.9-1.8-3.8-3.5c-2.3-4.8-2.7-11.6-3-17.1c0-0.5-0.1-1.1-0.1-1.6
										c-0.6-9.9-0.5-19.9-0.4-27.4c0-2,0.1-4,0.1-6.1c0.3-17.9,0.7-38.1,7.1-54.2l0.4-1c2.6-6.5,6.1-15.4,11.6-17.9
										c9.8-4.3,17.9-4.3,18.9-4.3c8.5-2.9,15.6-1.9,21.1,2.8c10.8,9.3,15.6,32.7,14.2,69.5c-1.1,27.4-5.4,52.4-5.4,52.6l-0.1,0.3
										l-0.3,0c-0.4,0.1-39.2,5.3-60,7.7C-664.5,202.6-664.6,202.6-664.7,202.6z M-634,70.5c-1.5,0-9.2,0.2-18.3,4.2l0,0
										c-5.2,2.3-8.8,11.3-11.2,17.4l-0.4,1c-6.3,15.9-6.7,36-7,53.8c0,2.1-0.1,4.1-0.1,6.1c-0.2,7.5-0.3,17.4,0.4,27.3
										c0,0.5,0.1,1.1,0.1,1.6c0.3,5.4,0.7,12.1,2.9,16.8c0.8,1.6,1.7,3.2,3.2,3c19.7-2.3,55.8-7.1,59.7-7.6
										c0.5-3,4.3-26.6,5.3-52.2c1-25.1-0.6-57.5-13.8-68.8c-5.3-4.5-12.1-5.4-20.3-2.6l-0.1,0l-0.1,0
										C-633.8,70.5-633.9,70.5-634,70.5z"/>
								</g>
							</g>
						</g>
					</g>
					<g id="Group_15881" transform="translate(58.979 240.692)">
						<g>
							<defs>
								<path id="SVGID_00000047049789517081612650000011136671185930480805_" d="M-762,5.4v20.7h142.8V5.4
									c0-39.4-32-71.4-71.4-71.4C-730-66-762-34.1-762,5.4C-762,5.4-762,5.4-762,5.4"/>
							</defs>
							<clipPath id="SVGID_00000179618489107744081630000003910941081578607257_">
								<use xlink:href="#SVGID_00000047049789517081612650000011136671185930480805_"  style="overflow:visible;"/>
							</clipPath>
						</g>
					</g>
					<g id="Group_15883">
						<g>
							<defs>
								<rect id="SVGID_00000125603829160152049610000008121150345057043344_" x="-730" y="64.6" width="201.2" height="342.9"/>
							</defs>
							<clipPath id="SVGID_00000023256050468636287520000010814858523588150442_">
								<use xlink:href="#SVGID_00000125603829160152049610000008121150345057043344_"  style="overflow:visible;"/>
							</clipPath>
							<g id="Group_15882" style="clip-path:url(#SVGID_00000023256050468636287520000010814858523588150442_);">
								<g id="Path_27461">
									<g>
										<defs>
											<path id="SVGID_00000157988762439596231140000011019281172582743689_" d="M-560.2,266.8H-703v-20.7
												c0-39.4,32-71.4,71.4-71.4l0,0l0,0c39.4,0,71.4,32,71.4,71.4l0,0L-560.2,266.8z"/>
										</defs>
										<clipPath id="SVGID_00000124856998212867555260000017117655427995821480_">
											<use xlink:href="#SVGID_00000157988762439596231140000011019281172582743689_"  style="overflow:visible;"/>
										</clipPath>
										<path style="clip-path:url(#SVGID_00000124856998212867555260000017117655427995821480_);fill:#122B55;" d="M-703,174.7
											v92.2V174.7z"/>
										
											<rect x="-703" y="174.7" style="clip-path:url(#SVGID_00000124856998212867555260000017117655427995821480_);fill:#122B55;" width="2.3" height="92.2"/>
										
											<rect x="-700.7" y="174.7" style="clip-path:url(#SVGID_00000124856998212867555260000017117655427995821480_);fill:#122B56;" width="2.3" height="92.2"/>
										
											<rect x="-698.3" y="174.7" style="clip-path:url(#SVGID_00000124856998212867555260000017117655427995821480_);fill:#132C57;" width="2.3" height="92.2"/>
										
											<rect x="-696" y="174.7" style="clip-path:url(#SVGID_00000124856998212867555260000017117655427995821480_);fill:#132C58;" width="2.3" height="92.2"/>
										
											<rect x="-693.7" y="174.7" style="clip-path:url(#SVGID_00000124856998212867555260000017117655427995821480_);fill:#132D59;" width="2.3" height="92.2"/>
										
											<rect x="-691.3" y="174.7" style="clip-path:url(#SVGID_00000124856998212867555260000017117655427995821480_);fill:#132D5A;" width="2.3" height="92.2"/>
										
											<rect x="-689" y="174.7" style="clip-path:url(#SVGID_00000124856998212867555260000017117655427995821480_);fill:#142E5B;" width="2.3" height="92.2"/>
										
											<rect x="-686.6" y="174.7" style="clip-path:url(#SVGID_00000124856998212867555260000017117655427995821480_);fill:#142E5C;" width="2.3" height="92.2"/>
										
											<rect x="-684.3" y="174.7" style="clip-path:url(#SVGID_00000124856998212867555260000017117655427995821480_);fill:#142F5D;" width="2.3" height="92.2"/>
										
											<rect x="-682" y="174.7" style="clip-path:url(#SVGID_00000124856998212867555260000017117655427995821480_);fill:#152F5E;" width="2.3" height="92.2"/>
										
											<rect x="-679.6" y="174.7" style="clip-path:url(#SVGID_00000124856998212867555260000017117655427995821480_);fill:#15305F;" width="2.3" height="92.2"/>
										
											<rect x="-677.3" y="174.7" style="clip-path:url(#SVGID_00000124856998212867555260000017117655427995821480_);fill:#153060;" width="2.3" height="92.2"/>
										
											<rect x="-674.9" y="174.7" style="clip-path:url(#SVGID_00000124856998212867555260000017117655427995821480_);fill:#153061;" width="2.3" height="92.2"/>
										
											<rect x="-672.6" y="174.7" style="clip-path:url(#SVGID_00000124856998212867555260000017117655427995821480_);fill:#163162;" width="2.3" height="92.2"/>
										
											<rect x="-670.2" y="174.7" style="clip-path:url(#SVGID_00000124856998212867555260000017117655427995821480_);fill:#163163;" width="2.3" height="92.2"/>
										
											<rect x="-667.9" y="174.7" style="clip-path:url(#SVGID_00000124856998212867555260000017117655427995821480_);fill:#163264;" width="2.3" height="92.2"/>
										
											<rect x="-665.6" y="174.7" style="clip-path:url(#SVGID_00000124856998212867555260000017117655427995821480_);fill:#173265;" width="2.3" height="92.2"/>
										
											<rect x="-663.2" y="174.7" style="clip-path:url(#SVGID_00000124856998212867555260000017117655427995821480_);fill:#173366;" width="2.3" height="92.2"/>
										
											<rect x="-660.9" y="174.7" style="clip-path:url(#SVGID_00000124856998212867555260000017117655427995821480_);fill:#173367;" width="2.3" height="92.2"/>
										
											<rect x="-658.5" y="174.7" style="clip-path:url(#SVGID_00000124856998212867555260000017117655427995821480_);fill:#173468;" width="2.3" height="92.2"/>
										
											<rect x="-656.2" y="174.7" style="clip-path:url(#SVGID_00000124856998212867555260000017117655427995821480_);fill:#183469;" width="2.3" height="92.2"/>
										
											<rect x="-653.9" y="174.7" style="clip-path:url(#SVGID_00000124856998212867555260000017117655427995821480_);fill:#18346A;" width="2.3" height="92.2"/>
										
											<rect x="-651.5" y="174.7" style="clip-path:url(#SVGID_00000124856998212867555260000017117655427995821480_);fill:#18356B;" width="2.3" height="92.2"/>
										
											<rect x="-649.2" y="174.7" style="clip-path:url(#SVGID_00000124856998212867555260000017117655427995821480_);fill:#19356C;" width="2.3" height="92.2"/>
										
											<rect x="-646.8" y="174.7" style="clip-path:url(#SVGID_00000124856998212867555260000017117655427995821480_);fill:#19366D;" width="2.3" height="92.2"/>
										
											<rect x="-644.5" y="174.7" style="clip-path:url(#SVGID_00000124856998212867555260000017117655427995821480_);fill:#19366E;" width="2.3" height="92.2"/>
										
											<rect x="-642.1" y="174.7" style="clip-path:url(#SVGID_00000124856998212867555260000017117655427995821480_);fill:#19376F;" width="2.3" height="92.2"/>
										
											<rect x="-639.8" y="174.7" style="clip-path:url(#SVGID_00000124856998212867555260000017117655427995821480_);fill:#1A3770;" width="2.3" height="92.2"/>
										
											<rect x="-637.5" y="174.7" style="clip-path:url(#SVGID_00000124856998212867555260000017117655427995821480_);fill:#1A3871;" width="2.3" height="92.2"/>
										
											<rect x="-635.1" y="174.7" style="clip-path:url(#SVGID_00000124856998212867555260000017117655427995821480_);fill:#1A3872;" width="2.3" height="92.2"/>
										
											<rect x="-632.8" y="174.7" style="clip-path:url(#SVGID_00000124856998212867555260000017117655427995821480_);fill:#1B3974;" width="2.3" height="92.2"/>
										
											<rect x="-630.4" y="174.7" style="clip-path:url(#SVGID_00000124856998212867555260000017117655427995821480_);fill:#1B3975;" width="2.3" height="92.2"/>
										
											<rect x="-628.1" y="174.7" style="clip-path:url(#SVGID_00000124856998212867555260000017117655427995821480_);fill:#1B3976;" width="2.3" height="92.2"/>
										
											<rect x="-625.8" y="174.7" style="clip-path:url(#SVGID_00000124856998212867555260000017117655427995821480_);fill:#1B3A77;" width="2.3" height="92.2"/>
										
											<rect x="-623.4" y="174.7" style="clip-path:url(#SVGID_00000124856998212867555260000017117655427995821480_);fill:#1C3A78;" width="2.3" height="92.2"/>
										
											<rect x="-621.1" y="174.7" style="clip-path:url(#SVGID_00000124856998212867555260000017117655427995821480_);fill:#1C3B79;" width="2.3" height="92.2"/>
										
											<rect x="-618.7" y="174.7" style="clip-path:url(#SVGID_00000124856998212867555260000017117655427995821480_);fill:#1C3B7A;" width="2.3" height="92.2"/>
										
											<rect x="-616.4" y="174.7" style="clip-path:url(#SVGID_00000124856998212867555260000017117655427995821480_);fill:#1C3C7B;" width="2.3" height="92.2"/>
										
											<rect x="-614.1" y="174.7" style="clip-path:url(#SVGID_00000124856998212867555260000017117655427995821480_);fill:#1D3C7C;" width="2.3" height="92.2"/>
										
											<rect x="-611.7" y="174.7" style="clip-path:url(#SVGID_00000124856998212867555260000017117655427995821480_);fill:#1D3D7D;" width="2.3" height="92.2"/>
										
											<rect x="-609.4" y="174.7" style="clip-path:url(#SVGID_00000124856998212867555260000017117655427995821480_);fill:#1D3D7E;" width="2.3" height="92.2"/>
										
											<rect x="-607" y="174.7" style="clip-path:url(#SVGID_00000124856998212867555260000017117655427995821480_);fill:#1E3D7F;" width="2.3" height="92.2"/>
										
											<rect x="-604.7" y="174.7" style="clip-path:url(#SVGID_00000124856998212867555260000017117655427995821480_);fill:#1E3E80;" width="2.3" height="92.2"/>
										
											<rect x="-602.3" y="174.7" style="clip-path:url(#SVGID_00000124856998212867555260000017117655427995821480_);fill:#1E3E81;" width="2.3" height="92.2"/>
										
											<rect x="-600" y="174.7" style="clip-path:url(#SVGID_00000124856998212867555260000017117655427995821480_);fill:#1E3F82;" width="2.3" height="92.2"/>
										
											<rect x="-597.7" y="174.7" style="clip-path:url(#SVGID_00000124856998212867555260000017117655427995821480_);fill:#1F3F83;" width="2.3" height="92.2"/>
										
											<rect x="-595.3" y="174.7" style="clip-path:url(#SVGID_00000124856998212867555260000017117655427995821480_);fill:#1F4084;" width="2.3" height="92.2"/>
										
											<rect x="-593" y="174.7" style="clip-path:url(#SVGID_00000124856998212867555260000017117655427995821480_);fill:#1F4085;" width="2.3" height="92.2"/>
										
											<rect x="-590.6" y="174.7" style="clip-path:url(#SVGID_00000124856998212867555260000017117655427995821480_);fill:#204186;" width="2.3" height="92.2"/>
										
											<rect x="-588.3" y="174.7" style="clip-path:url(#SVGID_00000124856998212867555260000017117655427995821480_);fill:#204187;" width="2.3" height="92.2"/>
										
											<rect x="-586" y="174.7" style="clip-path:url(#SVGID_00000124856998212867555260000017117655427995821480_);fill:#204288;" width="2.3" height="92.2"/>
										
											<rect x="-583.6" y="174.7" style="clip-path:url(#SVGID_00000124856998212867555260000017117655427995821480_);fill:#204289;" width="2.3" height="92.2"/>
										
											<rect x="-581.3" y="174.7" style="clip-path:url(#SVGID_00000124856998212867555260000017117655427995821480_);fill:#21428A;" width="2.3" height="92.2"/>
										
											<rect x="-578.9" y="174.7" style="clip-path:url(#SVGID_00000124856998212867555260000017117655427995821480_);fill:#21438B;" width="2.3" height="92.2"/>
										
											<rect x="-576.6" y="174.7" style="clip-path:url(#SVGID_00000124856998212867555260000017117655427995821480_);fill:#21438C;" width="2.3" height="92.2"/>
										
											<rect x="-574.2" y="174.7" style="clip-path:url(#SVGID_00000124856998212867555260000017117655427995821480_);fill:#22448D;" width="2.3" height="92.2"/>
										
											<rect x="-571.9" y="174.7" style="clip-path:url(#SVGID_00000124856998212867555260000017117655427995821480_);fill:#22448E;" width="2.3" height="92.2"/>
										
											<rect x="-569.6" y="174.7" style="clip-path:url(#SVGID_00000124856998212867555260000017117655427995821480_);fill:#22458F;" width="2.3" height="92.2"/>
										
											<rect x="-567.2" y="174.7" style="clip-path:url(#SVGID_00000124856998212867555260000017117655427995821480_);fill:#224590;" width="2.3" height="92.2"/>
										
											<rect x="-564.9" y="174.7" style="clip-path:url(#SVGID_00000124856998212867555260000017117655427995821480_);fill:#234691;" width="2.3" height="92.2"/>
										
											<rect x="-562.5" y="174.7" style="clip-path:url(#SVGID_00000124856998212867555260000017117655427995821480_);fill:#234692;" width="2.3" height="92.2"/>
										<path style="clip-path:url(#SVGID_00000124856998212867555260000017117655427995821480_);fill:#234692;" d="M-560.2,266.8
											v-92.2V266.8z"/>
									</g>
									<path class="st3" d="M-559.7,267.3h-143.7v-21.2c0-39.6,32.2-71.9,71.9-71.9c39.6,0,71.9,32.2,71.9,71.9L-559.7,267.3z
										 M-702.6,266.4h141.9l0-20.3c0-39.1-31.8-71-71-71c-39.1,0-71,31.8-71,71V266.4z"/>
								</g>
								<g id="Path_27462">
									<path class="st66" d="M-613.4,129.7v46c-5.4,5.4-12,29.7-19,29.7s-14.5-24.3-19.9-29.7l0.9-10.3l2.3-26.2l0.8-9.6H-613.4z"
										/>
								</g>
								<g id="Path_27463">
									<path class="st3" d="M-632.4,205.9c-4.6,0-9.1-9.1-13.4-17.9c-2.5-5.1-4.9-9.9-6.9-12l-0.1-0.2l4.1-46.6h35.8v46.7
										l-0.1,0.1c-2,2.1-4.3,7-6.7,12.2C-623.7,196.9-627.8,205.9-632.4,205.9z M-651.9,175.5c2.1,2.2,4.4,7,6.9,12
										c4,8.1,8.5,17.4,12.6,17.4c4,0,8.2-9.1,11.8-17.1c2.4-5.2,4.6-10.1,6.7-12.4v-45.4h-34L-651.9,175.5z"/>
								</g>
								<g id="Path_27464">
									<path class="st3" d="M-613.4,146.1c-1.7,11.9-25.3,17.3-38,19.4l2.3-26.2L-613.4,146.1z"/>
								</g>
								<g id="Path_27465">
									<path class="st66" d="M-632.7,160.5L-632.7,160.5c-12.5,0-22.6-10.1-22.6-22.6l0,0V84.5h45.3v53.3
										C-610.1,150.3-620.2,160.5-632.7,160.5"/>
								</g>
								<g id="Path_27466">
									<path class="st3" d="M-632.7,160.9c-12.7,0-23.1-10.4-23.1-23.1V84h46.2v53.8C-609.6,150.6-620,160.9-632.7,160.9z
										 M-654.9,85v52.9c0,12.2,9.9,22.2,22.2,22.2c12.2,0,22.2-9.9,22.2-22.2V85H-654.9z"/>
								</g>
								<g id="Path_27467">
									<path class="st2" d="M-650,70c-10.4,6.4-12.1,12.5-10.4,18.1c2,6.2,10.6,8.6,22.8,7.5c7.4-0.7,12.4-0.3,15.8,0.5
										c5.7,1.3,11.4-2.2,12.8-7.9c2-8.6-0.1-19.3-20.9-22.6C-629.9,65.5-640.7,64.2-650,70"/>
								</g>
								<g id="Path_27468">
									<path class="st3" d="M-619.4,96.7c-0.8,0-1.7-0.1-2.5-0.3c-4-0.9-9.2-1.1-15.7-0.5c-13,1.2-21.3-1.6-23.2-7.8
										c-2.1-6.8,1.3-12.8,10.6-18.6c9.3-5.8,20.3-4.5,20.4-4.5c9.6,1.5,16.2,4.8,19.5,9.7c2.5,3.7,3.1,8.2,1.8,13.5
										C-609.8,93.3-614.3,96.7-619.4,96.7z M-630.5,94.7c3.4,0,6.4,0.3,8.9,0.8c5.4,1.3,10.9-2.1,12.2-7.6
										c1.2-5,0.6-9.3-1.7-12.7c-3.1-4.7-9.5-7.8-18.8-9.3c-0.1,0-10.8-1.2-19.8,4.4l0,0c-8.8,5.5-12.2,11.2-10.2,17.5
										c1.8,5.7,9.9,8.3,22.3,7.2C-635.1,94.8-632.7,94.7-630.5,94.7z"/>
								</g>
								<g id="Path_27469">
									<path class="st66" d="M-649.2,110.4c1.5,1.6,3.6,2.4,5.7,2.2c1.5-0.1,3.2-0.8,5.2-2.3
										C-638.3,110.3-642.6,105.2-649.2,110.4"/>
								</g>
								<g id="Path_27470">
									<path class="st3" d="M-638.5,110.7c0,0-3.3-2.1-10.6-1.2l-0.1-0.9c7.7-1,11.1,1.2,11.2,1.3L-638.5,110.7z"/>
								</g>
								<g id="Path_27471">
									<path class="st3" d="M-642.5,110c0.2,0.7-0.2,1.4-0.9,1.6c-0.7,0.2-1.4-0.2-1.6-0.9c-0.2-0.7,0.2-1.4,0.9-1.6
										C-643.4,108.9-642.7,109.3-642.5,110"/>
								</g>
								<g id="Path_27472">
									<path class="st66" d="M-616.6,110.4c-1.5,1.6-3.6,2.4-5.7,2.2c-1.5-0.1-3.2-0.8-5.2-2.3
										C-627.5,110.4-623.3,105.2-616.6,110.4"/>
								</g>
								<g id="Path_27473">
									<path class="st3" d="M-627.3,110.7l-0.5-0.8c0.1-0.1,3.6-2.3,11.2-1.3l-0.1,0.9C-623.9,108.6-627.2,110.7-627.3,110.7z"/>
								</g>
								<g id="Path_27474">
									<path class="st3" d="M-623.3,110c-0.2,0.7,0.2,1.4,0.9,1.6c0.7,0.2,1.4-0.2,1.6-0.9c0.2-0.7-0.2-1.4-0.9-1.6
										C-622.4,109-623.1,109.4-623.3,110C-623.3,110-623.3,110-623.3,110"/>
								</g>
								<g id="Line_248">
									<line class="st67" x1="-631.1" y1="112.1" x2="-631.1" y2="119.6"/>
								</g>
								<g id="Line_249">
									<rect x="-631.6" y="112.1" class="st3" width="0.9" height="7.5"/>
								</g>
								<g id="Path_27475">
									<path class="st3" d="M-632.4,126.4C-632.4,126.4-632.4,126.4-632.4,126.4c-2.3,0-4.1-0.7-4.2-0.7l0.3-0.9
										c0,0,1.7,0.7,3.9,0.7c0,0,0,0,0,0c2.8,0,4.9-1.1,6.3-3.2l0.8,0.5C-626.9,125.1-629.4,126.4-632.4,126.4z"/>
								</g>
								<g id="Path_27476">
									<path class="st66" d="M-638.3,103.7l-2.5-0.4c-2.8-0.4-5.6-1.3-8.4-0.6"/>
								</g>
								<g id="Path_27477">
									<path class="st3" d="M-638.4,104.2l-2.5-0.4c-0.6-0.1-1.2-0.2-1.9-0.3c-2.1-0.4-4.3-0.8-6.3-0.3l-0.2-0.9
										c2.2-0.6,4.5-0.1,6.7,0.3c0.6,0.1,1.2,0.2,1.8,0.3l2.5,0.4L-638.4,104.2z"/>
								</g>
								<g id="Path_27478">
									<path class="st66" d="M-616.6,103.7l-2.5-0.4c-2.8-0.4-5.6-0.3-8.4,0.4"/>
								</g>
								<g id="Path_27479">
									<path class="st3" d="M-616.7,104.2l-2.5-0.4c-2.7-0.4-5.5-0.3-8.2,0.4l-0.2-0.9c2.8-0.7,5.7-0.8,8.6-0.4l2.5,0.4
										L-616.7,104.2z"/>
								</g>
							</g>
						</g>
					</g>
				</g>
			</g>
		</g>
		<g id="Path_27382">
			<path class="st66" d="M880.5,640.8c-35.7,107.5-151.7,165.7-259.2,130s-165.7-151.7-130-259.2s151.7-165.7,259.2-130
				S916.2,533.4,880.5,640.8"/>
			<path class="st68" d="M685.9,782c-21.9,0-43.6-3.5-64.7-10.5c-26.4-8.7-50.2-22.4-70.9-40.6c-20-17.5-36.2-38.6-48.2-62.4
				c-12-23.9-19.1-49.4-21.2-75.9c-2.2-27.5,1.1-54.7,9.9-81.1c8.7-26.4,22.4-50.2,40.6-70.9c17.5-20,38.6-36.2,62.4-48.2
				c23.9-12,49.4-19.1,75.9-21.2c27.4-2.2,54.7,1.1,81.1,9.9c26.4,8.7,50.2,22.4,70.9,40.6c20,17.5,36.2,38.6,48.2,62.4
				c12,23.9,19.1,49.4,21.2,75.9c2.2,27.4-1.1,54.7-9.9,81.1l-0.7-0.2l0.7,0.2c-8.7,26.4-22.4,50.2-40.6,70.9
				c-17.6,20-38.6,36.2-62.4,48.2c-23.9,12-49.4,19.1-75.9,21.2C696.8,781.8,691.3,782,685.9,782z M686,371.8
				c-5.4,0-10.8,0.2-16.3,0.7c-26.3,2.1-51.7,9.2-75.4,21.1c-23.7,11.9-44.6,28-62,47.9c-18,20.6-31.6,44.3-40.3,70.4
				c-8.7,26.2-12,53.3-9.8,80.5c2.1,26.3,9.2,51.7,21.1,75.4c11.9,23.7,28,44.6,47.9,62c20.6,18,44.3,31.6,70.4,40.3
				c26.2,8.7,53.3,12,80.5,9.8c26.3-2.1,51.7-9.2,75.4-21.1c23.7-11.9,44.6-28,62-47.9c18-20.6,31.6-44.3,40.3-70.4
				c8.7-26.2,12-53.3,9.8-80.5c-2.1-26.3-9.2-51.7-21.1-75.4c-11.9-23.7-28-44.6-47.9-62c-20.6-18-44.3-31.6-70.4-40.3
				C729.3,375.3,707.8,371.8,686,371.8z"/>
		</g>
		<g id="Path_27383">
			<path class="st69" d="M704.2,372c0.8,0.5,1.7,1.1,2.6,1.6c0.1-0.6,43.2,13.1,47.6,15.1c12.8,5.9,20.6,8,6.6,12.4
				c6.1-1.9,19.9,35.6,29.6,34c9.4-1.5,12.2,9.1,14.7,16.4c1.3,3.9,5.4,6.1,3.9,10.8c-0.5,1.5-7.2,4.5-6.7,5.5
				c2.8,5.4,15.7,6,15.8,13.9c-1.2,2-3.1,2.9-5.7,2.9c-6,2.4-0.3,7.2,0.8,11c2.8,9,11.4,17,17.6,6.8c6.3-10.3-8.1-20.4,0.6-30.9
				c5.1-6.2,18.8,4.9,15.5-6.9c-0.9-3.4-15.1-18.3-7.3-20.5c0.4-0.1,0.6-0.9,0.8-2.1C806,401.8,757,376.8,704.2,372"/>
			<path class="st3" d="M824.4,507.6c-0.3,0-0.6,0-0.8-0.1c-5-0.6-9.1-6.7-10.7-12c-0.3-0.9-0.9-2-1.6-3.1c-1.2-2-2.5-4.2-1.8-6.1
				c0.4-1.1,1.3-2,2.9-2.6l0.1-0.1l0.1,0c2.2,0.1,3.8-0.7,5-2.4c-0.2-4-4.3-6-8.3-8c-3.2-1.5-6.1-3-7.4-5.4c-0.6-1.1,0.9-2,3.4-3.5
				c1.2-0.7,3.1-2,3.3-2.5c0.9-2.7-0.3-4.5-1.8-6.5c-0.8-1.2-1.6-2.4-2.1-3.8c-0.2-0.5-0.4-1.1-0.5-1.6c-2.3-6.9-5.2-15.6-13.4-14.3
				c-0.2,0-0.5,0.1-0.7,0.1c-5.6,0-11.7-10.2-17.6-20c-4.2-6.9-8.9-14.7-11.1-14l-0.4-1.3c6-1.9,6.9-3.1,7-3.6
				c0.1-1.4-4.6-3.4-9.5-5.6c-1.3-0.6-2.7-1.2-4.2-1.9c-3.8-1.8-41.5-13.7-46.8-14.9l-0.1,0.4l-0.9-0.5c-0.9-0.6-1.8-1.1-2.6-1.7
				l0.4-1.3c26.4,2.4,51.7,9.7,75.3,21.8c23.6,12.1,44.3,28.3,61.7,48.3l0.2,0.2l0,0.3c-0.2,1.7-0.6,2.5-1.3,2.7
				c-0.9,0.3-1.5,0.7-1.7,1.4c-1,2.8,3.3,8.9,6.2,13c1.7,2.3,3,4.2,3.3,5.3c0.8,2.8,0.7,4.5-0.3,5.6c-1.3,1.4-3.7,1-6.5,0.6
				c-3.2-0.5-6.9-1.1-8.9,1.3c-4.4,5.3-2.6,10.3-0.8,15.7c1.7,4.9,3.4,9.9,0.2,15.1C829.2,506.6,826.4,507.6,824.4,507.6z
				 M812.8,485.1c-1.1,0.5-1.8,1-2,1.7c-0.4,1.3,0.6,3.2,1.7,4.9c0.7,1.1,1.4,2.3,1.7,3.4c1.8,5.9,5.8,10.6,9.6,11
				c2.5,0.3,4.8-1.2,6.8-4.4c2.8-4.6,1.3-9.1-0.4-13.9c-1.9-5.5-3.8-11.2,1-17.1c2.5-3,6.8-2.3,10.2-1.8c2.3,0.4,4.5,0.7,5.2-0.2
				c0.6-0.6,0.6-2.1,0-4.3c-0.2-0.8-1.6-2.8-3.1-4.8c-3.4-4.8-7.6-10.8-6.4-14.2c0.4-1.1,1.2-1.8,2.6-2.2c0.1-0.1,0.2-0.4,0.4-1.3
				c-17.2-19.7-37.8-35.8-61.1-47.7c-22.6-11.5-46.7-18.7-71.9-21.3c0,0,0,0,0.1,0c1.3,0.2,5.6,1.3,22.4,6.6
				c10.9,3.5,23,7.4,25.3,8.5c1.5,0.7,2.9,1.3,4.2,1.9c6.5,2.9,10.4,4.6,10.3,6.9c-0.1,1.5-1.8,2.7-5.7,4.1
				c2.6,1.8,5.8,6.9,10.1,14.1c5.4,9,12.1,20.1,16.9,19.3c9.3-1.5,12.5,8.2,14.9,15.2c0.2,0.5,0.4,1.1,0.5,1.6
				c0.4,1.3,1.2,2.4,2,3.4c1.5,2.2,3.1,4.4,1.9,7.7c-0.3,0.9-1.7,1.8-3.9,3.2c-1,0.6-2.4,1.5-2.8,1.9c1.1,1.9,3.8,3.2,6.7,4.6
				c4.2,2,9,4.4,9,9.4l0,0.2l-0.1,0.2c-1.3,2.1-3.3,3.2-6,3.2C812.9,485.1,812.8,485.1,812.8,485.1z"/>
		</g>
		<g id="Path_27384">
			<path class="st69" d="M868.4,482.8L868.4,482.8c-1-1.9-11.1,9.2-13.2,10.4c-7.7,4.2-9.4-4.1-15.8,4.7c-1.1,1.6-12.8,17-12.9,15.3
				c0.2,5.7-2.2,11.4,0.6,16.9c2.5,4.9-3.4,9.4-3,14.6c0.5,6.8-5.8,11.5-4.2,18.3c1.4,5.9,4.9,10.2,4.9,16.5c0,10-1.8,14.6,6.2,21.8
				c5.2,4.6,11.9,20.6,21,11.6c1.7-1.7,18.3-15,17.3-16c5.9,6.3,0.7,2.2,9.1,1.8c2.3-0.1-1.7,57.7-5.2,56.3c0.6,0.2,1.3,0.2,1.9-0.1
				c1.9-4.6,3.7-9.3,5.2-14.1C897.9,588.7,893.6,531.7,868.4,482.8"/>
			<path class="st3" d="M874.2,655.8c-0.3,0-0.6,0-0.9-0.1c0,0-0.1,0-0.1,0l0.5-1.3c-0.1,0-0.2,0-0.3,0c1-0.8,2.8-10.5,4.1-27.4
				c1.2-14.6,1.3-25.7,0.8-27.7c-3.1,0.2-4,0.9-4.5,1.3c-1,0.8-1.5,0.4-2.8-1.2c-0.3-0.4-0.7-0.8-1.2-1.4c-1.3,1.7-5,5.1-13.2,12
				c-1.9,1.6-3.4,2.9-3.8,3.3c-2.1,2.1-4.3,3-6.5,2.9c-4.5-0.3-8.2-5.2-11.4-9.6c-1.5-1.9-2.8-3.8-4.1-4.9
				c-6.9-6.2-6.8-10.5-6.6-17.7c0-1.4,0.1-2.9,0.1-4.6c0-3.7-1.3-6.6-2.6-9.8c-0.9-2.1-1.8-4.2-2.3-6.6c-0.9-3.9,0.6-7.1,2-10.2
				c1.2-2.7,2.4-5.2,2.2-8.3c-0.2-2.4,0.9-4.7,1.9-6.8c1.2-2.6,2.4-5.1,1.2-7.6c-1.9-3.8-1.5-7.8-1-11.6c0.2-1.9,0.4-3.8,0.4-5.7
				c0,0,0,0,0,0l1.4-0.1c0-0.1-0.1-0.3-0.3-0.4c-0.2-0.1-0.4-0.1-0.5-0.1c1.3-0.6,9.8-11.6,12.4-15.2c3.9-5.4,6.4-4.8,9-4.1
				c1.9,0.5,3.9,0.9,7-0.8c0.7-0.4,2.4-2,4.3-3.8c5.3-5,7.8-7.1,9.1-6.9c0.4,0.1,0.6,0.3,0.8,0.6l-1.2,0.6c0,0,0,0,0,0c0,0,0,0,0,0
				l1.2-0.6c12.5,24.4,20,50.7,22.1,78.1c2.1,27.4-1.2,54.5-9.9,80.5c-1.6,4.8-3.4,9.5-5.3,14.1l-0.1,0.2l-0.2,0.1
				C875.2,655.7,874.7,655.8,874.2,655.8z M878.6,598c0.2,0,0.6,0.1,0.8,0.6c1.5,3.3-0.9,43-3.9,54.1c1.6-3.9,3.1-8,4.4-12.1
				c8.6-25.9,11.9-52.8,9.9-80c-2.1-27.1-9.4-53.2-21.8-77.4c-1.2,0.3-5.5,4.3-7.8,6.5c-2.3,2.2-3.8,3.6-4.5,4c-3.6,2-6,1.4-8,0.9
				c-2.5-0.6-4.2-1-7.6,3.6c-0.5,0.7-3.5,4.6-6.4,8.4c-3.9,4.9-5.5,6.6-6.3,7.1c0,1.8-0.2,3.5-0.4,5.2c-0.4,3.8-0.8,7.3,0.9,10.8
				c1.6,3.1,0.2,6-1.1,8.8c-0.9,2-1.9,4-1.8,6.1c0.2,3.4-1.1,6.2-2.3,8.9c-1.4,3-2.7,5.9-1.9,9.3c0.5,2.3,1.4,4.4,2.3,6.4
				c1.3,3.1,2.7,6.4,2.7,10.3c0,1.7,0,3.3-0.1,4.6c-0.2,7-0.3,10.8,6.1,16.6c1.3,1.2,2.7,3.1,4.2,5.1c3.1,4.1,6.5,8.7,10.4,9
				c1.8,0.1,3.6-0.7,5.4-2.5c0.5-0.5,1.9-1.7,3.9-3.4c4.2-3.5,12.8-10.8,13.2-12.1c0,0.1,0,0.3,0.1,0.4l1-0.9c0,0,0,0,0,0
				c0.9,0.9,1.5,1.6,2,2.1c0.4,0.4,0.7,0.8,0.9,1c0,0,0,0,0,0C873.5,599.1,874.7,598.2,878.6,598C878.5,598,878.5,598,878.6,598z"/>
		</g>
		<g id="Path_27385">
			<path class="st69" d="M772.4,674.8c0.1-5.9-11-11.4-17-11.2c-12.8,0.5-16.2-3.6-28.2-6.7c-10-2.6-8.5-19.6-23.7-20.4
				c-8.1-0.4-23.4-22.4-31.3-15.8c-5.3,4.4-15.5-7.3-19-7.4c-8.2-0.1-1.6,4.8-6.9-1.3c-3.5-4-13.2,4.4-15.2,6.8
				c-4,4.6-21.2-2.3-23.9-9c-1-2.4,4.6-11.8,0.5-18.6c-1.6-2.6-13-0.7-14.8-2.4c-2.4-2.3,6.1-10.8,5.2-12.6
				c-4-7.4-17.1,11.1-22.8-3.8c-4.6-12.1,1.4-16.7,2.6-28.4c0.6-5.5,9.9-8.2,14.5-6.2c7.3,3.2,6.3,0.2,11.8-0.4
				c4.4-0.5,9,4.5,13.2,5.2c5,0.9,1.6,14.8,6.2,18.1c2.7,1.9,2.7-18.7,2.8-19.2c3-8.4,15.9-7.6,18-14.6c5.1-17.3,16.8-16,31-22.1
				c6.8-2.9,23.5-6.3,27.7-12.9c7.9-12.4-12.8-30.8-18.3-39.5c-0.1-0.1-4.8,5.3-5.9,5.4c-4,0.2-7.8-22.5-15.5-9.5
				c-1.5,2.5-7.1,3.2-4,6.9c6.1,7.1-5.8,8.9-9.5,7.8c-3.8-1-22.2-11.7-15.7-17.7c13.2-12.2,16.2-5.9,30-5.9
				c15.7-0.1,16.3,14.7,29.3-1.1c3.6-4.4-19.9-16.9-15.3-22.5c16.4-19.6,25.5,24,31.6,31.5c9,11.1,14.8,5.2,14.1-7
				c-0.3-5.8,11.9-11.1,12.7-17.3c0.2-1.3-7.9-12.7-9.1-13.5c-4.2-2.7-5.2-5.6-7.4-8.3c-2.7-3.4-7.1,1.7-9.5-1.4
				c-1.1-1.4-21.8-0.6-24-0.6c-10.9-0.4-23-0.1-33.9,0.1c-4.5-0.2-28.2,11.4-28.9,1.9c-0.3-4.7,5.3-13-4.7-9.2
				c-3.2,1.2-5.3-0.6-4.6-0.7c-7,1.4-20,6.3-25.6,11.3c-3.1,2.8,4.3,4.1,4.8,6.4c1,4.6-10.6,13.1-13.2,16.1
				c-9.2,10.6-8.8,24.7-21.2,35c-14.3,11.9-15.1,29.3-15.2,45.7c-0.1,8-6.9,11.3-2.6,20.3c3.7,7.7,10.5,11.4,11.6,20.7
				c0.7,6.1-4.1,11.8-1.7,17.8c2.9,7.3,8.3,13.9,14.9,17.3c14.2,7.4,23.5,13,32.5,26.7c11.3,16.9,31.3,9.5,24.8,26.6
				c-2.8,7.2-9.8,10.6-12.7,18.3c-3.5,9.2,3.2,15.9,7.5,23.3c4.3,7.5,5.9,16.6,13.5,21.7c5.4,3.7,15.3,6.7,16.7,14.2
				c2.2,11.9-7.8,26.7-6.7,37.6c0.7,7.3,0.9,14.8,7.2,19.6c11.5,8.6,8.7-3.4,15.9-9c6.7-5.3,14.6-3.7,22.2-5.9
				c7-1.9-1.3-4.5,1.5-6.1c6-3.4,9.6,1.7,15.3-3.5c5.2-4.7,12.3-6,14.7-13.3c4-12,22-7.6,29.5-16.9c4.6-5.7,6.6-11.8,8.7-18.8
				C759.7,688,772.3,684,772.4,674.8L772.4,674.8"/>
			<path class="st3" d="M655.7,773.7c-1.7,0-3.8-1-6.7-3.1c-6.1-4.5-6.7-11.5-7.3-18.2c-0.1-0.6-0.1-1.2-0.2-1.9
				c-0.5-5.2,1.4-11.1,3.4-17.3c2.2-6.9,4.5-14,3.4-20.2c-1-5.3-6.6-8.3-11.6-11c-1.7-0.9-3.4-1.8-4.8-2.8
				c-5.4-3.7-7.9-9.3-10.3-14.8c-1-2.4-2.1-4.8-3.4-7.1c-0.8-1.5-1.8-2.9-2.7-4.3c-3.8-5.8-7.7-11.9-4.8-19.6c1.5-4,4.2-6.9,6.7-9.7
				c2.4-2.7,4.7-5.2,6-8.6c3.4-8.9-0.6-10.6-7.4-13.3c-5.5-2.2-12.2-5-17.3-12.6c-9.1-13.6-18.2-19.1-32.3-26.4
				c-6.6-3.5-12.3-10.1-15.2-17.7c-1.4-3.6-0.4-7,0.6-10.3c0.7-2.5,1.5-5.1,1.1-7.6c-0.7-5.6-3.4-9-6.4-12.7
				c-1.8-2.3-3.8-4.7-5.2-7.7c-2.8-5.8-1.1-9.5,0.5-13c1-2.3,2-4.6,2.1-7.6c0.1-17.7,1.4-34.5,15.5-46.2c6.9-5.7,9.8-12.7,12.6-19.5
				c2.2-5.3,4.4-10.7,8.5-15.4c0.7-0.8,2-1.9,3.4-3.3c3.8-3.4,10.2-9.2,9.6-12.2c-0.1-0.7-1.5-1.4-2.5-2.1c-1.5-0.9-2.9-1.7-3.1-3
				c-0.1-0.7,0.3-1.4,1-2c5.7-5.1,18.9-10,25.9-11.4l0.3,1.3c0.1,0,0.3-0.1,0.4-0.4c0.1-0.2,0-0.4,0-0.4c0.1,0.2,1.5,1.1,3.9,0.2
				c3.2-1.2,5.1-1.3,6.2-0.4c1.3,1.1,0.7,3.4,0.2,5.9c-0.4,1.5-0.7,3.1-0.7,4.3c0.1,1.1,0.5,1.8,1.2,2.3c3.3,2.2,12.4-0.7,19-2.8
				c3.7-1.2,6.5-2.1,8-2.1c2,0,4.1-0.1,6.3-0.1c9.3-0.2,18.8-0.3,27.7,0c0.3,0,0.9,0,1.8,0c17.9-0.5,22,0,22.7,0.9
				c0.9,1.1,2,0.8,3.8,0.4c1.8-0.5,4-1.1,5.7,1c0.6,0.8,1.2,1.6,1.7,2.4c1.3,2,2.6,3.9,5.6,5.8c1.2,0.7,9.6,12.4,9.4,14.1
				c-0.4,3.3-3.7,6.2-6.8,9c-3,2.7-6.1,5.5-6,8.2c0.4,7-1.3,12-4.6,13.3c-2.1,0.8-5.6,0.5-10.8-5.8c-1.7-2.1-3.5-6.6-5.6-11.8
				c-4-9.9-9.5-23.4-16.4-24.5c-2.7-0.4-5.6,1.2-8.6,4.7c-2,2.4,3.3,7.3,8.1,11.5c5,4.5,9.3,8.4,7.2,10.9
				c-8.4,10.2-12.1,8.1-17.2,5.2c-3.2-1.8-6.7-3.8-12.5-3.8c-0.1,0-0.2,0-0.3,0c-3.9,0-6.9-0.5-9.6-0.9c-6.6-1.1-10.5-1.7-19.7,6.7
				c-1,0.9-1.3,2-1,3.3c1.3,5.4,13.5,12.4,16.5,13.2c2.4,0.7,8.5,0,10-2.4c0.7-1.1,0.3-2.6-1.2-4.4c-0.9-1-1.2-1.9-1.1-2.8
				c0.2-1.4,1.5-2.2,2.7-3c0.9-0.6,1.8-1.2,2.2-1.9c1.8-3,3.5-4.4,5.3-4.4c3,0.1,5.1,4.2,7.1,8.2c1.2,2.4,2.7,5.3,3.6,5.3
				c0.7-0.2,3.5-3.2,4.5-4.2c1.2-1.3,1.2-1.2,1.6-1.2l0.3,0l0.2,0.3c1.3,2,3.4,4.6,5.8,7.6c7.9,9.6,18.8,22.9,12.5,32.7
				c-3.2,5-13,8.2-20.8,10.7c-2.9,0.9-5.4,1.7-7.3,2.5c-3.5,1.5-6.7,2.5-9.9,3.5c-9.5,3-17,5.4-20.7,18.2c-1.1,3.7-4.7,5.3-8.6,7.1
				c-3.9,1.7-7.9,3.5-9.4,7.6c0,0.2,0,1.1-0.1,2.1c-0.4,12.1-1,16.9-2.6,17.6c-0.4,0.2-0.9,0.2-1.3-0.1c-2.5-1.8-2.9-6-3.3-10.1
				c-0.3-3.8-0.7-7.5-2.7-7.8c-1.9-0.3-3.9-1.5-5.8-2.6c-2.4-1.4-4.9-2.8-7.2-2.6c-1.8,0.2-2.9,0.7-3.8,1.1
				c-2.1,0.9-3.6,1.4-8.3-0.7c-2.6-1.1-7-0.6-10.1,1.2c-1.4,0.8-3.2,2.3-3.4,4.4c-0.4,4.2-1.5,7.5-2.4,10.5
				c-1.8,5.6-3.1,9.9-0.2,17.6c1.1,2.8,2.4,4.5,4.1,5.2c2.7,1.1,6-0.3,9.1-1.8c3.7-1.7,7.5-3.4,9.5,0.3c0.6,1.1-0.4,2.7-2.4,5.6
				c-1.5,2.3-3.9,5.9-2.9,6.8c0.6,0.6,3.6,0.6,6,0.7c4,0.1,7.8,0.1,8.9,1.9c2.9,4.7,1.4,10.4,0.3,14.6c-0.4,1.7-0.9,3.5-0.7,4.1
				c1.7,4.3,10.2,8.8,16.4,9.8c3.1,0.5,5.3,0.1,6.3-1c1.5-1.8,8.4-8.1,13.2-8.1c0,0,0,0,0,0c1.3,0,2.3,0.4,3,1.3
				c0.9,1,1.4,1.7,1.8,2.2c0.8-0.7,2.3-1.1,4.6-1.1c1.5,0,3.6,1.5,6.2,3.4c4.2,3,9.4,6.7,12.4,4.2c5.2-4.2,12.5,1.9,19.7,7.9
				c4.5,3.7,9.1,7.6,12.2,7.8c9,0.4,12.4,6.4,15.4,11.8c2.2,3.9,4.3,7.6,8.4,8.6c4.1,1.1,7.3,2.3,10.1,3.3c5.4,2.1,9.6,3.7,17.9,3.3
				c4.5-0.2,11.1,2.6,14.8,6.1c1.9,1.9,2.9,3.8,2.9,5.7l-0.7,0l0.7,0c-0.1,5.4-4.1,9-7.9,12.5c-3.1,2.8-6.2,5.7-7.3,9.4
				c-2.2,7.3-4.2,13.3-8.8,19c-3.5,4.4-9.2,5.8-14.7,7.2c-6.5,1.7-12.7,3.2-14.7,9.5c-1.7,5.1-5.6,7.5-9.3,9.8
				c-1.9,1.2-3.8,2.3-5.5,3.9c-3.3,3-6.1,2.8-8.7,2.5c-2.1-0.2-4.2-0.4-6.7,1c-0.2,0.1-0.3,0.2-0.3,0.2c0,0.2,0.5,0.8,0.8,1.1
				c0.7,0.7,1.5,1.7,1.2,2.7c-0.3,0.9-1.3,1.6-3.3,2.1c-2.7,0.7-5.4,1-8.1,1.3c-5,0.5-9.7,1.1-13.9,4.4c-2.4,1.9-3.6,4.5-4.7,6.9
				c-1.2,2.5-2.2,4.7-4.3,5.2C656.4,773.6,656,773.7,655.7,773.7z M614.3,392.3c-6.9,1.5-19.2,6.2-24.6,11c-0.3,0.2-0.5,0.6-0.5,0.8
				c0.1,0.6,1.4,1.4,2.4,2c1.4,0.8,2.9,1.7,3.1,3c0.8,3.8-5.4,9.4-10,13.5c-1.4,1.3-2.7,2.4-3.3,3.2c-3.9,4.5-6,9.6-8.3,15
				c-2.9,6.9-5.8,14.1-13,20.1c-13.6,11.3-14.8,27.2-15,45.2c0,3.3-1.1,5.7-2.2,8.1c-1.6,3.6-3,6.7-0.5,11.9c1.4,2.9,3.2,5.2,5,7.5
				c2.9,3.7,5.9,7.5,6.7,13.4c0.3,2.8-0.4,5.6-1.2,8.2c-0.9,3.2-1.8,6.3-0.6,9.4c2.9,7.3,8.3,13.7,14.6,17
				c14.2,7.5,23.5,13,32.8,26.9c4.9,7.3,11.4,10,16.7,12.1c6.7,2.8,12.1,4.9,8.1,15.1c-1.4,3.6-3.9,6.4-6.3,9
				c-2.5,2.7-5,5.5-6.4,9.3c-2.7,7.1,0.9,12.5,4.7,18.3c0.9,1.4,1.9,2.9,2.7,4.4c1.3,2.3,2.4,4.8,3.5,7.2c2.4,5.5,4.7,10.8,9.8,14.2
				c1.3,0.9,3,1.8,4.7,2.7c5.2,2.8,11.2,6,12.3,11.9c1.2,6.5-1.1,13.8-3.4,20.9c-2,6.1-3.8,11.9-3.3,16.8c0.1,0.6,0.1,1.2,0.2,1.9
				c0.6,6.7,1.2,13.1,6.8,17.2c3,2.2,5.1,3.1,6.5,2.8c1.5-0.4,2.3-2.2,3.4-4.5c1.2-2.5,2.5-5.3,5.1-7.4c4.5-3.6,9.6-4.2,14.6-4.7
				c2.6-0.3,5.3-0.6,7.8-1.3c2-0.6,2.3-1.1,2.4-1.2c0.1-0.3-0.5-1-0.9-1.4c-0.6-0.7-1.2-1.4-1.1-2.2c0.1-0.5,0.4-0.9,0.9-1.2
				c2.9-1.6,5.4-1.4,7.5-1.2c2.6,0.2,4.8,0.4,7.7-2.2c1.8-1.6,3.8-2.8,5.7-4c3.7-2.3,7.2-4.4,8.8-9c2.3-6.9,9.1-8.7,15.7-10.4
				c5.3-1.3,10.7-2.7,14-6.8c4.5-5.6,6.5-11.4,8.6-18.6c1.2-4,4.5-7.1,7.7-10c3.8-3.5,7.4-6.8,7.5-11.5c0-1.5-0.8-3.2-2.5-4.7
				c-3.4-3.3-9.7-5.9-13.8-5.7c-8.6,0.3-13.1-1.4-18.4-3.4c-2.8-1.1-5.9-2.2-9.9-3.3c-4.6-1.2-6.8-5.1-9.2-9.3
				c-3-5.2-6.1-10.7-14.3-11.1c-3.5-0.2-8.1-4-13-8.1c-6.7-5.6-13.6-11.4-17.9-7.9c-3.8,3.1-9.5-0.9-14.1-4.1
				c-2.1-1.5-4.3-3.1-5.4-3.1c-2.7,0-3.5,0.5-3.7,0.7c-0.1,0.1-0.1,0.2-0.1,0.3c0,0.5-0.4,0.7-0.5,0.7c-0.2,0.1-0.6,0.1-0.8-0.4
				c-0.4-0.7-1.2-1.7-2.3-2.9c-0.5-0.6-1.2-0.8-2-0.8c-3.9,0-10.4,5.6-12.2,7.6c-1.3,1.6-4,2.1-7.6,1.5c-6.6-1.1-15.5-5.9-17.4-10.7
				c-0.4-1,0-2.7,0.6-4.9c1-3.9,2.4-9.3-0.1-13.5c-0.7-1.1-4.8-1.2-7.7-1.2c-3.7-0.1-6-0.1-6.9-1.1c-1.8-1.7,0.5-5.2,2.7-8.6
				c1-1.5,2.4-3.7,2.3-4.2c-1.3-2.4-3.8-1.4-7.7,0.3c-3.3,1.5-7,3.1-10.2,1.8c-2.1-0.9-3.7-2.8-4.9-5.9c-3.1-8.1-1.6-12.9,0.2-18.5
				c1-3,1.9-6.2,2.4-10.2c0.2-2.1,1.7-4.1,4.1-5.5c3.5-2,8.4-2.6,11.4-1.3c4.5,2,5.5,1.5,7.2,0.7c1-0.4,2.2-1,4.2-1.2
				c2.7-0.3,5.4,1.3,8,2.8c1.9,1.1,3.7,2.1,5.4,2.4c3.1,0.5,3.4,4.7,3.8,9.1c0.3,3.7,0.7,7.6,2.6,9.1c0.6-0.7,1.4-4.2,1.7-16.4
				c0.1-2.1,0.1-2.3,0.1-2.5c1.6-4.6,6.1-6.6,10.1-8.4c3.6-1.6,7-3.1,7.9-6.2c4-13.5,11.8-15.9,21.6-19.1c3.1-1,6.4-2,9.8-3.5
				c1.9-0.8,4.4-1.6,7.4-2.6c7.6-2.4,17.1-5.5,20-10.1c5.8-9-4.7-21.8-12.4-31.1c-2.2-2.7-4.1-5-5.4-7c-0.1,0.1-0.2,0.3-0.4,0.4
				c-3.3,3.4-4.6,4.6-5.4,4.6c-1.8,0.1-3.2-2.6-4.9-6.1c-1.6-3.3-3.7-7.4-5.9-7.4c-1.2,0-2.6,1.2-4.1,3.7c-0.6,1-1.6,1.7-2.6,2.3
				c-1,0.7-2,1.3-2.1,2.1c-0.1,0.4,0.2,1,0.8,1.7c2.4,2.8,2.1,4.8,1.3,6c-2,3.2-9,3.6-11.5,3c-3-0.8-16-8-17.5-14.2
				c-0.4-1.8,0.1-3.3,1.4-4.6c9.7-8.9,14.1-8.2,20.9-7c2.7,0.4,5.7,0.9,9.6,0.9c0,0,0.1,0,0.1,0c6.2,0,10.1,2.2,13.2,4
				c4.9,2.8,7.8,4.5,15.5-4.9c1.3-1.5-3.4-5.7-7.1-9c-5.5-4.9-11.1-10-8.2-13.4c3.3-4,6.6-5.7,9.9-5.2c7.6,1.2,13.1,14.6,17.4,25.3
				c2.1,5.1,3.9,9.5,5.4,11.4c3.6,4.4,6.8,6.3,9.2,5.4c2.6-1,4.1-5.6,3.7-11.9c-0.2-3.3,3-6.2,6.4-9.3c2.9-2.6,5.9-5.4,6.3-8.1
				c-0.3-1.6-7.7-12.1-8.8-12.9c-3.2-2-4.6-4.2-6-6.2c-0.5-0.8-1-1.5-1.6-2.3c-1.1-1.3-2.3-1.1-4.3-0.5c-1.7,0.5-3.7,1-5.2-0.8
				c-0.7-0.4-5.1-0.9-21.7-0.4c-0.9,0-1.5,0-1.8,0c-8.8-0.3-18.4-0.2-27.6,0c-2.1,0-4.3,0.1-6.3,0.1c-1.2,0-4.3,0.9-7.5,2
				c-7.3,2.4-16.4,5.3-20.2,2.7c-1.1-0.7-1.7-1.9-1.8-3.4c-0.1-1.4,0.3-3.1,0.7-4.7c0.4-1.8,0.9-3.9,0.3-4.5
				c-0.3-0.3-1.4-0.6-4.8,0.7c-2.7,1-4.6,0.2-5.3-0.4C614.4,392.4,614.3,392.3,614.3,392.3z M679,457.1L679,457.1L679,457.1z
				 M736.3,423.1C736.3,423.1,736.3,423.1,736.3,423.1C736.3,423.1,736.3,423.1,736.3,423.1z M710.5,400.4
				C710.5,400.4,710.5,400.4,710.5,400.4C710.5,400.4,710.5,400.4,710.5,400.4z"/>
		</g>
		<g id="Path_27434">
			<path class="st3" d="M860.2,793.4c-17.2,0-33.4-3.3-48.4-10c-48.5-21.4-70.6-70.8-76.2-85.4c0-0.1-0.1-0.2-0.1-0.3
				c-0.4-0.1-0.7-0.4-0.9-0.8c-1.1-2.8-1.7-4.4-1.7-4.4c-0.2-0.8,0.2-1.5,0.9-1.8c0.4-0.1,0.8-0.1,1.1,0.1c0.3,0.2,0.6,0.5,0.7,0.8
				c0,0,0.5,1.5,1.6,4.2c0.1,0.2,0.1,0.4,0.1,0.5c0,0.5-0.2,0.9-0.6,1.1c0,0,0,0,0,0.1c5.6,14.5,27.5,63.5,75.5,84.6
				c31.9,14.1,69.1,13,110.4-3.1c32.1-12.5,54.5-29.3,66.8-49.9c10.4-17.3,13-36.9,7.6-56.4c-6-21.8-21.1-40.5-39-51.3
				c-2.7,8-6.1,14.9-10,20.5c-6.3,9.1-13.6,15.2-21.5,18.1c-6.8,2.5-13.9,2.6-20.5,0.2c-11.6-4.3-19.6-15.5-18.6-26.3
				c1.1-11.6,12-20,29.9-23c13.2-2.2,27.2,1.2,39.9,8.5c9.6-29.5,10-72.7-7.2-115.9c-13.9-34.9-37.1-65.2-69-90.1
				c-37.8-29.5-86.9-50.7-146.1-62.8l0.3-1.3c59.4,12.2,108.7,33.4,146.6,63.1c32.1,25.1,55.4,55.6,69.4,90.7
				c17.4,43.6,16.9,87.3,7.1,117.1c18.3,10.9,33.7,30,39.9,52.2c5.5,20,2.8,39.8-7.7,57.5c-5.9,9.9-14.3,19.1-25,27.3
				c-11.5,8.9-25.8,16.7-42.5,23.2C901,789,879.9,793.4,860.2,793.4z M734.4,692C734.4,692,734.3,692,734.4,692
				C734.3,692,734.3,692,734.4,692c-0.1,0.1,0.4,1.6,1.5,4.4c0,0,0,0,0.1,0v0c0,0,0.1,0,0.1-0.1C734.9,693.6,734.4,692,734.4,692
				C734.4,692,734.4,692,734.4,692z M925.6,611.6c-2.7,0-5.3,0.2-7.9,0.6c-17.3,2.9-27.7,10.8-28.8,21.7c-1,10.1,6.6,20.8,17.7,24.9
				c6.3,2.3,13.1,2.3,19.5-0.2c7.6-2.8,14.6-8.8,20.8-17.6c3.9-5.6,7.3-12.5,10-20.4C947,614.9,936.2,611.6,925.6,611.6z"/>
		</g>
		<g id="Path_27483">
			<path class="st3" d="M514.9,819.1c-4.9,1.7-9.9,2.9-15.1,3.6c-11.4,1.6-23.5,0.7-35.9-2.6c-22-5.8-36.5-16.9-43.2-33
				c-13.7-32.9,9.2-76.8,16.5-89.4c0.1-0.1,0.1-0.2,0.2-0.3c-0.1-0.2,0-0.5,0.1-0.8c1.1-2,1.8-3.1,1.9-3.2c0.3-0.5,0.8-0.7,1.3-0.6
				l0.1,0c0.2,0.1,0.4,0.3,0.5,0.5c0.1,0.3,0,0.6-0.1,0.9l0,0c0,0,0,0,0,0c-0.5,0.8-1.1,1.9-1.8,3c-0.2,0.4-0.6,0.7-1.1,0.7
				c0,0.1-0.1,0.1-0.1,0.2c-6,10.4-11.3,22.2-14.9,33.2c-7.1,22-7.7,40.6-1.6,55.3c6.5,15.8,20.8,26.7,42.5,32.4
				c12.3,3.2,24.2,4.1,35.5,2.6c10.2-1.4,19.9-4.8,28.7-10c15.5-9.2,28.1-23.8,35.5-41.2c4.3-10.2,6.4-20.7,6-29.7
				c-5.5,3.5-10.8,6.2-15.7,7.9c-17,6.2-23.5,0.9-25.9-2.8c-4.2-6.4-1.9-17.5,5.1-24.7c3.3-3.4,7.2-5.5,11.5-6.2
				c4.9-0.8,9.9,0.3,15,3.4c6.3,3.8,10.1,10.9,11,20.5c10.5-6.8,21.7-16.3,32.2-27.4c13.9-14.7,33.1-39.1,45.6-71.8
				c8.7-22.8,12.7-45.9,11.9-68.9c-0.9-26.2-8.2-52.2-21.6-77.1l0.9-0.5c13.5,25,20.7,51.1,21.7,77.5c0.8,23.1-3.2,46.4-11.9,69.3
				c-12.5,32.9-31.8,57.4-45.8,72.2c-10.7,11.3-22.2,21-32.9,27.9c0.6,9.2-1.5,20.1-6,30.7c-7.5,17.6-20.2,32.4-35.9,41.7
				C524.5,815.2,519.8,817.4,514.9,819.1z M542.1,716.8c-3.8,1.3-6.5,3.6-8,5.2c-6.6,6.9-8.9,17.3-4.9,23.4
				c2.2,3.4,8.4,8.3,24.7,2.4c4.9-1.8,10.3-4.6,15.9-8.1c0,0,0,0,0,0c-0.8-9.5-4.4-16.5-10.5-20.2
				C552.3,715.1,546.5,715.3,542.1,716.8z"/>
		</g>
		<g id="Path_27454">
			<path class="st3" d="M890.9,283.1l-3.8,19.9l-17,3.1L887,309l3.6,17.5l3.9-17.4l17.5-2.6l-17.7-3.7L890.9,283.1z"/>
		</g>
		<g id="Path_27455">
			<path class="st69" d="M1000.4,640.7l-6.3,33l-28.2,5.2l27.9,4.8l6,29l6.5-28.8l29-4.3l-29.3-6.2L1000.4,640.7z"/>
		</g>
		<g id="Path_27456">
			<path class="st70" d="M956.9,267L956.9,267c10.7,0,19.3-8.7,19.3-19.3c0-10.7-8.7-19.3-19.3-19.3c-10.7,0-19.3,8.7-19.3,19.3
				C937.6,258.3,946.2,267,956.9,267z"/>
			<path class="st3" d="M956.9,267.4c-10.9,0-19.8-8.9-19.8-19.8c0-10.9,8.9-19.8,19.8-19.8c0,0,0,0,0,0c5.3,0,10.3,2.1,14,5.8
				c3.7,3.7,5.8,8.7,5.8,14c0,5.3-2.1,10.3-5.8,14C967.2,265.4,962.2,267.4,956.9,267.4L956.9,267.4
				C956.9,267.4,956.9,267.4,956.9,267.4z M956.9,228.7C956.9,228.7,956.9,228.7,956.9,228.7c-10.4,0-18.9,8.5-18.9,18.9
				c0,10.4,8.5,18.9,18.9,18.9c0,0,0,0,0,0l0,0c5,0,9.8-2,13.3-5.5c3.6-3.6,5.5-8.3,5.5-13.4c0-5-2-9.8-5.5-13.3
				C966.7,230.7,962,228.7,956.9,228.7z"/>
		</g>
		<g id="Path_27457">
			<path class="st71" d="M591.5,843.2L591.5,843.2c13.9,0,25.1-11.3,25.1-25.1c0-13.9-11.3-25.1-25.1-25.1
				c-13.9,0-25.1,11.3-25.1,25.1C566.4,832,577.7,843.2,591.5,843.2z"/>
			<path class="st3" d="M591.5,843.7c-6.8,0-13.3-2.7-18.1-7.5c-4.8-4.8-7.5-11.3-7.5-18.1c0-14.1,11.5-25.6,25.6-25.6c0,0,0,0,0,0
				c6.8,0,13.3,2.7,18.1,7.5c4.8,4.8,7.5,11.3,7.5,18.1c0,6.8-2.7,13.3-7.5,18.1C604.8,841,598.4,843.7,591.5,843.7L591.5,843.7
				C591.5,843.7,591.5,843.7,591.5,843.7z M591.5,793.4C591.5,793.4,591.5,793.4,591.5,793.4c-13.6,0-24.7,11.1-24.7,24.7
				c0,6.6,2.6,12.8,7.2,17.4c4.7,4.7,10.9,7.2,17.4,7.2c0,0,0,0,0,0l0,0c6.6,0,12.8-2.6,17.4-7.2s7.2-10.9,7.2-17.4
				C616.2,804.5,605.1,793.4,591.5,793.4z"/>
		</g>
		<g id="Group_15887" transform="translate(1525.573 315.429)">
			<g>
				<defs>
					<rect id="SVGID_00000058562973643936096660000012946833719640595605_" x="-842.6" y="-41.3" width="359.5" height="297.1"/>
				</defs>
				<clipPath id="SVGID_00000164478076008898878640000006818825479653577911_">
					<use xlink:href="#SVGID_00000058562973643936096660000012946833719640595605_"  style="overflow:visible;"/>
				</clipPath>
				<g id="Group_15886" style="clip-path:url(#SVGID_00000164478076008898878640000006818825479653577911_);">
					<g id="Path_27480">
						<path class="st3" d="M-650.7,256.3l-0.4-1.3c32.6-9.5,54.1-24.9,63.8-45.9c8-17.3,6.3-34.6,3.4-46.1
							c-3.4-13.7-4.8-27.8-4.1-41.9c0.7-15.8,2.7-28.9,5.7-39.8c-9-8-16.2-18.9-21.4-32.7c-2.4-6.2-4.9-12.1-7.4-17.5
							C-624.1,3-647-19.1-675.6-31c-28.7-12-60.4-12.5-89.3-1.5C-782.8-25.7-798-15.1-810-0.9c-9.6,11.4-17.3,25-22.7,40.6
							c-9.3,26.5-8.9,49.8-8.9,50l-1.4,0c0-0.2-0.4-23.7,9-50.4c5.5-15.7,13.2-29.5,22.9-41c12.2-14.4,27.5-25.2,45.7-32
							c29.2-11.1,61.3-10.5,90.3,1.6c28.9,12,52.1,34.4,65.3,62.9c2.5,5.4,5,11.3,7.4,17.6c5.5,14.5,12.7,24.6,20.5,31.7
							c7.9-27.8,21.7-40.7,33.6-46.5c8.6-4.2,18.4-5.8,28.4-4.6c8.7,1.1,17.3,4.3,24.2,9.2c8.9,6.3,13.8,14.4,13,21.7
							c-0.9,8-6.6,16.3-16,23.3c-9.5,7-21.4,11.7-33.7,13.3c-14.3,1.8-28.1-0.8-39.7-7.5c-3.1-1.8-6.1-3.9-8.9-6.3
							c-2.8,10.7-4.8,23.5-5.4,38.8c-0.6,14,0.7,27.9,4.1,41.5c2.9,11.7,4.7,29.3-3.5,47C-595.9,231-617.7,246.7-650.7,256.3z
							 M-580.7,80.9c17.6,15.3,37.9,15.2,48.1,13.9c24.5-3.1,46.7-19.3,48.5-35.3c0.8-6.8-3.9-14.5-12.4-20.5
							c-6.7-4.7-15-7.9-23.6-8.9c-9.7-1.2-19.2,0.4-27.6,4.5C-559.4,40.4-573,53.2-580.7,80.9z"/>
					</g>
				</g>
			</g>
		</g>
		<g id="Group_15889" transform="translate(975.596 294.481)">
			<g>
				<defs>
					<rect id="SVGID_00000011733371802533711650000010043134237828474039_" x="-544" y="-29.9" width="199.9" height="234.2"/>
				</defs>
				<clipPath id="SVGID_00000147201972649046669360000001392718611072229291_">
					<use xlink:href="#SVGID_00000011733371802533711650000010043134237828474039_"  style="overflow:visible;"/>
				</clipPath>
				<g id="Group_15888" style="clip-path:url(#SVGID_00000147201972649046669360000001392718611072229291_);">
					<g id="Path_27481">
						<path class="st3" d="M-359.2,200.7c-2.9,0-6.2-0.1-9.7-0.4c-12.2-1-29.8-4.6-44-15.8c-14.8-11.7-23.3-29.4-25-52.6l0-0.1
							l0-0.1c0.1-0.3,9-30.8-2.5-45.5c-4.5-5.7-11.5-8.3-20.9-7.9c-1.2,0.1-2.4,0.1-3.6,0.1c-22,0-49.3-9.4-64.1-31.2
							c-9.5-14-17.2-38.8,0.3-77.2l1.2,0.6c-13.6,29.9-13.8,56.2-0.4,75.8c15.3,22.6,44.5,31.6,66.6,30.5c9.8-0.5,17.3,2.3,22,8.4
							c6.3,8,6.7,20.3,5.9,29.2c-0.8,8.9-2.8,16.3-3.1,17.4c1.8,22.7,10,40,24.5,51.5c26.7,21.1,65.9,15.2,66.3,15.1l0.2,1.4
							C-345.6,199.8-351.1,200.7-359.2,200.7z"/>
					</g>
				</g>
			</g>
		</g>
		<g id="Path_27453">
			<path class="st69" d="M448.7,228.3l-8.1,42.1l-35.9,6.6l35.6,6.1l7.6,37l8.3-36.7l36.9-5.4l-37.3-7.8L448.7,228.3z"/>
		</g>
		<g id="Path_27482">
			<path class="st3" d="M437.3,672.7l-4.6,23.7l-20.2,3.7l20.1,3.4l4.3,20.9l4.7-20.7l20.8-3.1l-21.1-4.4L437.3,672.7z"/>
		</g>
	</g>
</g>
</svg>
