<?xml version="1.0" encoding="utf-8"?>
<!-- Generator: Adobe Illustrator 26.2.1, SVG Export Plug-In . SVG Version: 6.00 Build 0)  -->
<svg version="1.1" id="Layer_1" xmlns="http://www.w3.org/2000/svg" xmlns:xlink="http://www.w3.org/1999/xlink" x="0px" y="0px"
	 viewBox="0 0 438 438" style="enable-background:new 0 0 438 438;" xml:space="preserve">
<style type="text/css">
	.st0{fill:none;}
	.st1{fill:#87E5A7;}
</style>
<g id="Ellipse_20">
	<g>
		<circle class="st0" cx="219" cy="219" r="219"/>
	</g>
	<g>
		<path class="st1" d="M219,438c-58.5,0-113.5-22.8-154.9-64.1S0,277.5,0,219c0-58.5,22.8-113.5,64.1-154.9S160.5,0,219,0
			s113.5,22.8,154.9,64.1C415.2,105.5,438,160.5,438,219c0,58.5-22.8,113.5-64.1,154.9C332.5,415.2,277.5,438,219,438z M219,110
			c-60.1,0-109,48.9-109,109c0,60.1,48.9,109,109,109c60.1,0,109-48.9,109-109C328,158.9,279.1,110,219,110z"/>
	</g>
</g>
</svg>
