<?xml version="1.0" encoding="UTF-8"?>
<svg id="Layer_1" data-name="Layer 1" xmlns="http://www.w3.org/2000/svg" xmlns:xlink="http://www.w3.org/1999/xlink" viewBox="0 0 98 72">
  <defs>
    <style>
      .cls-1 {
        fill: none;
      }

      .cls-2 {
        clip-path: url(#clippath);
      }

      .cls-3 {
        fill: #fff;
      }

      .cls-4 {
        fill: #325ccc;
      }

      .cls-5 {
        fill: #325ccd;
      }

      .cls-6 {
        fill: #3158c5;
      }

      .cls-7 {
        fill: #325bca;
      }

      .cls-8 {
        fill: #325bcb;
      }

      .cls-9 {
        fill: #3159c6;
      }

      .cls-10 {
        fill: #3159c7;
      }

      .cls-11 {
        fill: #315ac9;
      }

      .cls-12 {
        fill: #315ac8;
      }

      .cls-13 {
        fill: #335ed1;
      }

      .cls-14 {
        fill: #335ed0;
      }

      .cls-15 {
        fill: #335dce;
      }

      .cls-16 {
        fill: #335dcf;
      }

      .cls-17 {
        fill: #335dd0;
      }

      .cls-18 {
        fill: #2f56c0;
      }

      .cls-19 {
        fill: #2f56bf;
      }

      .cls-20 {
        fill: #2f55bd;
      }

      .cls-21 {
        fill: #2f55be;
      }

      .cls-22 {
        fill: #213b84;
      }

      .cls-23 {
        fill: #213b83;
      }

      .cls-24 {
        fill: #254496;
      }

      .cls-25 {
        fill: #254395;
      }

      .cls-26 {
        fill: #254394;
      }

      .cls-27 {
        fill: #254293;
      }

      .cls-28 {
        fill: #203a81;
      }

      .cls-29 {
        fill: #203b82;
      }

      .cls-30 {
        fill: #20397f;
      }

      .cls-31 {
        fill: #203a80;
      }

      .cls-32 {
        fill: #1f387c;
      }

      .cls-33 {
        fill: #1f387d;
      }

      .cls-34 {
        fill: #1f377b;
      }

      .cls-35 {
        fill: #1f397e;
      }

      .cls-36 {
        fill: #1e377a;
      }

      .cls-37 {
        fill: #1e3678;
      }

      .cls-38 {
        fill: #1e3679;
      }

      .cls-39 {
        fill: #244191;
      }

      .cls-40 {
        fill: #244190;
      }

      .cls-41 {
        fill: #24408f;
      }

      .cls-42 {
        fill: #244292;
      }

      .cls-43 {
        fill: #23408e;
      }

      .cls-44 {
        fill: #23408d;
      }

      .cls-45 {
        fill: #233f8c;
      }

      .cls-46 {
        fill: #233f8b;
      }

      .cls-47 {
        fill: #223e89;
      }

      .cls-48 {
        fill: #223d87;
      }

      .cls-49 {
        fill: #223d88;
      }

      .cls-50 {
        fill: #223e8a;
      }

      .cls-51 {
        fill: #213c86;
      }

      .cls-52 {
        fill: #213c85;
      }

      .cls-53 {
        fill: #3663dc;
      }

      .cls-54 {
        fill: #3663dd;
      }

      .cls-55 {
        fill: #3662db;
      }

      .cls-56 {
        fill: #3662da;
      }

      .cls-57 {
        fill: #3765e0;
      }

      .cls-58 {
        fill: #3765e1;
      }

      .cls-59 {
        fill: #3764df;
      }

      .cls-60 {
        fill: #3764de;
      }

      .cls-61 {
        fill: #3561d7;
      }

      .cls-62 {
        fill: #3561d8;
      }

      .cls-63 {
        fill: #3560d6;
      }

      .cls-64 {
        fill: #3562d9;
      }

      .cls-65 {
        fill: #2849a2;
      }

      .cls-66 {
        fill: #2849a1;
      }

      .cls-67 {
        fill: #284aa3;
      }

      .cls-68 {
        fill: #28489f;
      }

      .cls-69 {
        fill: #2848a0;
      }

      .cls-70 {
        fill: #2a4daa;
      }

      .cls-71 {
        fill: #2a4dab;
      }

      .cls-72 {
        fill: #2a4ca8;
      }

      .cls-73 {
        fill: #2a4ca9;
      }

      .cls-74 {
        fill: #2c4fb0;
      }

      .cls-75 {
        fill: #2c50b1;
      }

      .cls-76 {
        fill: #2c50b2;
      }

      .cls-77 {
        fill: #2c51b3;
      }

      .cls-78 {
        fill: #294ba6;
      }

      .cls-79 {
        fill: #294ba7;
      }

      .cls-80 {
        fill: #294aa5;
      }

      .cls-81 {
        fill: #294aa4;
      }

      .cls-82 {
        fill: #2b4ead;
      }

      .cls-83 {
        fill: #2b4eac;
      }

      .cls-84 {
        fill: #2b4fae;
      }

      .cls-85 {
        fill: #2b4faf;
      }

      .cls-86 {
        fill: #3969e9;
      }

      .cls-87 {
        fill: #2d52b7;
      }

      .cls-88 {
        fill: #2d52b6;
      }

      .cls-89 {
        fill: #2d51b5;
      }

      .cls-90 {
        fill: #2e54bb;
      }

      .cls-91 {
        fill: #2e54bc;
      }

      .cls-92 {
        fill: #2e53b9;
      }

      .cls-93 {
        fill: #2e53ba;
      }

      .cls-94 {
        fill: #3866e2;
      }

      .cls-95 {
        fill: #3866e3;
      }

      .cls-96 {
        fill: #3058c4;
      }

      .cls-97 {
        fill: #3058c3;
      }

      .cls-98 {
        fill: #3867e5;
      }

      .cls-99 {
        fill: #3867e4;
      }

      .cls-100 {
        fill: #3057c1;
      }

      .cls-101 {
        fill: #3057c2;
      }

      .cls-102 {
        fill: #3a69ea;
      }

      .cls-103 {
        fill: #3a6aec;
      }

      .cls-104 {
        fill: #3a6aeb;
      }

      .cls-105 {
        fill: #3a6bed;
      }

      .cls-106 {
        fill: #3460d5;
      }

      .cls-107 {
        fill: #264497;
      }

      .cls-108 {
        fill: #264598;
      }

      .cls-109 {
        fill: #26459a;
      }

      .cls-110 {
        fill: #264599;
      }

      .cls-111 {
        fill: #3968e7;
      }

      .cls-112 {
        fill: #3967e6;
      }

      .cls-113 {
        fill: #3968e8;
      }

      .cls-114 {
        fill: #3b6cef;
      }

      .cls-115 {
        fill: #3b6cf0;
      }

      .cls-116 {
        fill: #3b6bee;
      }

      .cls-117 {
        fill: #2d53b8;
      }

      .cls-118 {
        fill: #345fd4;
      }

      .cls-119 {
        fill: #345fd3;
      }

      .cls-120 {
        fill: #345ed2;
      }

      .cls-121 {
        fill: #27469c;
      }

      .cls-122 {
        fill: #27469b;
      }

      .cls-123 {
        fill: #27479d;
      }

      .cls-124 {
        fill: #27479e;
      }
    </style>
    <clipPath id="clippath">
      <rect class="cls-1" x="4.87" y="9.23" width="87.8" height="61.97"/>
    </clipPath>
  </defs>
  <g id="Group_14821" data-name="Group 14821">
    <g id="Group_14625" data-name="Group 14625">
      <g id="Rectangle_7628" data-name="Rectangle 7628">
        <path class="cls-3" d="m56.7,18.58h-19.8c-1.38,0-2.51-1.13-2.51-2.51V3.3c0-1.38,1.13-2.51,2.51-2.51h19.8c1.38,0,2.51,1.13,2.51,2.51v12.76c0,1.38-1.13,2.51-2.51,2.51ZM36.91,1.8c-.83,0-1.51.68-1.51,1.51v12.76c0,.83.68,1.51,1.51,1.51h19.8c.83,0,1.51-.68,1.51-1.51V3.3c0-.83-.68-1.51-1.51-1.51h-19.8Z"/>
      </g>
      <g id="Rectangle_7626" data-name="Rectangle 7626">
        <g class="cls-2">
          <rect class="cls-115" x="4.87" y="9.23" width="87.8" height=".52"/>
          <rect class="cls-114" x="4.87" y="9.75" width="87.8" height=".52"/>
          <rect class="cls-116" x="4.87" y="10.27" width="87.8" height=".52"/>
          <rect class="cls-105" x="4.87" y="10.78" width="87.8" height=".52"/>
          <rect class="cls-103" x="4.87" y="11.3" width="87.8" height=".52"/>
          <rect class="cls-104" x="4.87" y="11.82" width="87.8" height=".52"/>
          <rect class="cls-102" x="4.87" y="12.33" width="87.8" height=".52"/>
          <rect class="cls-86" x="4.87" y="12.85" width="87.8" height=".52"/>
          <rect class="cls-113" x="4.87" y="13.36" width="87.8" height=".52"/>
          <rect class="cls-111" x="4.87" y="13.88" width="87.8" height=".52"/>
          <rect class="cls-112" x="4.87" y="14.4" width="87.8" height=".52"/>
          <rect class="cls-98" x="4.87" y="14.91" width="87.8" height=".52"/>
          <rect class="cls-99" x="4.87" y="15.43" width="87.8" height=".52"/>
          <rect class="cls-95" x="4.87" y="15.95" width="87.8" height=".52"/>
          <rect class="cls-94" x="4.87" y="16.46" width="87.8" height=".52"/>
          <rect class="cls-58" x="4.87" y="16.98" width="87.8" height=".52"/>
          <rect class="cls-57" x="4.87" y="17.5" width="87.8" height=".52"/>
          <rect class="cls-59" x="4.87" y="18.01" width="87.8" height=".52"/>
          <rect class="cls-60" x="4.87" y="18.53" width="87.8" height=".52"/>
          <rect class="cls-54" x="4.87" y="19.05" width="87.8" height=".52"/>
          <rect class="cls-53" x="4.87" y="19.56" width="87.8" height=".52"/>
          <rect class="cls-55" x="4.87" y="20.08" width="87.8" height=".52"/>
          <rect class="cls-56" x="4.87" y="20.6" width="87.8" height=".52"/>
          <rect class="cls-64" x="4.87" y="21.11" width="87.8" height=".52"/>
          <rect class="cls-62" x="4.87" y="21.63" width="87.8" height=".52"/>
          <rect class="cls-61" x="4.87" y="22.14" width="87.8" height=".52"/>
          <rect class="cls-63" x="4.87" y="22.66" width="87.8" height=".52"/>
          <rect class="cls-106" x="4.87" y="23.18" width="87.8" height=".52"/>
          <rect class="cls-118" x="4.87" y="23.69" width="87.8" height=".52"/>
          <rect class="cls-119" x="4.87" y="24.21" width="87.8" height=".52"/>
          <rect class="cls-120" x="4.87" y="24.73" width="87.8" height=".52"/>
          <rect class="cls-13" x="4.87" y="25.24" width="87.8" height=".52"/>
          <rect class="cls-17" x="4.87" y="25.76" width="87.8" height=".52"/>
          <rect class="cls-16" x="4.87" y="26.28" width="87.8" height=".52"/>
          <rect class="cls-15" x="4.87" y="26.79" width="87.8" height=".52"/>
          <rect class="cls-5" x="4.87" y="27.31" width="87.8" height=".52"/>
          <rect class="cls-4" x="4.87" y="27.83" width="87.8" height=".52"/>
          <rect class="cls-8" x="4.87" y="28.34" width="87.8" height=".52"/>
          <rect class="cls-7" x="4.87" y="28.86" width="87.8" height=".52"/>
          <rect class="cls-11" x="4.87" y="29.37" width="87.8" height=".52"/>
          <rect class="cls-12" x="4.87" y="29.89" width="87.8" height=".52"/>
          <rect class="cls-10" x="4.87" y="30.41" width="87.8" height=".52"/>
          <rect class="cls-9" x="4.87" y="30.92" width="87.8" height=".52"/>
          <rect class="cls-6" x="4.87" y="31.44" width="87.8" height=".52"/>
          <rect class="cls-96" x="4.87" y="31.96" width="87.8" height=".52"/>
          <rect class="cls-97" x="4.87" y="32.47" width="87.8" height=".52"/>
          <rect class="cls-101" x="4.87" y="32.99" width="87.8" height=".52"/>
          <rect class="cls-100" x="4.87" y="33.51" width="87.8" height=".52"/>
          <rect class="cls-18" x="4.87" y="34.02" width="87.8" height=".52"/>
          <rect class="cls-19" x="4.87" y="34.54" width="87.8" height=".52"/>
          <rect class="cls-21" x="4.87" y="35.06" width="87.8" height=".52"/>
          <rect class="cls-20" x="4.87" y="35.57" width="87.8" height=".52"/>
          <rect class="cls-91" x="4.87" y="36.09" width="87.8" height=".52"/>
          <rect class="cls-90" x="4.87" y="36.6" width="87.8" height=".52"/>
          <rect class="cls-93" x="4.87" y="37.12" width="87.8" height=".52"/>
          <rect class="cls-92" x="4.87" y="37.64" width="87.8" height=".52"/>
          <rect class="cls-117" x="4.87" y="38.15" width="87.8" height=".52"/>
          <rect class="cls-87" x="4.87" y="38.67" width="87.8" height=".52"/>
          <rect class="cls-88" x="4.87" y="39.19" width="87.8" height=".52"/>
          <rect class="cls-89" x="4.87" y="39.7" width="87.8" height=".52"/>
          <rect class="cls-77" x="4.87" y="40.22" width="87.8" height=".52"/>
          <rect class="cls-76" x="4.87" y="40.74" width="87.8" height=".52"/>
          <rect class="cls-75" x="4.87" y="41.25" width="87.8" height=".52"/>
          <rect class="cls-74" x="4.87" y="41.77" width="87.8" height=".52"/>
          <rect class="cls-85" x="4.87" y="42.29" width="87.8" height=".52"/>
          <rect class="cls-84" x="4.87" y="42.8" width="87.8" height=".52"/>
          <rect class="cls-82" x="4.87" y="43.32" width="87.8" height=".52"/>
          <rect class="cls-83" x="4.87" y="43.83" width="87.8" height=".52"/>
          <rect class="cls-71" x="4.87" y="44.35" width="87.8" height=".52"/>
          <rect class="cls-70" x="4.87" y="44.87" width="87.8" height=".52"/>
          <rect class="cls-73" x="4.87" y="45.38" width="87.8" height=".52"/>
          <rect class="cls-72" x="4.87" y="45.9" width="87.8" height=".52"/>
          <rect class="cls-79" x="4.87" y="46.42" width="87.8" height=".52"/>
          <rect class="cls-78" x="4.87" y="46.93" width="87.8" height=".52"/>
          <rect class="cls-80" x="4.87" y="47.45" width="87.8" height=".52"/>
          <rect class="cls-81" x="4.87" y="47.97" width="87.8" height=".52"/>
          <rect class="cls-67" x="4.87" y="48.48" width="87.8" height=".52"/>
          <rect class="cls-65" x="4.87" y="49" width="87.8" height=".52"/>
          <rect class="cls-66" x="4.87" y="49.52" width="87.8" height=".52"/>
          <rect class="cls-69" x="4.87" y="50.03" width="87.8" height=".52"/>
          <rect class="cls-68" x="4.87" y="50.55" width="87.8" height=".52"/>
          <rect class="cls-124" x="4.87" y="51.07" width="87.8" height=".52"/>
          <rect class="cls-123" x="4.87" y="51.58" width="87.8" height=".52"/>
          <rect class="cls-121" x="4.87" y="52.1" width="87.8" height=".52"/>
          <rect class="cls-122" x="4.87" y="52.61" width="87.8" height=".52"/>
          <rect class="cls-109" x="4.87" y="53.13" width="87.8" height=".52"/>
          <rect class="cls-110" x="4.87" y="53.65" width="87.8" height=".52"/>
          <rect class="cls-108" x="4.87" y="54.16" width="87.8" height=".52"/>
          <rect class="cls-107" x="4.87" y="54.68" width="87.8" height=".52"/>
          <rect class="cls-24" x="4.87" y="55.2" width="87.8" height=".52"/>
          <rect class="cls-25" x="4.87" y="55.71" width="87.8" height=".52"/>
          <rect class="cls-26" x="4.87" y="56.23" width="87.8" height=".52"/>
          <rect class="cls-27" x="4.87" y="56.75" width="87.8" height=".52"/>
          <rect class="cls-42" x="4.87" y="57.26" width="87.8" height=".52"/>
          <rect class="cls-39" x="4.87" y="57.78" width="87.8" height=".52"/>
          <rect class="cls-40" x="4.87" y="58.3" width="87.8" height=".52"/>
          <rect class="cls-41" x="4.87" y="58.81" width="87.8" height=".52"/>
          <rect class="cls-43" x="4.87" y="59.33" width="87.8" height=".52"/>
          <rect class="cls-44" x="4.87" y="59.84" width="87.8" height=".52"/>
          <rect class="cls-45" x="4.87" y="60.36" width="87.8" height=".52"/>
          <rect class="cls-46" x="4.87" y="60.88" width="87.8" height=".52"/>
          <rect class="cls-50" x="4.87" y="61.39" width="87.8" height=".52"/>
          <rect class="cls-47" x="4.87" y="61.91" width="87.8" height=".52"/>
          <rect class="cls-49" x="4.87" y="62.43" width="87.8" height=".52"/>
          <rect class="cls-48" x="4.87" y="62.94" width="87.8" height=".52"/>
          <rect class="cls-51" x="4.87" y="63.46" width="87.8" height=".52"/>
          <rect class="cls-52" x="4.87" y="63.98" width="87.8" height=".52"/>
          <rect class="cls-22" x="4.87" y="64.49" width="87.8" height=".52"/>
          <rect class="cls-23" x="4.87" y="65.01" width="87.8" height=".52"/>
          <rect class="cls-29" x="4.87" y="65.53" width="87.8" height=".52"/>
          <rect class="cls-28" x="4.87" y="66.04" width="87.8" height=".52"/>
          <rect class="cls-31" x="4.87" y="66.56" width="87.8" height=".52"/>
          <rect class="cls-30" x="4.87" y="67.07" width="87.8" height=".52"/>
          <rect class="cls-35" x="4.87" y="67.59" width="87.8" height=".52"/>
          <rect class="cls-33" x="4.87" y="68.11" width="87.8" height=".52"/>
          <rect class="cls-32" x="4.87" y="68.62" width="87.8" height=".52"/>
          <rect class="cls-34" x="4.87" y="69.14" width="87.8" height=".52"/>
          <rect class="cls-36" x="4.87" y="69.66" width="87.8" height=".52"/>
          <rect class="cls-38" x="4.87" y="70.17" width="87.8" height=".52"/>
          <rect class="cls-37" x="4.87" y="70.69" width="87.8" height=".52"/>
        </g>
      </g>
    </g>
    <g id="Group_14628" data-name="Group 14628">
      <g id="Group_14627" data-name="Group 14627">
        <g id="Path_26596" data-name="Path 26596">
          <path class="cls-3" d="m58.37,39.09h-24.32l-.1-.05L4.36,26.09V8.7h89.27v17.41l-35.26,12.98Zm-24.1-1h23.91l34.45-12.66v-15.72H5.37v15.74l28.91,12.64Z"/>
        </g>
        <g id="Rectangle_7629" data-name="Rectangle 7629">
          <rect class="cls-14" x="39.43" y="31.39" width="14.76" height="13.16" rx="2.01" ry="2.01"/>
          <path class="cls-3" d="m52.18,45.05h-10.74c-1.38,0-2.51-1.13-2.51-2.51v-9.14c0-1.38,1.13-2.51,2.51-2.51h10.74c1.38,0,2.51,1.13,2.51,2.51v9.14c0,1.38-1.13,2.51-2.51,2.51Zm-10.74-13.16c-.83,0-1.51.68-1.51,1.51v9.14c0,.83.68,1.51,1.51,1.51h10.74c.83,0,1.51-.68,1.51-1.51v-9.14c0-.83-.68-1.51-1.51-1.51h-10.74Z"/>
        </g>
      </g>
    </g>
  </g>
</svg>