<?xml version="1.0" encoding="UTF-8"?>
<svg id="Layer_1" data-name="Layer 1" xmlns="http://www.w3.org/2000/svg" xmlns:xlink="http://www.w3.org/1999/xlink" viewBox="0 0 98 72">
  <defs>
    <style>
      .cls-1 {
        fill: none;
      }

      .cls-2 {
        clip-path: url(#clippath);
      }

      .cls-3 {
        fill: #6942c6;
      }

      .cls-4 {
        fill: #6740c4;
      }

      .cls-5 {
        fill: #6a43c7;
      }

      .cls-6 {
        fill: #fff;
      }

      .cls-7 {
        fill: #7e59d6;
      }

      .cls-8 {
        fill: #926fe5;
      }

      .cls-9 {
        fill: #734dce;
      }

      .cls-10 {
        fill: #815dd8;
      }

      .cls-11 {
        fill: #663fc4;
      }

      .cls-12 {
        fill: #825ed9;
      }

      .cls-13 {
        fill: #7f5bd7;
      }

      .cls-14 {
        fill: #6841c5;
      }

      .cls-15 {
        fill: #744ece;
      }

      .cls-16 {
        fill: #9977eb;
      }

      .cls-17 {
        fill: #9775e9;
      }

      .cls-18 {
        fill: #6c45c8;
      }

      .cls-19 {
        fill: #7e5ad6;
      }

      .cls-20 {
        fill: #7d57d5;
      }

      .cls-21 {
        fill: #9876ea;
      }

      .cls-22 {
        fill: #6b44c7;
      }

      .cls-23 {
        fill: #805cd8;
      }

      .cls-24 {
        fill: #8b68e0;
      }

      .cls-25 {
        fill: #9370e6;
      }

      .cls-26 {
        fill: #8561db;
      }

      .cls-27 {
        fill: #9471e7;
      }

      .cls-28 {
        fill: #8763dd;
      }

      .cls-29 {
        fill: #8c69e1;
      }

      .cls-30 {
        fill: #9c7aed;
      }

      .cls-31 {
        fill: #8d6ae2;
      }

      .cls-32 {
        fill: #906de4;
      }

      .cls-33 {
        fill: #8f6ce3;
      }

      .cls-34 {
        fill: #916ee4;
      }

      .cls-35 {
        fill: #8e6be2;
      }

      .cls-36 {
        fill: #8662dc;
      }

      .cls-37 {
        fill: #9572e7;
      }

      .cls-38 {
        fill: #6e47c9;
      }

      .cls-39 {
        fill: #6f48ca;
      }

      .cls-40 {
        fill: #714acc;
      }

      .cls-41 {
        fill: #724ccd;
      }

      .cls-42 {
        fill: #9674e9;
      }

      .cls-43 {
        fill: #9673e8;
      }

      .cls-44 {
        fill: #8a66df;
      }

      .cls-45 {
        fill: #8864dd;
      }

      .cls-46 {
        fill: #8a67df;
      }

      .cls-47 {
        fill: #9a78ec;
      }

      .cls-48 {
        fill: #8965de;
      }

      .cls-49 {
        fill: #9b79ec;
      }

      .cls-50 {
        fill: #7049cb;
      }

      .cls-51 {
        fill: #6d46c9;
      }

      .cls-52 {
        fill: #643cc2;
      }

      .cls-53 {
        fill: #653ec3;
      }

      .cls-54 {
        fill: #653dc2;
      }

      .cls-55 {
        fill: #8460da;
      }

      .cls-56 {
        fill: #633bc1;
      }

      .cls-57 {
        fill: #6139bf;
      }

      .cls-58 {
        fill: #6038bf;
      }

      .cls-59 {
        fill: #754fcf;
      }

      .cls-60 {
        fill: #7a54d3;
      }

      .cls-61 {
        fill: #7650d0;
      }

      .cls-62 {
        fill: #7751d1;
      }

      .cls-63 {
        fill: #623ac0;
      }

      .cls-64 {
        fill: #7953d2;
      }

      .cls-65 {
        fill: #5f37be;
      }

      .cls-66 {
        fill: #714bcc;
      }

      .cls-67 {
        fill: #7b55d3;
      }

      .cls-68 {
        fill: #835fda;
      }

      .cls-69 {
        fill: #7852d1;
      }

      .cls-70 {
        fill: #7c56d4;
      }

      .cls-71 {
        clip-path: url(#clippath-1);
      }
    </style>
    <clipPath id="clippath">
      <rect class="cls-1" x=".75" y=".41" width="87.61" height="53.34"/>
    </clipPath>
    <clipPath id="clippath-1">
      <circle class="cls-1" cx="82.39" cy="63.02" r="4.03"/>
    </clipPath>
  </defs>
  <g id="Group_14818" data-name="Group 14818">
    <g id="Rectangle_110" data-name="Rectangle 110">
      <g class="cls-2">
        <polygon class="cls-30" points="41.05 .41 .75 .55 .75 .41 41.05 .41"/>
        <polygon class="cls-30" points="88.36 1.03 .75 1.35 .75 .55 41.05 .41 88.36 .41 88.36 1.03"/>
        <polygon class="cls-49" points="88.36 1.83 .75 2.15 .75 1.35 88.36 1.03 88.36 1.83"/>
        <polygon class="cls-47" points="88.36 2.62 .75 2.94 .75 2.15 88.36 1.83 88.36 2.62"/>
        <polygon class="cls-16" points="88.36 3.42 .75 3.74 .75 2.94 88.36 2.62 88.36 3.42"/>
        <polygon class="cls-21" points="88.36 4.22 .75 4.54 .75 3.74 88.36 3.42 88.36 4.22"/>
        <polygon class="cls-17" points="88.36 5.01 .75 5.33 .75 4.54 88.36 4.22 88.36 5.01"/>
        <polygon class="cls-42" points="88.36 5.81 .75 6.13 .75 5.33 88.36 5.01 88.36 5.81"/>
        <polygon class="cls-43" points="88.36 6.6 .75 6.92 .75 6.13 88.36 5.81 88.36 6.6"/>
        <polygon class="cls-37" points="88.36 7.4 .75 7.72 .75 6.92 88.36 6.6 88.36 7.4"/>
        <polygon class="cls-27" points="88.36 8.2 .75 8.52 .75 7.72 88.36 7.4 88.36 8.2"/>
        <polygon class="cls-25" points="88.36 8.99 .75 9.31 .75 8.52 88.36 8.2 88.36 8.99"/>
        <polygon class="cls-8" points="88.36 9.79 .75 10.11 .75 9.31 88.36 8.99 88.36 9.79"/>
        <polygon class="cls-34" points="88.36 10.59 .75 10.91 .75 10.11 88.36 9.79 88.36 10.59"/>
        <polygon class="cls-32" points="88.36 11.38 .75 11.7 .75 10.91 88.36 10.59 88.36 11.38"/>
        <polygon class="cls-33" points="88.36 12.18 .75 12.5 .75 11.7 88.36 11.38 88.36 12.18"/>
        <polygon class="cls-35" points="88.36 12.97 .75 13.29 .75 12.5 88.36 12.18 88.36 12.97"/>
        <polygon class="cls-31" points="88.36 13.77 .75 14.09 .75 13.29 88.36 12.97 88.36 13.77"/>
        <polygon class="cls-29" points="88.36 14.57 .75 14.89 .75 14.09 88.36 13.77 88.36 14.57"/>
        <polygon class="cls-24" points="88.36 15.36 .75 15.68 .75 14.89 88.36 14.57 88.36 15.36"/>
        <polygon class="cls-46" points="88.36 16.16 .75 16.48 .75 15.68 88.36 15.36 88.36 16.16"/>
        <polygon class="cls-44" points="88.36 16.95 .75 17.27 .75 16.48 88.36 16.16 88.36 16.95"/>
        <polygon class="cls-48" points="88.36 17.75 .75 18.07 .75 17.27 88.36 16.95 88.36 17.75"/>
        <polygon class="cls-45" points="88.36 18.55 .75 18.87 .75 18.07 88.36 17.75 88.36 18.55"/>
        <polygon class="cls-28" points="88.36 19.34 .75 19.66 .75 18.87 88.36 18.55 88.36 19.34"/>
        <polygon class="cls-36" points="88.36 20.14 .75 20.46 .75 19.66 88.36 19.34 88.36 20.14"/>
        <polygon class="cls-26" points="88.36 20.94 .75 21.26 .75 20.46 88.36 20.14 88.36 20.94"/>
        <polygon class="cls-55" points="88.36 21.73 .75 22.05 .75 21.26 88.36 20.94 88.36 21.73"/>
        <polygon class="cls-68" points="88.36 22.53 .75 22.85 .75 22.05 88.36 21.73 88.36 22.53"/>
        <polygon class="cls-12" points="88.36 23.32 .75 23.64 .75 22.85 88.36 22.53 88.36 23.32"/>
        <polygon class="cls-10" points="88.36 24.12 .75 24.44 .75 23.64 88.36 23.32 88.36 24.12"/>
        <polygon class="cls-23" points="88.36 24.92 .75 25.24 .75 24.44 88.36 24.12 88.36 24.92"/>
        <polygon class="cls-13" points="88.36 25.71 .75 26.03 .75 25.24 88.36 24.92 88.36 25.71"/>
        <polygon class="cls-19" points="88.36 26.51 .75 26.83 .75 26.03 88.36 25.71 88.36 26.51"/>
        <polygon class="cls-7" points="88.36 27.31 .75 27.63 .75 26.83 88.36 26.51 88.36 27.31"/>
        <polygon class="cls-20" points="88.36 28.1 .75 28.42 .75 27.63 88.36 27.31 88.36 28.1"/>
        <polygon class="cls-70" points="88.36 28.9 .75 29.22 .75 28.42 88.36 28.1 88.36 28.9"/>
        <polygon class="cls-67" points="88.36 29.69 .75 30.01 .75 29.22 88.36 28.9 88.36 29.69"/>
        <polygon class="cls-60" points="88.36 30.49 .75 30.81 .75 30.01 88.36 29.69 88.36 30.49"/>
        <polygon class="cls-64" points="88.36 31.29 .75 31.61 .75 30.81 88.36 30.49 88.36 31.29"/>
        <polygon class="cls-69" points="88.36 32.08 .75 32.4 .75 31.61 88.36 31.29 88.36 32.08"/>
        <polygon class="cls-62" points="88.36 32.88 .75 33.2 .75 32.4 88.36 32.08 88.36 32.88"/>
        <polygon class="cls-61" points="88.36 33.67 .75 33.99 .75 33.2 88.36 32.88 88.36 33.67"/>
        <polygon class="cls-59" points="88.36 34.47 .75 34.79 .75 33.99 88.36 33.67 88.36 34.47"/>
        <polygon class="cls-15" points="88.36 35.27 .75 35.59 .75 34.79 88.36 34.47 88.36 35.27"/>
        <polygon class="cls-9" points="88.36 36.06 .75 36.38 .75 35.59 88.36 35.27 88.36 36.06"/>
        <polygon class="cls-41" points="88.36 36.86 .75 37.18 .75 36.38 88.36 36.06 88.36 36.86"/>
        <polygon class="cls-66" points="88.36 37.66 .75 37.98 .75 37.18 88.36 36.86 88.36 37.66"/>
        <polygon class="cls-40" points="88.36 38.45 .75 38.77 .75 37.98 88.36 37.66 88.36 38.45"/>
        <polygon class="cls-50" points="88.36 39.25 .75 39.57 .75 38.77 88.36 38.45 88.36 39.25"/>
        <polygon class="cls-39" points="88.36 40.04 .75 40.36 .75 39.57 88.36 39.25 88.36 40.04"/>
        <polygon class="cls-38" points="88.36 40.84 .75 41.16 .75 40.36 88.36 40.04 88.36 40.84"/>
        <polygon class="cls-51" points="88.36 41.64 .75 41.96 .75 41.16 88.36 40.84 88.36 41.64"/>
        <polygon class="cls-18" points="88.36 42.43 .75 42.75 .75 41.96 88.36 41.64 88.36 42.43"/>
        <polygon class="cls-22" points="88.36 43.23 .75 43.55 .75 42.75 88.36 42.43 88.36 43.23"/>
        <polygon class="cls-5" points="88.36 44.03 .75 44.35 .75 43.55 88.36 43.23 88.36 44.03"/>
        <polygon class="cls-3" points="88.36 44.82 .75 45.14 .75 44.35 88.36 44.03 88.36 44.82"/>
        <polygon class="cls-14" points="88.36 45.62 .75 45.94 .75 45.14 88.36 44.82 88.36 45.62"/>
        <polygon class="cls-4" points="88.36 46.41 .75 46.73 .75 45.94 88.36 45.62 88.36 46.41"/>
        <polygon class="cls-11" points="88.36 47.21 .75 47.53 .75 46.73 88.36 46.41 88.36 47.21"/>
        <polygon class="cls-53" points="88.36 48.01 .75 48.33 .75 47.53 88.36 47.21 88.36 48.01"/>
        <polygon class="cls-54" points="88.36 48.8 .75 49.12 .75 48.33 88.36 48.01 88.36 48.8"/>
        <polygon class="cls-52" points="88.36 49.6 .75 49.92 .75 49.12 88.36 48.8 88.36 49.6"/>
        <polygon class="cls-56" points="88.36 50.39 .75 50.71 .75 49.92 88.36 49.6 88.36 50.39"/>
        <polygon class="cls-63" points="88.36 51.19 .75 51.51 .75 50.71 88.36 50.39 88.36 51.19"/>
        <polygon class="cls-57" points="88.36 51.99 .75 52.31 .75 51.51 88.36 51.19 88.36 51.99"/>
        <polygon class="cls-58" points="88.36 52.78 .75 53.1 .75 52.31 88.36 51.99 88.36 52.78"/>
        <polygon class="cls-65" points="88.36 53.58 41.58 53.75 .75 53.75 .75 53.1 88.36 52.78 88.36 53.58"/>
        <polygon class="cls-65" points="41.58 53.75 88.36 53.58 88.36 53.75 41.58 53.75"/>
      </g>
    </g>
    <g id="Rectangle_78" data-name="Rectangle 78">
      <path class="cls-6" d="m28.65,71.49v-.57c0-4.58,3.73-8.31,8.31-8.31h17.94c4.58,0,8.31,3.73,8.31,8.31v.57H28.65Zm1.16-1.14h32.25c-.29-3.69-3.39-6.61-7.16-6.61h-17.94c-3.77,0-6.86,2.92-7.15,6.61Z"/>
    </g>
    <g id="Line_8" data-name="Line 8">
      <rect class="cls-6" x="54.85" y="53.75" width="1.14" height="9.43"/>
    </g>
    <g id="Line_9" data-name="Line 9">
      <rect class="cls-6" x="36.08" y="53.75" width="1.14" height="9.43"/>
    </g>
    <g id="Ellipse_10" data-name="Ellipse 10">
      <path class="cls-6" d="m22.22,51.12c-1.35,0-2.44-1.1-2.44-2.44s1.1-2.44,2.44-2.44,2.44,1.1,2.44,2.44-1.1,2.44-2.44,2.44Z"/>
    </g>
    <g id="Ellipse_11" data-name="Ellipse 11">
      <path class="cls-6" d="m15.56,51.12c-1.35,0-2.44-1.1-2.44-2.44s1.1-2.44,2.44-2.44,2.44,1.1,2.44,2.44-1.1,2.44-2.44,2.44Z"/>
    </g>
    <g id="Ellipse_12" data-name="Ellipse 12">
      <path class="cls-6" d="m8.77,51.12c-1.35,0-2.44-1.1-2.44-2.44s1.1-2.44,2.44-2.44,2.44,1.1,2.44,2.44-1.1,2.44-2.44,2.44Z"/>
    </g>
    <g id="Rectangle_80" data-name="Rectangle 80">
      <path class="cls-6" d="m96.69,71.49h-28.61V24.02h28.61v47.48Zm-27.48-1.14h26.34V25.15h-26.34v45.2Z"/>
    </g>
    <g id="Ellipse_13" data-name="Ellipse 13">
      <g class="cls-71">
        <rect class="cls-30" x="78.36" y="58.99" width="8.06" height=".12"/>
        <rect class="cls-49" x="78.36" y="59.11" width="8.06" height=".12"/>
        <rect class="cls-47" x="78.36" y="59.23" width="8.06" height=".12"/>
        <rect class="cls-16" x="78.36" y="59.35" width="8.06" height=".12"/>
        <rect class="cls-21" x="78.36" y="59.47" width="8.06" height=".12"/>
        <rect class="cls-17" x="78.36" y="59.59" width="8.06" height=".12"/>
        <rect class="cls-42" x="78.36" y="59.71" width="8.06" height=".12"/>
        <rect class="cls-43" x="78.36" y="59.83" width="8.06" height=".12"/>
        <rect class="cls-37" x="78.36" y="59.95" width="8.06" height=".12"/>
        <rect class="cls-27" x="78.36" y="60.07" width="8.06" height=".12"/>
        <rect class="cls-25" x="78.36" y="60.2" width="8.06" height=".12"/>
        <rect class="cls-8" x="78.36" y="60.32" width="8.06" height=".12"/>
        <rect class="cls-34" x="78.36" y="60.44" width="8.06" height=".12"/>
        <rect class="cls-32" x="78.36" y="60.56" width="8.06" height=".12"/>
        <rect class="cls-33" x="78.36" y="60.68" width="8.06" height=".12"/>
        <rect class="cls-35" x="78.36" y="60.8" width="8.06" height=".12"/>
        <rect class="cls-31" x="78.36" y="60.92" width="8.06" height=".12"/>
        <rect class="cls-29" x="78.36" y="61.04" width="8.06" height=".12"/>
        <rect class="cls-24" x="78.36" y="61.16" width="8.06" height=".12"/>
        <rect class="cls-46" x="78.36" y="61.28" width="8.06" height=".12"/>
        <rect class="cls-44" x="78.36" y="61.4" width="8.06" height=".12"/>
        <rect class="cls-48" x="78.36" y="61.52" width="8.06" height=".12"/>
        <rect class="cls-45" x="78.36" y="61.64" width="8.06" height=".12"/>
        <rect class="cls-28" x="78.36" y="61.76" width="8.06" height=".12"/>
        <rect class="cls-36" x="78.36" y="61.88" width="8.06" height=".12"/>
        <rect class="cls-26" x="78.36" y="62" width="8.06" height=".12"/>
        <rect class="cls-55" x="78.36" y="62.12" width="8.06" height=".12"/>
        <rect class="cls-68" x="78.36" y="62.24" width="8.06" height=".12"/>
        <rect class="cls-12" x="78.36" y="62.36" width="8.06" height=".12"/>
        <rect class="cls-10" x="78.36" y="62.48" width="8.06" height=".12"/>
        <rect class="cls-23" x="78.36" y="62.6" width="8.06" height=".12"/>
        <rect class="cls-13" x="78.36" y="62.72" width="8.06" height=".12"/>
        <rect class="cls-19" x="78.36" y="62.84" width="8.06" height=".12"/>
        <rect class="cls-7" x="78.36" y="62.96" width="8.06" height=".12"/>
        <rect class="cls-20" x="78.36" y="63.08" width="8.06" height=".12"/>
        <rect class="cls-70" x="78.36" y="63.2" width="8.06" height=".12"/>
        <rect class="cls-67" x="78.36" y="63.32" width="8.06" height=".12"/>
        <rect class="cls-60" x="78.36" y="63.44" width="8.06" height=".12"/>
        <rect class="cls-64" x="78.36" y="63.56" width="8.06" height=".12"/>
        <rect class="cls-69" x="78.36" y="63.68" width="8.06" height=".12"/>
        <rect class="cls-62" x="78.36" y="63.8" width="8.06" height=".12"/>
        <rect class="cls-61" x="78.36" y="63.92" width="8.06" height=".12"/>
        <rect class="cls-59" x="78.36" y="64.05" width="8.06" height=".12"/>
        <rect class="cls-15" x="78.36" y="64.17" width="8.06" height=".12"/>
        <rect class="cls-9" x="78.36" y="64.29" width="8.06" height=".12"/>
        <rect class="cls-41" x="78.36" y="64.41" width="8.06" height=".12"/>
        <rect class="cls-66" x="78.36" y="64.53" width="8.06" height=".12"/>
        <rect class="cls-40" x="78.36" y="64.65" width="8.06" height=".12"/>
        <rect class="cls-50" x="78.36" y="64.77" width="8.06" height=".12"/>
        <rect class="cls-39" x="78.36" y="64.89" width="8.06" height=".12"/>
        <rect class="cls-38" x="78.36" y="65.01" width="8.06" height=".12"/>
        <rect class="cls-51" x="78.36" y="65.13" width="8.06" height=".12"/>
        <rect class="cls-18" x="78.36" y="65.25" width="8.06" height=".12"/>
        <rect class="cls-22" x="78.36" y="65.37" width="8.06" height=".12"/>
        <rect class="cls-5" x="78.36" y="65.49" width="8.06" height=".12"/>
        <rect class="cls-3" x="78.36" y="65.61" width="8.06" height=".12"/>
        <rect class="cls-14" x="78.36" y="65.73" width="8.06" height=".12"/>
        <rect class="cls-4" x="78.36" y="65.85" width="8.06" height=".12"/>
        <rect class="cls-11" x="78.36" y="65.97" width="8.06" height=".12"/>
        <rect class="cls-53" x="78.36" y="66.09" width="8.06" height=".12"/>
        <rect class="cls-54" x="78.36" y="66.21" width="8.06" height=".12"/>
        <rect class="cls-52" x="78.36" y="66.33" width="8.06" height=".12"/>
        <rect class="cls-56" x="78.36" y="66.45" width="8.06" height=".12"/>
        <rect class="cls-63" x="78.36" y="66.57" width="8.06" height=".12"/>
        <rect class="cls-57" x="78.36" y="66.69" width="8.06" height=".12"/>
        <rect class="cls-58" x="78.36" y="66.81" width="8.06" height=".12"/>
        <rect class="cls-65" x="78.36" y="66.93" width="8.06" height=".12"/>
      </g>
    </g>
  </g>
</svg>