<?xml version="1.0" encoding="UTF-8"?>
<svg id="Layer_1" data-name="Layer 1" xmlns="http://www.w3.org/2000/svg" xmlns:xlink="http://www.w3.org/1999/xlink" viewBox="0 0 98 72">
  <defs>
    <style>
      .cls-1 {
        fill: none;
      }

      .cls-2 {
        fill: url(#linear-gradient);
      }

      .cls-3 {
        fill: #fff;
      }
    </style>
    <linearGradient id="linear-gradient" x1="27.52" y1="8.45" x2="65.76" y2="66.36" gradientUnits="userSpaceOnUse">
      <stop offset="0" stop-color="#81dc91"/>
      <stop offset="1" stop-color="#52945d"/>
    </linearGradient>
  </defs>
  <path class="cls-2" d="m84.55,27.63c-.48-1.44-1.6-2.08-3.06-2.22-7.12-.66-14.24-1.33-21.36-1.96-.56-.05-.82-.25-1.03-.75-1.2-2.85-2.44-5.69-3.67-8.53,0-.02-.02-.04-.03-.07-.02-.08-.05-.17-.09-.26-.78-1.87-3.98-9.23-4.8-11.08-.54-1.21-1.49-1.91-2.84-2-1.41-.1-2.56.74-3.28,2.41-2.78,6.45-5.56,12.9-8.32,19.37-.26.62-.57.87-1.29.93-7.07.62-14.13,1.28-21.19,1.94-1.45.14-2.57.79-3.05,2.23-.52,1.57.14,2.76,1.31,3.79,5.29,4.63,10.57,9.29,15.88,13.91.5.44.63.84.46,1.45-.29,1.12-1.78,7.58-2.08,9.3,0,.03-.02.05-.03.08-.07.2-.11.4-.16.6-.47,2.06-.94,4.12-1.39,6.18-.41,1.86-.82,3.72-1.14,5.19-.04,1.32.28,2.09.94,2.73,1.16,1.13,2.61,1.23,4.26.26,6.05-3.58,12.09-7.17,18.12-10.78.61-.36,1.05-.39,1.67-.02,6.05,3.63,12.13,7.22,18.19,10.83,1.29.77,2.59.93,3.85.01,1.26-.92,1.5-2.2,1.17-3.67-1.56-6.88-3.1-13.77-4.67-20.64-.16-.69-.03-1.12.52-1.59,5.31-4.62,10.58-9.28,15.87-13.91,1.15-1.01,1.75-2.2,1.24-3.73Z"/>
  <g>
    <polyline class="cls-1" points="45.88 39.59 35.26 29.51 30.4 34.64 41.01 44.71"/>
    <polyline class="cls-1" points="41.74 45.4 46.84 50.25 51.7 45.13"/>
    <polyline class="cls-1" points="52.41 44.42 75.36 21.08 70.24 16.22 47.29 39.56"/>
    <polygon class="cls-3" points="41.01 44.71 30.4 34.64 35.26 29.51 45.88 39.59 46.56 38.87 35.23 28.1 28.99 34.67 40.32 45.44 40.99 44.73 41.01 44.71"/>
    <polygon class="cls-3" points="70.2 14.81 46.56 38.87 47.29 39.56 70.24 16.22 75.36 21.08 52.41 44.42 53.12 45.09 46.87 51.66 41.05 46.13 40.32 45.44 40.31 45.46 46.88 51.7 76.78 21.05 70.2 14.81"/>
    <polygon class="cls-3" points="52.38 44.39 51.69 45.11 51.7 45.13 46.84 50.25 41.74 45.4 41.05 46.13 46.87 51.66 53.12 45.09 52.38 44.39"/>
    <rect class="cls-3" x="46.08" y="39.07" width="1" height="1" transform="translate(-14.19 46.09) rotate(-46.47)"/>
    <polygon class="cls-3" points="41.74 45.4 41.37 45.06 40.99 44.73 40.32 45.44 41.05 46.13 41.74 45.4"/>
  </g>
</svg>